<svg width="1440" height="489" viewBox="0 0 1440 489" fill="none" xmlns="http://www.w3.org/2000/svg">
<path opacity="0.16" fill-rule="evenodd" clip-rule="evenodd" d="M-130 296.172L-59.125 285.46C11.75 274.747 153.5 253.322 295.25 274.747C437 296.172 578.75 360.448 720.5 392.586C862.25 424.724 1004 424.724 1145.75 349.736C1287.5 274.747 1429.25 124.77 1500.12 49.7819L1571 -25.2065V489H1500.12C1429.25 489 1287.5 489 1145.75 489C1004 489 862.25 489 720.5 489C578.75 489 437 489 295.25 489C153.5 489 11.75 489 -59.125 489H-130V296.172Z" fill="url(#paint0_linear)"/>
<path opacity="0.24" fill-rule="evenodd" clip-rule="evenodd" d="M1632 210.472L1590.88 229.097C1549.75 247.721 1467.5 284.97 1385.25 278.762C1303 272.554 1220.75 222.889 1138.5 247.721C1056.25 272.554 974 371.885 891.75 427.759C809.5 483.633 727.25 496.049 686.125 502.257L645 508.465V545.714H686.125C727.25 545.714 809.5 545.714 891.75 545.714C974 545.714 1056.25 545.714 1138.5 545.714C1220.75 545.714 1303 545.714 1385.25 545.714C1467.5 545.714 1549.75 545.714 1590.88 545.714H1632V210.472Z" fill="url(#paint1_linear)"/>
<defs>
<linearGradient id="paint0_linear" x1="-130" y1="489" x2="1571" y2="489" gradientUnits="userSpaceOnUse">
<stop stop-color="white"/>
<stop offset="1" stop-color="white" stop-opacity="0.32"/>
</linearGradient>
<linearGradient id="paint1_linear" x1="645" y1="545.715" x2="1632" y2="545.715" gradientUnits="userSpaceOnUse">
<stop stop-color="white" stop-opacity="0"/>
<stop offset="1" stop-color="white"/>
</linearGradient>
</defs>
</svg>
