<svg width="72" height="72" viewBox="0 0 72 72" fill="none" xmlns="http://www.w3.org/2000/svg">
<path d="M20.25 14.625C22.7318 14.625 24.75 12.6068 24.75 10.125C24.75 7.64325 22.7318 5.625 20.25 5.625C17.7682 5.625 15.75 7.64325 15.75 10.125C15.75 12.6068 17.7682 14.625 20.25 14.625ZM20.25 7.875C21.4909 7.875 22.5 8.88412 22.5 10.125C22.5 11.3659 21.4909 12.375 20.25 12.375C19.0091 12.375 18 11.3659 18 10.125C18 8.88412 19.0091 7.875 20.25 7.875Z" fill="#1D1D1F"/>
<path d="M15.75 61.875C15.75 64.3568 17.7682 66.375 20.25 66.375C22.7318 66.375 24.75 64.3568 24.75 61.875C24.75 59.3932 22.7318 57.375 20.25 57.375C17.7682 57.375 15.75 59.3932 15.75 61.875ZM22.5 61.875C22.5 63.1159 21.4909 64.125 20.25 64.125C19.0091 64.125 18 63.1159 18 61.875C18 60.6341 19.0091 59.625 20.25 59.625C21.4909 59.625 22.5 60.6341 22.5 61.875Z" fill="#1D1D1F"/>
<path d="M51.75 57.375C49.2682 57.375 47.25 59.3932 47.25 61.875C47.25 64.3568 49.2682 66.375 51.75 66.375C54.2318 66.375 56.25 64.3568 56.25 61.875C56.25 59.3932 54.2318 57.375 51.75 57.375ZM51.75 64.125C50.5091 64.125 49.5 63.1159 49.5 61.875C49.5 60.6341 50.5091 59.625 51.75 59.625C52.9909 59.625 54 60.6341 54 61.875C54 63.1159 52.9909 64.125 51.75 64.125Z" fill="#1D1D1F"/>
<path d="M56.25 54.09V47.043C57.5561 46.5773 58.5 45.3397 58.5 43.875V22.5C58.5 21.0352 57.5561 19.7978 56.25 19.332V17.91C59.0051 16.3125 60.75 13.3313 60.75 10.125C60.75 5.16263 56.7124 1.125 51.75 1.125C46.7876 1.125 42.75 5.16263 42.75 10.125C42.75 13.3313 44.4949 16.3125 47.25 17.91V19.332C45.9439 19.7978 45 21.0352 45 22.5V43.875C45 45.3397 45.9439 46.5773 47.25 47.043V54.09C44.4949 55.6875 42.75 58.6688 42.75 61.875C42.75 66.8374 46.7876 70.875 51.75 70.875C56.7124 70.875 60.75 66.8374 60.75 61.875C60.75 58.6688 59.0051 55.6875 56.25 54.09ZM45 10.125C45 6.40238 48.0274 3.375 51.75 3.375C55.4726 3.375 58.5 6.40238 58.5 10.125C58.5 12.7102 56.9858 15.1009 54.6412 16.2157L54 16.5217V19.125H49.5V16.5217L48.8588 16.2169C46.5143 15.1009 45 12.7102 45 10.125ZM47.25 22.5C47.25 21.879 47.7551 21.375 48.375 21.375H55.125C55.7449 21.375 56.25 21.879 56.25 22.5V43.875C56.25 44.496 55.7449 45 55.125 45H48.375C47.7551 45 47.25 44.496 47.25 43.875V22.5ZM51.75 68.625C48.0274 68.625 45 65.5976 45 61.875C45 59.2897 46.5143 56.8991 48.8588 55.7842L49.5 55.4782V47.25H54V55.4782L54.6412 55.7831C56.9858 56.8991 58.5 59.2897 58.5 61.875C58.5 65.5976 55.4726 68.625 51.75 68.625Z" fill="#1D1D1F"/>
<path fill-rule="evenodd" clip-rule="evenodd" d="M56.25 47.043C57.5561 46.5773 58.5 45.3398 58.5 43.875V22.5C58.5 21.0352 57.5561 19.7978 56.25 19.332L54 19.125H49.5L47.25 19.332C45.9439 19.7978 45 21.0352 45 22.5V43.875C45 45.3398 45.9439 46.5773 47.25 47.043L49.5 47.25H54L56.25 47.043ZM48.375 21.375C47.7551 21.375 47.25 21.879 47.25 22.5V43.875C47.25 44.496 47.7551 45 48.375 45H55.125C55.7449 45 56.25 44.496 56.25 43.875V22.5C56.25 21.879 55.7449 21.375 55.125 21.375H48.375Z" fill="#0090D4"/>
<path d="M29.25 10.125C29.25 5.16263 25.2124 1.125 20.25 1.125C15.2876 1.125 11.25 5.16263 11.25 10.125C11.25 13.3313 12.9949 16.3125 15.75 17.91V19.332C14.4439 19.7978 13.5 21.0352 13.5 22.5V31.5C13.5 32.9648 14.4439 34.2023 15.75 34.668V37.125H14.625C12.7642 37.125 11.25 38.6393 11.25 40.5C11.25 42.3607 12.7642 43.875 14.625 43.875H15.75V46.125H14.625C12.7642 46.125 11.25 47.6393 11.25 49.5C11.25 51.3607 12.7642 52.875 14.625 52.875H15.75V54.09C12.9949 55.6875 11.25 58.6688 11.25 61.875C11.25 66.8374 15.2876 70.875 20.25 70.875C25.2124 70.875 29.25 66.8374 29.25 61.875C29.25 58.6688 27.5051 55.6875 24.75 54.09V52.875H25.875C27.7358 52.875 29.25 51.3607 29.25 49.5C29.25 47.6393 27.7358 46.125 25.875 46.125H24.75V43.875H25.875C27.7358 43.875 29.25 42.3607 29.25 40.5C29.25 38.6393 27.7358 37.125 25.875 37.125H24.75V34.668C26.0561 34.2023 27 32.9648 27 31.5V22.5C27 21.0352 26.0561 19.7978 24.75 19.332V17.91C27.5051 16.3125 29.25 13.3313 29.25 10.125ZM13.5 10.125C13.5 6.40238 16.5274 3.375 20.25 3.375C23.9726 3.375 27 6.40238 27 10.125C27 12.7102 25.4858 15.1009 23.1412 16.2157L22.5 16.5217V19.125H18V16.5217L17.3588 16.2169C15.0143 15.1009 13.5 12.7102 13.5 10.125ZM23.1412 55.7842C25.4858 56.8991 27 59.2897 27 61.875C27 65.5976 23.9726 68.625 20.25 68.625C16.5274 68.625 13.5 65.5976 13.5 61.875C13.5 59.2897 15.0143 56.8991 17.3588 55.7842L18 55.4782V52.875H22.5V55.4782L23.1412 55.7842ZM27 49.5C27 50.121 26.4949 50.625 25.875 50.625H14.625C14.0051 50.625 13.5 50.121 13.5 49.5C13.5 48.879 14.0051 48.375 14.625 48.375H25.875C26.4949 48.375 27 48.879 27 49.5ZM22.5 46.125H18V43.875H22.5V46.125ZM27 40.5C27 41.121 26.4949 41.625 25.875 41.625H14.625C14.0051 41.625 13.5 41.121 13.5 40.5C13.5 39.879 14.0051 39.375 14.625 39.375H25.875C26.4949 39.375 27 39.879 27 40.5ZM18 37.125V34.875H22.5V37.125H18ZM24.75 31.5C24.75 32.121 24.2449 32.625 23.625 32.625H16.875C16.2551 32.625 15.75 32.121 15.75 31.5V22.5C15.75 21.879 16.2551 21.375 16.875 21.375H23.625C24.2449 21.375 24.75 21.879 24.75 22.5V31.5Z" fill="#1D1D1F"/>
<path d="M51.75 14.625C54.2318 14.625 56.25 12.6068 56.25 10.125C56.25 7.64325 54.2318 5.625 51.75 5.625C49.2682 5.625 47.25 7.64325 47.25 10.125C47.25 12.6068 49.2682 14.625 51.75 14.625ZM51.75 7.875C52.9909 7.875 54 8.88412 54 10.125C54 11.3659 52.9909 12.375 51.75 12.375C50.5091 12.375 49.5 11.3659 49.5 10.125C49.5 8.88412 50.5091 7.875 51.75 7.875Z" fill="#1D1D1F"/>
<path d="M18 23.625H22.5V25.875H18V23.625Z" fill="#A9AFB7"/>
<path d="M18 28.125H22.5V30.375H18V28.125Z" fill="#A9AFB7"/>
</svg>
