<svg width="72" height="72" viewBox="0 0 72 72" fill="none" xmlns="http://www.w3.org/2000/svg">
<g clip-path="url(#clip0)">
<path d="M45.1903 8.97128C37.2705 4.96936 27.7304 6.49951 21.4513 12.7787C14.1536 20.0763 13.4231 31.7125 19.7524 39.8454C19.9761 40.1329 20.3106 40.2833 20.6486 40.2833C20.8922 40.2833 21.1376 40.2053 21.3447 40.044C21.8393 39.6591 21.9282 38.9463 21.5434 38.4517C15.9157 31.2204 16.5661 20.8732 23.0561 14.3832C28.6404 8.79873 37.124 7.43776 44.1671 10.9966C44.7262 11.2795 45.4088 11.0548 45.6915 10.4955C45.974 9.93625 45.7498 9.25379 45.1903 8.97128Z" fill="#A9AFB7"/>
<path d="M54.2517 18.0335C53.969 17.4742 53.2869 17.2498 52.7272 17.5322C52.1679 17.8147 51.9433 18.497 52.2259 19.0565C55.7821 26.0985 54.4205 34.581 48.8375 40.1638C42.3473 46.6537 32.0003 47.304 24.769 41.6765C24.2743 41.2918 23.5616 41.3807 23.1767 41.8751C22.7918 42.3697 22.8809 43.0825 23.3754 43.4674C27.0801 46.3505 31.5113 47.7686 35.9285 47.7686C41.2086 47.7686 46.4687 45.742 50.4423 41.7684C56.72 35.4909 58.2508 25.9525 54.2517 18.0335Z" fill="#A9AFB7"/>
<path d="M51.3205 13.7125C51.0394 13.3944 50.7441 13.0802 50.4427 12.779C50.1413 12.4776 49.8273 12.1823 49.5092 11.9012C49.0397 11.4861 48.3225 11.5305 47.9078 12.0001C47.4925 12.4695 47.5367 13.1865 48.0062 13.6015C48.2896 13.8518 48.5694 14.1151 48.838 14.3835C49.1063 14.6521 49.3696 14.9318 49.62 15.2152C49.8442 15.4689 50.1567 15.5984 50.4707 15.5984C50.7377 15.5984 51.0058 15.5046 51.2216 15.3139C51.6913 14.899 51.7355 14.182 51.3205 13.7125Z" fill="#A9AFB7"/>
<path d="M62.7288 29.3075C63.4854 28.0662 63.4854 26.5244 62.7285 25.2834L61.2358 22.8355C61.0392 22.5129 60.9631 22.1298 61.0219 21.7569L61.4668 18.9299C61.6936 17.4892 61.1017 16.0614 59.9225 15.2035L57.609 13.5208C57.3032 13.2981 57.0858 12.9734 56.9968 12.6058L56.323 9.8216C55.981 8.40734 54.8899 7.31637 53.4758 6.97408L50.6914 6.30021C50.3238 6.21119 49.9988 5.99379 49.7765 5.68793L48.0935 3.37394C47.2357 2.19465 45.8078 1.60248 44.3675 1.82945L41.5395 2.27439C41.1666 2.33303 40.7834 2.25709 40.4611 2.0605L38.0128 0.567337C36.7716 -0.189508 35.2298 -0.189368 33.9886 0.567337L31.5406 2.06007C31.2183 2.25681 30.8354 2.33247 30.462 2.27397L27.6349 1.82903C26.1946 1.60234 24.7666 2.19423 23.9088 3.37351L22.226 5.68694C22.0034 5.9928 21.6786 6.21021 21.3109 6.29922L18.5266 6.97296C17.1126 7.31496 16.0214 8.40607 15.6791 9.8202L15.0052 12.6046C14.9162 12.9722 14.6989 13.2972 14.3929 13.5195L12.0789 15.2025C10.8997 16.0602 10.3079 17.4878 10.5345 18.9285L10.9794 21.7566C11.038 22.1297 10.9621 22.5128 10.7655 22.8351L9.27248 25.2835C8.51592 26.5247 8.51592 28.0665 9.27262 29.3075L10.7654 31.7555C10.962 32.0781 11.038 32.4611 10.9793 32.8341L10.5343 35.6612C10.3075 37.1018 10.8994 38.5297 12.0787 39.3875L14.3921 41.0702C14.6979 41.2926 14.9154 41.6175 15.0044 41.9851L15.6781 44.7694C16.0201 46.1836 17.1112 47.2746 18.5253 47.6169L19.688 47.8983L11.8195 65.4503C11.6523 65.8234 11.6986 66.2573 11.9408 66.5867C12.183 66.916 12.5834 67.0897 12.9895 67.041L19.3207 66.2841L22.968 71.5141C23.1814 71.8199 23.5298 71.9996 23.8984 71.9996C23.9337 71.9996 23.9694 71.9979 24.0048 71.9947C24.4118 71.9565 24.7669 71.7021 24.9341 71.3293L32.9701 53.4025L33.9884 54.0234C34.6089 54.4018 35.3046 54.5909 36.0004 54.5909C36.6962 54.5909 37.3919 54.4016 38.0125 54.0234L39.0675 53.3801L47.1136 71.3293C47.2808 71.7023 47.6358 71.9565 48.0429 71.9947C48.0784 71.9981 48.114 71.9998 48.1493 71.9998C48.5179 71.9998 48.8664 71.82 49.0797 71.5142L52.727 66.2842L59.0582 67.0412C59.464 67.0894 59.8647 66.9162 60.1068 66.5868C60.349 66.2575 60.3955 65.8235 60.2282 65.4504L52.3556 47.8887L53.4745 47.618C54.8885 47.276 55.9798 46.1849 56.322 44.7708L56.9959 41.9864C57.0849 41.6188 57.3023 41.2938 57.6082 41.0715L59.9222 39.3885C61.1015 38.5308 61.6932 37.1032 61.4667 35.6625L61.0217 32.8344C60.9631 32.4613 61.039 32.0782 61.2356 31.7559L62.7288 29.3075ZM23.6831 68.5725L20.7926 64.4277C20.553 64.084 20.1432 63.9 19.7273 63.9501L14.7099 64.55L21.8788 48.5577C22.0099 48.654 22.1275 48.7695 22.2244 48.9029L23.9074 51.2169C24.0672 51.4367 24.247 51.636 24.4429 51.8134L20.6695 60.2308C20.4132 60.8028 20.6689 61.474 21.2407 61.7303C21.3914 61.798 21.5491 61.8299 21.704 61.8299C22.1374 61.8299 22.5514 61.5801 22.74 61.1591L26.5001 52.7717C26.87 52.8224 27.251 52.8216 27.6334 52.7614L30.4613 52.3164C30.6306 52.2899 30.8018 52.2923 30.9684 52.3198L23.6831 68.5725ZM57.3381 64.5497L52.3205 63.9501C51.9042 63.9002 51.4948 64.084 51.2552 64.4277L48.3648 68.5725L41.0763 52.3135C41.2292 52.2927 41.3851 52.2927 41.5394 52.3169L44.3664 52.7618C44.7642 52.8244 45.1606 52.8224 45.5447 52.7652L49.3075 61.1594C49.4964 61.5806 49.9101 61.8302 50.3435 61.8302C50.4986 61.8302 50.6562 61.7982 50.8069 61.7306C51.3786 61.4744 51.6344 60.8029 51.3781 60.2311L47.5903 51.7817C47.773 51.6121 47.9419 51.4243 48.0925 51.2173L49.7752 48.9039C49.8813 48.7581 50.0112 48.6331 50.1572 48.5319L57.3381 64.5497ZM60.7911 28.126L59.2981 30.5744C58.8221 31.3554 58.6379 32.2833 58.78 33.1869L59.225 36.0149C59.3185 36.6096 59.0741 37.199 58.5874 37.5531L56.2732 39.2362C55.5326 39.7751 55.0058 40.5621 54.7903 41.4524L54.1165 44.2368C53.9751 44.8206 53.5249 45.271 52.941 45.4123L50.1566 46.086C49.2662 46.3015 48.479 46.8283 47.9401 47.5691L46.2574 49.8825C45.9033 50.3695 45.314 50.6136 44.7191 50.52L41.8919 50.075C40.9881 49.9329 40.0601 50.1168 39.279 50.5931L36.8311 52.0858C36.3188 52.398 35.6821 52.398 35.17 52.0858L32.7216 50.5929C32.1127 50.2216 31.4146 50.0281 30.7083 50.0281C30.5086 50.0281 30.3079 50.0435 30.1089 50.0749L27.2808 50.5198C26.686 50.6135 26.0968 50.3689 25.7427 49.8822L24.0595 47.5682C23.5206 46.8276 22.7336 46.3008 21.8433 46.0853L19.0589 45.4115C18.4751 45.2701 18.0247 44.8199 17.8834 44.236L17.2097 41.4517C16.9942 40.5613 16.4676 39.7739 15.7266 39.2351L13.4133 37.5522C12.9265 37.1981 12.6822 36.6086 12.7759 36.0139L13.2208 33.1868C13.363 32.283 13.1791 31.3551 12.7028 30.574L11.21 28.1258C10.8977 27.6135 10.8977 26.9769 11.21 26.4647L12.703 24.0163C13.1792 23.2353 13.3633 22.3074 13.2211 21.4038L12.7762 18.5758C12.6826 17.9811 12.9271 17.3917 13.4138 17.0376L15.7279 15.3545C16.4686 14.8156 16.9953 14.0286 17.2108 13.1383L17.8847 10.3539C18.026 9.77013 18.4763 9.31971 19.0601 9.17838L21.8445 8.50465C22.735 8.28921 23.5222 7.76243 24.0609 7.02162L25.7436 4.70819C26.0977 4.22134 26.687 3.9768 27.2819 4.07059L30.1091 4.51553C31.013 4.65799 31.941 4.47377 32.722 3.99747L35.1699 2.50473C35.6822 2.19254 36.3189 2.19254 36.831 2.50473L39.2794 3.99761C40.0604 4.47405 40.9885 4.65813 41.8921 4.51581L44.7202 4.07088C45.3147 3.97764 45.9042 4.22177 46.2583 4.70847L47.9415 7.02246C48.4804 7.76313 49.2674 8.28991 50.1577 8.50535L52.9421 9.17923C53.5258 9.32056 53.9763 9.77084 54.1176 10.3547L54.7913 13.139C55.0068 14.0294 55.5334 14.8168 56.2744 15.3556L58.5878 17.0384C59.0746 17.3924 59.3189 17.9819 59.2253 18.5767L58.7803 21.4038C58.6381 22.3076 58.8221 23.2354 59.2984 24.0166L60.7911 26.4647C61.1036 26.977 61.1036 27.6137 60.7911 28.126Z" fill="#1D1D1F"/>
<path d="M49.2771 23.7649C49.027 22.9951 48.3724 22.4577 47.5686 22.3623L40.7411 21.5527L37.8614 15.3097C37.5223 14.5748 36.8089 14.1182 35.9995 14.1182C35.1902 14.1182 34.4767 14.5748 34.1376 15.3097L31.2579 21.5529L24.4304 22.3625C23.6266 22.4578 22.9718 22.9953 22.7219 23.7651C22.4719 24.5344 22.6857 25.3541 23.2797 25.9035L28.3274 30.5716L26.9875 37.3151C26.8299 38.1091 27.1387 38.8977 27.7936 39.3733C28.1549 39.6357 28.5741 39.7686 28.9959 39.7686C29.3389 39.7686 29.6835 39.6809 30 39.5037L35.9994 36.1457L41.9987 39.5037C42.7051 39.8991 43.5504 39.8492 44.2053 39.3735C44.8602 38.8977 45.169 38.109 45.0112 37.3151L43.6713 30.5717L48.7191 25.9037C49.3133 25.3543 49.5271 24.5347 49.2771 23.7649ZM41.6645 29.3369C41.3748 29.6048 41.2451 30.004 41.3219 30.391L42.693 37.2917L36.5536 33.8552C36.3814 33.7589 36.1905 33.7106 35.9994 33.7106C35.8082 33.7106 35.6174 33.7587 35.4452 33.8552L29.3057 37.2917L30.6768 30.391C30.7539 30.0039 30.6241 29.6048 30.3343 29.3369L25.1688 24.5599L32.1559 23.7314C32.5477 23.685 32.8873 23.4382 33.0527 23.0801L35.9995 16.6913L38.9463 23.0801C39.1117 23.4382 39.4511 23.685 39.8431 23.7314L46.8299 24.5599L41.6645 29.3369Z" fill="#0090D4"/>
</g>
<defs>
<clipPath id="clip0">
<rect width="72" height="72" fill="white"/>
</clipPath>
</defs>
</svg>
