<svg width="72" height="72" viewBox="0 0 72 72" fill="none" xmlns="http://www.w3.org/2000/svg">
<path d="M58.0386 47.5561V40.0608L54.8755 41.2915L54.8662 41.2706L54.7908 41.1337C53.5787 39.2466 51.6185 37.9336 49.4112 37.5334L41.7999 36.1485V35.5476C44.6463 33.8948 46.7306 31.075 47.3802 27.7415C49.4889 27.3053 51.0791 25.4344 51.0791 23.1981V11.7417C51.0791 8.50443 48.9588 5.68122 45.8828 4.76257L45.3028 4.18262C42.6049 1.48468 39.0184 0 35.2035 0C27.3289 0 20.9216 6.40616 20.9216 14.2819V23.1981C20.9216 25.4344 22.5118 27.3053 24.6205 27.7415C25.2712 31.075 27.3544 33.8959 30.2008 35.5476V36.1485L22.5907 37.5322C20.3857 37.9324 18.4266 39.2431 17.2134 41.1291L17.1438 41.2985L13.9621 40.0608V47.5561C12.0437 47.5561 10.4824 49.1174 10.4824 51.0359V55.6755C10.4824 57.594 12.0437 59.1552 13.9621 59.1552V63.4283L36.0004 72L58.0386 63.4283V59.1552C59.9571 59.1552 61.5183 57.594 61.5183 55.6755V51.0359C61.5183 49.1174 59.9571 47.5561 58.0386 47.5561ZM43.9735 38.9021L48.9959 39.8149C50.4748 40.084 51.7844 40.9377 52.6578 42.1533L41.4357 46.5169L43.9735 38.9021ZM32.6192 36.6113C33.6898 36.9384 34.8242 37.117 36.0004 37.117C37.1765 37.117 38.3109 36.9384 39.3815 36.6113L36.0004 39.1468L32.6192 36.6113ZM34.235 40.722L31.8676 43.0882L30.3319 38.4822L31.0708 38.3488L34.235 40.722ZM40.93 38.35L41.6688 38.4834L40.1331 43.0893L37.7657 40.7231L40.93 38.35ZM47.5994 25.1955V21.2008C48.2896 21.6032 48.7593 22.3433 48.7593 23.1981C48.7593 24.053 48.2896 24.793 47.5994 25.1955ZM24.4013 25.1955C23.7112 24.793 23.2414 24.053 23.2414 23.1981C23.2414 22.3433 23.7112 21.6032 24.4013 21.2008V25.1955ZM24.4013 17.3986V18.7232C23.9884 18.8311 23.601 18.9935 23.2414 19.2034V14.2819C23.2414 7.6867 28.6071 2.31981 35.2035 2.31981C38.3979 2.31981 41.4032 3.56439 43.6627 5.82389L44.6857 6.84808L44.9977 6.92464C47.2132 7.47791 48.7593 9.45903 48.7593 11.7417V19.2034C48.3997 18.9935 48.0123 18.8299 47.5994 18.7232V17.3986H43.9214C40.778 17.3986 37.7738 15.8977 35.889 13.3842L34.9669 12.1523L32.6621 14.4582C30.7645 16.3547 28.2429 17.3986 25.5612 17.3986H24.4013ZM26.7211 25.5179V19.665C29.5849 19.3994 32.2423 18.1572 34.3022 16.0983L34.7535 15.6471C37.0791 18.214 40.4289 19.7184 43.9214 19.7184H45.2796V25.5179C45.2796 30.6343 41.1167 34.7972 36.0004 34.7972C30.884 34.7972 26.7211 30.6343 26.7211 25.5179ZM23.0048 39.8149L28.0272 38.9021L30.565 46.5169L19.3406 42.1521C20.214 40.9354 21.5259 40.084 23.0048 39.8149ZM12.8022 55.6755V51.0359C12.8022 50.3956 13.323 49.876 13.9621 49.876C15.8806 49.876 17.4419 51.4372 17.4419 53.3557C17.4419 55.2742 15.8806 56.8354 13.9621 56.8354C13.323 56.8354 12.8022 56.3158 12.8022 55.6755ZM34.8404 69.0585L16.282 61.8427V58.6634C18.3269 57.7656 19.7617 55.7277 19.7617 53.3557C19.7617 50.9837 18.3269 48.9457 16.282 48.0479V43.4524L34.8404 50.6693V69.0585ZM31.3967 46.8416L36.0004 42.2368L40.604 46.8405L36.0004 48.6314L31.3967 46.8416ZM55.7188 61.8415L37.1603 69.0573V50.6693L55.7188 43.4524V48.0479C53.6738 48.9457 52.239 50.9837 52.239 53.3557C52.239 55.7277 53.6738 57.7656 55.7188 58.6634V61.8415ZM59.1985 55.6755C59.1985 56.3158 58.6777 56.8354 58.0386 56.8354C56.1201 56.8354 54.5588 55.2742 54.5588 53.3557C54.5588 51.4372 56.1201 49.876 58.0386 49.876C58.6777 49.876 59.1985 50.3956 59.1985 51.0359V55.6755Z" fill="black"/>
<path d="M35.9991 71.9997L13.9609 63.428V59.1613C14.7696 59.1286 15.5685 59.0843 16.2807 58.6498V61.8424L34.8392 69.0582V50.669L16.2807 43.4521V48.0614C15.5685 47.627 14.7696 47.5964 13.9609 47.5638V40.0605L35.9991 48.6311L58.0374 40.0605V47.553C57.2287 47.5855 56.4298 47.63 55.7176 48.0643V43.4521L37.1591 50.669V69.057L55.7176 61.8413V58.6534C56.4298 59.0878 57.2287 59.1131 58.0374 59.1456V63.428L35.9991 71.9997Z" fill="#0090D4"/>
<path d="M66.8 22.8C64.8127 22.7979 63.2021 21.1874 63.2 19.2C63.2 18.5373 62.6627 18 62 18C61.3373 18 60.8 18.5373 60.8 19.2C60.7979 21.1874 59.1874 22.7979 57.2 22.8C56.5373 22.8 56 23.3373 56 24C56 24.6627 56.5373 25.2 57.2 25.2C59.1874 25.2021 60.7979 26.8127 60.8 28.8C60.8 29.4627 61.3373 30 62 30C62.6627 30 63.2 29.4627 63.2 28.8C63.2021 26.8127 64.8127 25.2021 66.8 25.2C67.4627 25.2 68 24.6627 68 24C68 23.3373 67.4627 22.8 66.8 22.8ZM62 25.2035C61.6576 24.7476 61.2524 24.3425 60.7965 24C61.2524 23.6576 61.6576 23.2524 62 22.7966C62.3425 23.2524 62.7476 23.6576 63.2035 24C62.7476 24.3425 62.3425 24.7476 62 25.2035Z" fill="#A9AFB7"/>
<path d="M12.8 6.8C10.8127 6.7979 9.2021 5.18735 9.2 3.2C9.2 2.5373 8.6627 2 8 2C7.3373 2 6.8 2.5373 6.8 3.2C6.7979 5.18735 5.18735 6.7979 3.2 6.8C2.5373 6.8 2 7.3373 2 8C2 8.6627 2.5373 9.2 3.2 9.2C5.18735 9.2021 6.7979 10.8127 6.8 12.8C6.8 13.4627 7.3373 14 8 14C8.6627 14 9.2 13.4627 9.2 12.8C9.2021 10.8127 10.8127 9.2021 12.8 9.2C13.4627 9.2 14 8.6627 14 8C14 7.3373 13.4627 6.8 12.8 6.8ZM8 9.20345C7.65755 8.7476 7.2524 8.34245 6.79655 8C7.2524 7.65755 7.65755 7.2524 8 6.79655C8.34245 7.2524 8.7476 7.65755 9.20345 8C8.7476 8.34245 8.34245 8.7476 8 9.20345Z" fill="#A9AFB7"/>
</svg>
