<svg width="72" height="72" viewBox="0 0 72 72" fill="none" xmlns="http://www.w3.org/2000/svg">
<path d="M62.9501 10.8566H58.6813V7.47344C58.6813 6.49923 57.8842 5.70215 56.91 5.70215C55.9358 5.70215 55.1387 6.49923 55.1387 7.47344V10.8566H37.7801V7.47344C37.7801 6.49923 36.983 5.70215 36.0088 5.70215C35.0346 5.70215 34.2375 6.49923 34.2375 7.47344V10.8566H16.7017V7.47344C16.7017 6.49923 15.9046 5.70215 14.9304 5.70215C13.9562 5.70215 13.1591 6.49923 13.1591 7.47344V10.8566H9.06745C5.17061 10.8566 2 14.1335 2 18.0303V59.2128C2 63.1273 5.1529 66.298 9.06745 66.298H62.9324C66.8469 66.298 69.9998 63.1273 69.9998 59.2305V18.0303C70.0175 14.1335 66.8469 10.8566 62.9501 10.8566ZM66.475 59.2128C66.475 61.1612 64.9162 62.7377 62.9678 62.7554H62.9501H9.06745C7.11903 62.7554 5.54258 61.1789 5.54258 59.2305V59.2128V18.0303C5.54258 16.0642 7.11903 14.3992 9.06745 14.3992H13.1591V16.9675C13.1591 17.9418 13.9562 18.7388 14.9304 18.7388C15.9046 18.7388 16.7017 17.9418 16.7017 16.9675V14.3992H34.2375V16.9675C34.2375 17.9418 35.0346 18.7388 36.0088 18.7388C36.983 18.7388 37.7801 17.9418 37.7801 16.9675V14.3992H55.1387V16.9675C55.1387 17.9418 55.9358 18.7388 56.91 18.7388C57.8842 18.7388 58.6813 17.9418 58.6813 16.9675V14.3992H62.9501C64.9162 14.3992 66.475 16.0819 66.475 18.0303V59.2128Z" fill="#1D1D1F"/>
<path d="M31.3503 25.9125H28.2505C27.2763 25.9125 26.4792 26.7096 26.4792 27.6838C26.4792 28.658 27.2763 29.4551 28.2505 29.4551H31.3503C32.3245 29.4551 33.1216 28.658 33.1216 27.6838C33.1216 26.7096 32.3245 25.9125 31.3503 25.9125Z" fill="#0090D4"/>
<path d="M43.6787 25.9125H40.5789C39.6047 25.9125 38.8076 26.7096 38.8076 27.6838C38.8076 28.658 39.6047 29.4551 40.5789 29.4551H43.6787C44.6529 29.4551 45.4499 28.658 45.4499 27.6838C45.4499 26.7096 44.6706 25.9125 43.6787 25.9125Z" fill="#A9AFB7"/>
<path d="M56.113 25.9125H53.0132C52.039 25.9125 51.2419 26.7096 51.2419 27.6838C51.2419 28.658 52.039 29.4551 53.0132 29.4551H56.113C57.0872 29.4551 57.8843 28.658 57.8843 27.6838C57.8843 26.7096 57.0872 25.9125 56.113 25.9125Z" fill="#A9AFB7"/>
<path d="M31.3503 38.1344H28.2505C27.2763 38.1344 26.4792 38.9315 26.4792 39.9057C26.4792 40.8799 27.2763 41.677 28.2505 41.677H31.3503C32.3245 41.677 33.1216 40.8799 33.1216 39.9057C33.1216 38.9315 32.3245 38.1344 31.3503 38.1344Z" fill="#A9AFB7"/>
<path d="M18.9337 38.1344H15.8162C14.842 38.1344 14.0449 38.9315 14.0449 39.9057C14.0449 40.8799 14.842 41.677 15.8162 41.677H18.916C19.8902 41.677 20.6873 40.8799 20.6873 39.9057C20.6873 38.9315 19.9079 38.1344 18.9337 38.1344Z" fill="#0090D4"/>
<path d="M43.6787 38.1344H40.5789C39.6047 38.1344 38.8076 38.9315 38.8076 39.9057C38.8076 40.8799 39.6047 41.677 40.5789 41.677H43.6787C44.6529 41.677 45.4499 40.8799 45.4499 39.9057C45.4499 38.9315 44.6706 38.1344 43.6787 38.1344Z" fill="#A9AFB7"/>
<path d="M56.113 38.1344H53.0132C52.039 38.1344 51.2419 38.9315 51.2419 39.9057C51.2419 40.8799 52.039 41.677 53.0132 41.677H56.113C57.0872 41.677 57.8843 40.8799 57.8843 39.9057C57.8843 38.9315 57.0872 38.1344 56.113 38.1344Z" fill="#0090D4"/>
<path d="M31.3503 50.1792H28.2505C27.2763 50.1792 26.4792 50.9763 26.4792 51.9505C26.4792 52.9247 27.2763 53.7218 28.2505 53.7218H31.3503C32.3245 53.7218 33.1216 52.9247 33.1216 51.9505C33.1216 50.9763 32.3245 50.1792 31.3503 50.1792Z" fill="#A9AFB7"/>
<path d="M18.9337 50.1792H15.8162C14.842 50.1792 14.0449 50.9763 14.0449 51.9505C14.0449 52.9247 14.842 53.7218 15.8162 53.7218H18.916C19.8902 53.7218 20.6873 52.9247 20.6873 51.9505C20.6873 50.9763 19.9079 50.1792 18.9337 50.1792Z" fill="#A9AFB7"/>
<path d="M43.6787 50.1792H40.5789C39.6047 50.1792 38.8076 50.9763 38.8076 51.9505C38.8076 52.9247 39.6047 53.7218 40.5789 53.7218H43.6787C44.6529 53.7218 45.4499 52.9247 45.4499 51.9505C45.4499 50.9763 44.6706 50.1792 43.6787 50.1792Z" fill="#0090D4"/>
</svg>
