<svg width="72" height="72" viewBox="0 0 72 72" fill="none" xmlns="http://www.w3.org/2000/svg">
<path d="M37.125 8.03813V5.625H34.875V8.03813C33.5756 8.44987 32.625 9.6525 32.625 11.0858C32.625 12.3098 33.3045 13.4089 34.4002 13.9579L36.5929 15.0548C36.9214 15.2179 37.125 15.5475 37.125 15.9142C37.125 16.443 36.693 16.875 36.1642 16.875H35.8369C35.307 16.875 34.875 16.443 34.875 15.9142V14.625H32.625V15.9142C32.625 17.3486 33.5756 18.5512 34.875 18.9619V21.375H37.125V18.9619C38.4244 18.5501 39.375 17.3475 39.375 15.9142C39.375 14.6902 38.6955 13.5911 37.5998 13.0421L35.4071 11.9453C35.0786 11.7821 34.875 11.4525 34.875 11.0858C34.875 10.557 35.307 10.125 35.8358 10.125H36.1631C36.693 10.125 37.125 10.557 37.125 11.0858V11.25H39.375V11.0858C39.375 9.6525 38.4244 8.44987 37.125 8.03813Z" fill="#1D1D1F"/>
<path d="M67.5 43.875H67.0658C66.2884 42.4823 64.836 41.625 63.2295 41.625C62.055 41.625 60.9525 42.0817 60.1211 42.9131L58.0579 44.9764L57.8374 44.5354L51.4384 48.375H44.0134L40.302 47.448L39.9712 46.125H41.1165C44.4982 46.125 47.25 43.3732 47.25 39.9915C47.25 39.492 47.1881 38.9914 47.0666 38.5054L46.3601 35.676C46.2038 35.0539 46.125 34.4126 46.125 33.75C46.125 29.9295 43.9976 26.5984 40.8656 24.8749C45.2768 22.9815 48.375 18.5963 48.375 13.5C48.375 6.67688 42.8231 1.125 36 1.125C29.1769 1.125 23.625 6.67688 23.625 13.5C23.625 18.5974 26.7232 22.9815 31.1344 24.8749C28.0024 26.6006 25.875 29.9351 25.875 33.768C25.875 34.4126 25.7963 35.055 25.6399 35.6771L24.9323 38.5054C24.8119 38.9914 24.75 39.492 24.75 39.9915C24.75 43.3732 27.5017 46.125 30.8835 46.125H32.0287L31.698 47.448L27.9866 48.375H20.5616L14.1626 44.5354L13.9421 44.9764L11.8789 42.9131C11.0475 42.0817 9.945 41.625 8.7705 41.625C7.164 41.625 5.71275 42.4811 4.93425 43.875H4.5C2.63925 43.875 1.125 45.3893 1.125 47.25V49.5C1.125 51.3607 2.63925 52.875 4.5 52.875H9.99225L9.74025 53.3779L17.7345 57.375H24.75V70.875H47.25V57.375H54.2655L62.2586 53.3779L62.0078 52.875H67.5C69.3607 52.875 70.875 51.3607 70.875 49.5V47.25C70.875 45.3893 69.3607 43.875 67.5 43.875ZM40.5 40.5C40.5 42.9818 38.4818 45 36 45C33.5182 45 31.5 42.9818 31.5 40.5V35.9494C33.1346 35.7728 34.7051 35.1349 36 34.1235C37.2949 35.1349 38.8654 35.7728 40.5 35.9494V40.5ZM36 47.25C36.648 47.25 37.2735 47.1533 37.8675 46.9811L38.1296 48.0296L36 50.1592L33.8704 48.0296L34.1325 46.9811C34.7265 47.1533 35.352 47.25 36 47.25ZM34.4093 51.75L32.3303 53.8279L31.8184 49.725L32.274 49.6136L34.4093 51.75ZM35.7975 59.625H36.2036L38.0036 68.625H33.9975L35.7975 59.625ZM36.3139 57.375H35.685L34.7546 54.5861L36 53.3408L37.2442 54.585L36.3139 57.375ZM37.5908 51.75L39.7204 49.6204L40.1805 49.7351L39.6686 53.8268L37.5908 51.75ZM25.875 13.5C25.875 7.91663 30.4166 3.375 36 3.375C41.5834 3.375 46.125 7.91663 46.125 13.5C46.125 19.0834 41.5834 23.625 36 23.625C30.4166 23.625 25.875 19.0834 25.875 13.5ZM27 39.9915C27 39.6754 27.0394 39.3581 27.1159 39.0499L27.8224 36.2228C28.0226 35.4229 28.125 34.5971 28.125 33.75C28.125 29.4086 31.6586 25.875 36 25.875C40.3414 25.875 43.875 29.4086 43.875 33.768C43.875 34.5971 43.9774 35.424 44.1787 36.2228L44.8841 39.051C44.9606 39.3581 45 39.6754 45 39.9915C45 41.8703 43.659 43.4396 41.8838 43.7974C42.4328 42.8209 42.75 41.6981 42.75 40.5V33.75H41.4315C39.7057 33.75 38.016 33.0502 36.7954 31.8296L36 31.0343L35.2046 31.8296C33.984 33.0502 32.2943 33.75 30.5685 33.75H29.25V40.5C29.25 41.6981 29.5673 42.8209 30.1163 43.7974C28.341 43.4396 27 41.8703 27 39.9915ZM4.5 50.625C3.879 50.625 3.375 50.121 3.375 49.5V47.25C3.375 46.629 3.879 46.125 4.5 46.125H6.32137L6.85238 45.0619C7.218 44.3295 7.95262 43.875 8.7705 43.875C9.34425 43.875 9.882 44.0977 10.2881 44.5039L12.8824 47.0981L11.1173 50.625H4.5ZM18.2655 55.125L12.7586 52.3721L15.0863 47.7146L19.9384 50.625H28.125L29.6179 50.2616L30.6697 58.6732L32.9782 56.3647L33.714 58.5731L31.7025 68.625H27V55.125H18.2655ZM53.7345 55.125H45V68.625H40.2975L38.2871 58.572L39.0229 56.3636L41.3314 58.6721L42.3799 50.2853L43.6027 50.5913L52.0628 50.625L56.9137 47.7146L59.2414 52.3721L53.7345 55.125ZM68.625 49.5C68.625 50.121 68.121 50.625 67.5 50.625H60.8828L59.1187 47.097L61.713 44.5027C62.118 44.0977 62.6569 43.8739 63.2306 43.8739C64.0485 43.8739 64.7831 44.3284 65.1488 45.0585L65.6786 46.125H67.5C68.121 46.125 68.625 46.629 68.625 47.25V49.5Z" fill="#1D1D1F"/>
<path d="M57.375 30.2119V32.625H59.625V30.2119C60.9244 29.8001 61.875 28.5975 61.875 27.1642C61.875 25.9402 61.1955 24.8411 60.0998 24.2921L57.9071 23.1953C57.5786 23.0321 57.375 22.7025 57.375 22.3358C57.375 21.807 57.807 21.375 58.3358 21.375H58.6631C59.193 21.375 59.625 21.807 59.625 22.3358V22.5H61.875V22.3358C61.875 20.9014 60.9244 19.6988 59.625 19.2881V16.875H57.375V19.2881C56.0756 19.6999 55.125 20.9025 55.125 22.3358C55.125 23.5598 55.8045 24.6589 56.9002 25.2079L59.0929 26.3048C59.4214 26.4679 59.625 26.7975 59.625 27.1642C59.625 27.693 59.193 28.125 58.6642 28.125H58.3369C57.807 28.125 57.375 27.693 57.375 27.1642V25.875H55.125V27.1642C55.125 28.5975 56.0756 29.8001 57.375 30.2119Z" fill="#0090D4"/>
<path d="M58.5 37.125C65.3231 37.125 70.875 31.5731 70.875 24.75C70.875 17.9269 65.3231 12.375 58.5 12.375C51.6769 12.375 46.125 17.9269 46.125 24.75C46.125 31.5731 51.6769 37.125 58.5 37.125ZM58.5 14.625C64.0834 14.625 68.625 19.1666 68.625 24.75C68.625 30.3334 64.0834 34.875 58.5 34.875C52.9166 34.875 48.375 30.3334 48.375 24.75C48.375 19.1666 52.9166 14.625 58.5 14.625Z" fill="#0090D4"/>
<path d="M12.375 30.2119V32.625H14.625V30.2119C15.9244 29.8001 16.875 28.5975 16.875 27.1642C16.875 25.9402 16.1955 24.8411 15.0998 24.2921L12.9071 23.1953C12.5786 23.0321 12.375 22.7025 12.375 22.3358C12.375 21.807 12.807 21.375 13.3358 21.375H13.6631C14.193 21.375 14.625 21.807 14.625 22.3358V22.5H16.875V22.3358C16.875 20.9014 15.9244 19.6988 14.625 19.2881V16.875H12.375V19.2881C11.0756 19.6999 10.125 20.9025 10.125 22.3358C10.125 23.5598 10.8045 24.6589 11.9003 25.2079L14.0929 26.3048C14.4214 26.4679 14.625 26.7975 14.625 27.1642C14.625 27.693 14.193 28.125 13.6642 28.125H13.3369C12.807 28.125 12.375 27.693 12.375 27.1642V25.875H10.125V27.1642C10.125 28.5975 11.0756 29.8001 12.375 30.2119Z" fill="#AAB0B8"/>
<path d="M13.5 37.125C20.3231 37.125 25.875 31.5731 25.875 24.75C25.875 17.9269 20.3231 12.375 13.5 12.375C6.67688 12.375 1.125 17.9269 1.125 24.75C1.125 31.5731 6.67688 37.125 13.5 37.125ZM13.5 14.625C19.0834 14.625 23.625 19.1666 23.625 24.75C23.625 30.3334 19.0834 34.875 13.5 34.875C7.91663 34.875 3.375 30.3334 3.375 24.75C3.375 19.1666 7.91663 14.625 13.5 14.625Z" fill="#AAB0B8"/>
</svg>
