<svg width="72" height="72" viewBox="0 0 72 72" fill="none" xmlns="http://www.w3.org/2000/svg">
<g clip-path="url(#clip0)">
<path d="M27 15.4644C27 23.9914 33.9373 30.9293 42.4644 30.9293C50.9914 30.9293 57.9287 23.9914 57.9287 15.4644C57.9287 6.93732 50.9914 0 42.4644 0C33.9373 0 27 6.93732 27 15.4644ZM55.1173 15.4644C55.1173 22.4412 49.4412 28.1173 42.4644 28.1173C35.4875 28.1173 29.8114 22.4412 29.8114 15.4644C29.8114 8.48804 35.4875 2.81195 42.4644 2.81195C49.4412 2.81195 55.1173 8.48804 55.1173 15.4644Z" fill="#A9AFB7"/>
<path d="M16.2635 71.5842C16.8084 72.1335 17.6955 72.1396 18.2476 71.5957L25.0635 64.8809C26.2215 63.7229 26.5736 62.0085 26.0644 60.5182L27.5305 59.1043C28.3199 58.3418 29.3592 57.9216 30.4578 57.9216H49.1472C52.4629 57.9216 55.5967 56.6483 57.9725 54.3362C58.0703 54.2412 57.2304 55.2305 70.7227 39.1048C72.7239 36.7372 72.4245 33.182 70.0548 31.1787C67.6998 29.194 64.1721 29.4791 62.1655 31.806L53.8697 40.3325C52.8222 39.0432 51.2247 38.2396 49.4988 38.2396H33.8218C31.5911 37.3063 29.2241 36.8339 26.7818 36.8339C20.012 36.8339 14.1008 39.9606 10.9285 45.8229C9.59203 45.5697 8.18248 45.974 7.16845 46.988L0.480516 53.6957C-0.0655051 54.2434 -0.0666037 55.1294 0.478318 55.6787L16.2635 71.5842ZM26.7812 39.6453C28.9346 39.6453 31.0165 40.0787 32.9704 40.9334C33.1484 41.0114 33.3401 41.0515 33.534 41.0515H49.4988C51.0231 41.0515 52.3107 42.2946 52.3107 43.8629C52.3107 45.4137 51.0495 46.6749 49.4988 46.6749H35.0285C34.2523 46.6749 33.6228 47.3044 33.6228 48.0806C33.6228 48.8573 34.2523 49.4863 35.0285 49.4863H49.4988C52.5997 49.4863 55.1221 46.9638 55.1221 43.8629C55.1221 43.6158 55.1046 43.3708 55.0727 43.128C63.0977 34.8789 64.2293 33.7198 64.2776 33.6621C65.2796 32.4795 67.0582 32.3295 68.2415 33.3271C69.4258 34.3285 69.5758 36.106 68.5711 37.2953L55.9615 52.3697C54.1202 54.1374 51.7026 55.1102 49.1472 55.1102H30.4578C28.6264 55.1102 26.8928 55.8106 25.5777 57.0811L24.3829 58.2342L13.3691 47.2209C15.9432 42.3919 20.7734 39.6453 26.7812 39.6453ZM9.15807 48.9749C9.62169 48.5113 10.3336 48.4278 10.8989 48.7771C11.1422 48.9254 10.4435 48.2893 23.0756 60.9038C23.6375 61.4658 23.6073 62.3612 23.0832 62.8852L17.2726 68.6097L3.45891 54.6905L9.15807 48.9749Z" fill="black"/>
<path fill-rule="evenodd" clip-rule="evenodd" d="M42.5 24C42.5 24.8284 41.8284 25.5 41 25.5C40.1716 25.5 39.5 24.8284 39.5 24V20.5H38C37.1716 20.5 36.5 19.8284 36.5 19C36.5 18.1716 37.1716 17.5 38 17.5H39.5V15V7C39.5 6.17157 40.1716 5.5 41 5.5H44.5C46.433 5.5 48 7.067 48 9V13C48 14.933 46.433 16.5 44.5 16.5H42.5V17.5H45C45.8284 17.5 46.5 18.1716 46.5 19C46.5 19.8284 45.8284 20.5 45 20.5H42.5V24ZM42.5 8.5V13.5H44.5C44.7761 13.5 45 13.2761 45 13V9C45 8.72386 44.7761 8.5 44.5 8.5H42.5Z" fill="#0090D4"/>
</g>
<defs>
<clipPath id="clip0">
<rect width="71.8594" height="72" fill="white"/>
</clipPath>
</defs>
</svg>
