<svg width="72" height="72" viewBox="0 0 72 72" fill="none" xmlns="http://www.w3.org/2000/svg">
<g clip-path="url(#clip0)">
<path d="M42.8949 41.0055C48.3192 37.1976 49.6295 29.7134 45.8214 24.2892C42.0134 18.8651 34.5292 17.5547 29.1051 21.3627C23.6809 25.1708 22.3706 32.6549 26.1786 38.079C26.9772 39.2166 27.9675 40.2069 29.1051 41.0055C22.6975 42.107 18.0111 47.658 18 54.1596V70.8002C17.9999 71.4627 18.5369 72 19.1994 72.0002C19.1996 72.0002 19.1999 72.0002 19.2 72.0002H52.8C53.4626 72.0003 53.9999 71.4633 54 70.8008C54 70.8006 54 70.8003 54 70.8002V54.1595C53.9888 47.658 49.3025 42.107 42.8949 41.0055ZM26.4 31.2002C26.4 25.8983 30.6981 21.6002 36 21.6002C41.3019 21.6002 45.6 25.8983 45.6 31.2002C45.6 36.5021 41.3019 40.8002 36 40.8002C30.7007 40.7942 26.406 36.4995 26.4 31.2002ZM51.6 69.6002H20.4V54.1595C20.4068 48.1097 25.3095 43.2069 31.3595 43.2002H40.6407C46.6905 43.2069 51.5933 48.1097 51.6 54.1595V69.6002Z" fill="black"/>
<path d="M37.2008 7.2002H34.8008V12.0002H37.2008V7.2002Z" fill="#AAB0B8"/>
<path d="M50.0484 10.1552L46.6543 13.5493L48.3513 15.2464L51.7454 11.8523L50.0484 10.1552Z" fill="#0090D4"/>
<path d="M65.9992 69.6001H61.1992V72.0001H65.9992V69.6001Z" fill="#AAB0B8"/>
<path d="M65.9992 57.6001H61.1992V60.0001H65.9992V57.6001Z" fill="#0090D4"/>
<path d="M65.9992 45.6001H61.1992V48.0001H65.9992V45.6001Z" fill="#AAB0B8"/>
<path d="M64.2994 32.8992L59.7461 34.418L60.5055 36.6946L65.0587 35.1759L64.2994 32.8992Z" fill="#0090D4"/>
<path d="M60.5709 20.4549L56.0176 21.9736L56.7769 24.2503L61.3302 22.7315L60.5709 20.4549Z" fill="#AAB0B8"/>
<path d="M21.9531 10.1592L20.2559 11.856L23.6495 15.2505L25.3467 13.5537L21.9531 10.1592Z" fill="#0090D4"/>
<path d="M10.8 69.6001H6V72.0001H10.8V69.6001Z" fill="#AAB0B8"/>
<path d="M10.8 57.6001H6V60.0001H10.8V57.6001Z" fill="#0090D4"/>
<path d="M10.8 45.6001H6V48.0001H10.8V45.6001Z" fill="#AAB0B8"/>
<path d="M7.702 32.9013L6.94336 35.1782L11.4971 36.6955L12.2558 34.4186L7.702 32.9013Z" fill="#0090D4"/>
<path d="M11.4251 20.4638L10.666 22.7407L15.2198 24.259L15.9789 21.9821L11.4251 20.4638Z" fill="#AAB0B8"/>
<path d="M70.8 4.8C68.8127 4.7979 67.2021 3.18735 67.2 1.2C67.2 0.5373 66.6627 0 66 0C65.3373 0 64.8 0.5373 64.8 1.2C64.7979 3.18735 63.1874 4.7979 61.2 4.8C60.5373 4.8 60 5.3373 60 6C60 6.6627 60.5373 7.2 61.2 7.2C63.1874 7.2021 64.7979 8.81265 64.8 10.8C64.8 11.4627 65.3373 12 66 12C66.6627 12 67.2 11.4627 67.2 10.8C67.2021 8.81265 68.8127 7.2021 70.8 7.2C71.4627 7.2 72 6.6627 72 6C72 5.3373 71.4627 4.8 70.8 4.8ZM66 7.20345C65.6576 6.7476 65.2524 6.34245 64.7965 6C65.2524 5.65755 65.6576 5.2524 66 4.79655C66.3425 5.2524 66.7476 5.65755 67.2035 6C66.7476 6.34245 66.3425 6.7476 66 7.20345Z" fill="#AAB0B8"/>
<path d="M10.8 4.8C8.81265 4.7979 7.2021 3.18735 7.2 1.2C7.2 0.5373 6.6627 0 6 0C5.3373 0 4.8 0.5373 4.8 1.2C4.7979 3.18735 3.18735 4.7979 1.2 4.8C0.5373 4.8 0 5.3373 0 6C0 6.6627 0.5373 7.2 1.2 7.2C3.18735 7.2021 4.7979 8.81265 4.8 10.8C4.8 11.4627 5.3373 12 6 12C6.6627 12 7.2 11.4627 7.2 10.8C7.2021 8.81265 8.81265 7.2021 10.8 7.2C11.4627 7.2 12 6.6627 12 6C12 5.3373 11.4627 4.8 10.8 4.8ZM6 7.20345C5.65755 6.7476 5.2524 6.34245 4.79655 6C5.2524 5.65755 5.65755 5.2524 6 4.79655C6.34245 5.2524 6.7476 5.65755 7.20345 6C6.7476 6.34245 6.34245 6.7476 6 7.20345Z" fill="#0090D4"/>
</g>
<defs>
<clipPath id="clip0">
<rect width="72" height="72" fill="white"/>
</clipPath>
</defs>
</svg>
