<svg width="72" height="72" viewBox="0 0 72 72" fill="none" xmlns="http://www.w3.org/2000/svg">
<g clip-path="url(#clip0)">
<path d="M6.02611 11.5307C6.60036 11.5307 7.06589 11.0652 7.06589 10.491C7.06589 9.9167 6.60036 9.45117 6.02611 9.45117C5.45185 9.45117 4.98633 9.9167 4.98633 10.491C4.98633 11.0652 5.45185 11.5307 6.02611 11.5307Z" fill="#AAB0B8"/>
<path d="M30.2422 52.236V49.3359C30.2422 48.7533 29.7701 48.2812 29.1875 48.2812C28.6049 48.2812 28.1328 48.7533 28.1328 49.3359V52.236C28.1328 52.8186 28.6049 53.2907 29.1875 53.2907C29.77 53.2907 30.2422 52.8185 30.2422 52.236Z" fill="#AAB0B8"/>
<path d="M65.9714 11.5307C66.5457 11.5307 67.0112 11.0652 67.0112 10.491C67.0112 9.9167 66.5457 9.45117 65.9714 9.45117C65.3972 9.45117 64.9316 9.9167 64.9316 10.491C64.9316 11.0652 65.3972 11.5307 65.9714 11.5307Z" fill="#AAB0B8"/>
<path d="M66.4475 5.79934L63.6885 1.36094C63.2821 0.707315 62.6459 0.251129 61.8966 0.0761914C61.1477 -0.0981833 60.3748 0.0289414 59.7213 0.435066C59.0678 0.841471 58.6116 1.47766 58.4368 2.22691C58.2619 2.9763 58.3893 3.74875 58.7957 4.40223L61.5542 8.83964C61.3587 9.36333 61.2559 9.92302 61.2569 10.4987C61.2571 10.5745 61.2593 10.6499 61.2631 10.7247L53.477 17.3733C49.5664 16.1436 45.3215 16.9586 42.1403 19.5451C40.8201 19.1358 39.3923 19.83 38.9147 21.1429C38.6762 21.7982 38.707 22.5072 39.0018 23.1394C39.2965 23.7713 39.8198 24.2508 40.4751 24.4895L59.8879 31.5552C60.1793 31.6612 60.4815 31.7141 60.7826 31.7141C61.1586 31.7141 61.5335 31.6317 61.8845 31.468C62.5165 31.1732 62.9959 30.65 63.2345 29.9947C63.473 29.3394 63.4422 28.6303 63.1475 27.9982C62.8706 27.4048 62.3906 26.9485 61.7907 26.6972C61.3389 24.3486 60.2225 22.2291 58.6187 20.5583L65.0039 15.1059C65.3166 15.1714 65.6406 15.2064 65.9725 15.2064H65.9804C68.5804 15.2021 70.6923 13.0831 70.6881 10.4831C70.6839 8.0461 68.8223 6.03812 66.4475 5.79934ZM60.5871 3.28862C60.4784 3.11383 60.4443 2.90697 60.4911 2.70644C60.5379 2.50576 60.66 2.33547 60.8352 2.22662C61.0101 2.11792 61.2167 2.08389 61.4172 2.13044C61.6178 2.17727 61.7882 2.29947 61.8971 2.47455L64.1701 6.13107C63.6961 6.32696 63.2551 6.60216 62.862 6.94824L60.5871 3.28862ZM59.3855 25.815L58.9417 25.6534C58.3935 25.4546 57.789 25.7365 57.5899 26.2837C57.3906 26.8312 57.6728 27.4363 58.2201 27.6355L60.4789 28.4576C60.4796 28.4579 60.4803 28.4582 60.481 28.4585L60.9526 28.6302C61.1226 28.6921 61.2029 28.8193 61.2358 28.8896C61.2686 28.9599 61.3144 29.1032 61.2524 29.2733C61.1907 29.443 61.0634 29.5234 60.9931 29.5562C60.9227 29.589 60.7791 29.6345 60.6095 29.5729L41.1967 22.5072C41.0266 22.4454 40.9464 22.3182 40.9134 22.2478C40.8808 22.1775 40.8348 22.0342 40.8969 21.8642C40.9586 21.6943 41.0858 21.614 41.1562 21.5811C41.2265 21.5482 41.3699 21.5025 41.5398 21.5644L42.0043 21.7334C42.0076 21.7345 42.0109 21.7358 42.0143 21.737L53.597 25.953C54.1443 26.1517 54.7495 25.8697 54.9488 25.3227C55.1481 24.7752 54.8658 24.1701 54.3185 23.9709L44.5499 20.4152C47.1448 18.8172 50.346 18.4634 53.2728 19.5292C56.1998 20.5945 58.4249 22.9231 59.3855 25.815ZM57.0132 19.1556C56.5802 18.8399 56.1243 18.5518 55.6477 18.2931L61.935 12.9245C62.2035 13.3682 62.5432 13.7638 62.9378 14.0965L57.0132 19.1556ZM65.9766 13.0972H65.9724C64.5374 13.0971 63.3686 11.9309 63.3663 10.4952C63.3639 9.05818 64.5311 7.88719 65.9681 7.8848H65.9724C67.4073 7.8848 68.5762 9.05114 68.5784 10.4868C68.5808 11.9237 67.4136 13.0947 65.9766 13.0972Z" fill="#0090D4"/>
<path d="M13.819 15.7397C12.7809 17.1664 12.0506 18.823 11.7062 20.613C10.4316 21.1479 9.78474 22.5976 10.2623 23.9104C10.5009 24.5657 10.9805 25.0889 11.6124 25.3837C11.9634 25.5474 12.3382 25.6298 12.7144 25.6298C13.0156 25.6298 13.3175 25.5769 13.6089 25.4709L33.0218 18.4052C33.6772 18.1666 34.2004 17.6872 34.4952 17.0551C34.7901 16.4229 34.8209 15.7139 34.5824 15.0586C34.3437 14.4033 33.8643 13.88 33.2322 13.5853C32.6386 13.3084 31.9777 13.2675 31.3566 13.4607C28.0685 10.7874 23.6436 10.0062 19.6268 11.4201L10.4817 8.77943L13.2028 4.40249C14.041 3.05347 13.6259 1.27387 12.277 0.435181C10.928 -0.403083 9.14841 0.012182 8.31001 1.36091L5.55081 5.79959C3.17636 6.03837 1.31449 8.04649 1.31055 10.4835C1.30633 13.0835 3.4181 15.2025 6.01825 15.2068H6.02612C7.06674 15.2067 8.0296 14.8671 8.81063 14.2936L13.819 15.7397ZM31.4861 15.6516C31.4864 15.6515 31.4868 15.6513 31.4871 15.6513L31.9572 15.4802C32.0184 15.458 32.076 15.4495 32.128 15.4495C32.2207 15.4495 32.2955 15.476 32.3407 15.4969C32.411 15.5297 32.5382 15.6101 32.6001 15.78C32.6618 15.9499 32.6161 16.0932 32.5834 16.1635C32.5506 16.2338 32.4702 16.3611 32.3003 16.4229L12.8873 23.4884C12.7173 23.5502 12.5743 23.5044 12.504 23.4716C12.4337 23.439 12.3064 23.3584 12.2445 23.1887C12.1499 22.9287 12.2845 22.6404 12.5444 22.5457L13.0149 22.3745C13.0163 22.3739 13.0177 22.3735 13.019 22.3729L31.4861 15.6516ZM20.2243 13.4448C23.1513 12.3796 26.3526 12.733 28.9472 14.3309L14.1115 19.7306C14.5903 18.2889 15.3836 16.9878 16.4214 15.9129C16.4221 15.9122 16.4226 15.9115 16.4234 15.9108C17.4672 14.8308 18.7573 13.9787 20.2243 13.4448ZM10.7084 11.0405L16.8503 12.8138C16.3239 13.1686 15.8291 13.5626 15.3682 13.9913L10.2806 12.5224C10.5001 12.0643 10.647 11.5655 10.7084 11.0405ZM10.1013 2.4748C10.3259 2.11396 10.8024 2.00258 11.1634 2.22688C11.5244 2.45146 11.6356 2.92804 11.4113 3.28916L9.13618 6.94836C8.74313 6.60228 8.30213 6.32722 7.82809 6.13119L10.1013 2.4748ZM6.02598 13.0975H6.02176C4.58472 13.0949 3.41753 11.9239 3.41992 10.487C3.42231 9.0514 4.59091 7.88506 6.02598 7.88506H6.0302C7.46724 7.88745 8.63443 9.05843 8.63204 10.4955C8.62951 11.9311 7.46092 13.0975 6.02598 13.0975Z" fill="#0090D4"/>
<path d="M58.0019 49.9568V47.1602C58.0019 46.5775 57.5297 46.1055 56.9473 46.1055C56.3647 46.1055 55.8926 46.5775 55.8926 47.1602V49.9568C55.8926 50.5394 56.3647 51.0114 56.9473 51.0114C57.5299 51.0114 58.0019 50.5392 58.0019 49.9568Z" fill="#AAB0B8"/>
<path d="M17.6914 42.1118C17.1088 42.1118 16.6367 42.584 16.6367 43.1665V45.918C16.6367 46.5004 17.1088 46.9726 17.6914 46.9726C18.274 46.9726 18.7461 46.5004 18.7461 45.918V43.1665C18.7461 42.5839 18.2739 42.1118 17.6914 42.1118Z" fill="#AAB0B8"/>
<path d="M60.7038 41.7574H28.0161C27.1728 41.7574 26.38 41.429 25.7837 40.8326L15.3105 30.3593C13.7017 28.7504 11.0932 28.7097 9.496 30.2684C8.6988 31.0463 8.25977 32.088 8.25977 33.2016V47.1757C8.25977 48.5386 8.94784 49.7865 10.1001 50.5138L15.2258 53.7494C15.7182 54.0606 16.3697 53.913 16.6807 53.4207C16.9916 52.9281 16.8443 52.2767 16.3519 51.9658L11.2261 48.73C10.6896 48.3914 10.3691 47.8103 10.3691 47.1755V33.2015C10.3691 32.6611 10.5823 32.1555 10.9693 31.7778C11.7439 31.022 13.0224 31.0542 13.8189 31.8509L24.2921 42.3242C25.2869 43.3189 26.6095 43.8668 28.0161 43.8668H60.7038C61.8002 43.8668 62.6922 44.7587 62.6922 45.8551V51.9628C62.6922 54.0255 61.014 55.7037 58.9513 55.7037H48.1622V49.3366C48.1622 48.754 47.69 48.282 47.1075 48.282C46.5249 48.282 46.0528 48.754 46.0528 49.3366V55.7037H24.3513C22.9915 55.7037 21.665 55.3201 20.5155 54.5942C20.023 54.283 19.3717 54.4303 19.0606 54.923C18.7497 55.4154 18.8968 56.0669 19.3894 56.3779C20.8765 57.3168 22.5922 57.8131 24.3513 57.8131H28.9066V59.2972C28.9066 60.7717 30.1061 61.9714 31.5807 61.9714H32.5125V65.8399H28.4747C26.9375 65.8399 25.687 67.0907 25.687 68.6277V70.0204C25.687 71.1125 26.5753 72.0008 27.6674 72.0008H47.3638C48.4558 72.0008 49.3441 71.1125 49.3441 70.0204V68.6277C49.3441 67.0905 48.0934 65.8399 46.5564 65.8399H42.5188V61.9714H43.4505C44.925 61.9714 46.1247 60.7718 46.1247 59.2972V57.8131H58.9515C62.1773 57.8131 64.8017 55.1887 64.8017 51.9628V45.8551C64.8015 43.5956 62.9633 41.7574 60.7038 41.7574ZM46.5564 67.9487C46.9304 67.9487 47.2348 68.2531 47.2348 68.6271V69.8909H27.7963V68.6271C27.7963 68.2531 28.1007 67.9487 28.4747 67.9487H46.5564ZM34.6218 65.8394V61.9708H40.4095V65.8394H34.6218ZM43.4504 59.8617H31.5805C31.2692 59.8617 31.0158 59.6083 31.0158 59.2969V57.8128H44.015V59.2969H44.0151C44.0151 59.6083 43.7617 59.8617 43.4504 59.8617Z" fill="#1D1D1F"/>
<path d="M48.8 4.8C46.8127 4.7979 45.2021 3.18735 45.2 1.2C45.2 0.5373 44.6627 0 44 0C43.3373 0 42.8 0.5373 42.8 1.2C42.7979 3.18735 41.1874 4.7979 39.2 4.8C38.5373 4.8 38 5.3373 38 6C38 6.6627 38.5373 7.2 39.2 7.2C41.1874 7.2021 42.7979 8.81265 42.8 10.8C42.8 11.4627 43.3373 12 44 12C44.6627 12 45.2 11.4627 45.2 10.8C45.2021 8.81265 46.8127 7.2021 48.8 7.2C49.4627 7.2 50 6.6627 50 6C50 5.3373 49.4627 4.8 48.8 4.8ZM44 7.20345C43.6576 6.7476 43.2524 6.34245 42.7965 6C43.2524 5.65755 43.6576 5.2524 44 4.79655C44.3425 5.2524 44.7476 5.65755 45.2035 6C44.7476 6.34245 44.3425 6.7476 44 7.20345Z" fill="#AAB0B8"/>
<path d="M37.8 29.8C35.8127 29.7979 34.2021 28.1874 34.2 26.2C34.2 25.5373 33.6627 25 33 25C32.3373 25 31.8 25.5373 31.8 26.2C31.7979 28.1874 30.1874 29.7979 28.2 29.8C27.5373 29.8 27 30.3373 27 31C27 31.6627 27.5373 32.2 28.2 32.2C30.1874 32.2021 31.7979 33.8127 31.8 35.8C31.8 36.4627 32.3373 37 33 37C33.6627 37 34.2 36.4627 34.2 35.8C34.2021 33.8127 35.8127 32.2021 37.8 32.2C38.4627 32.2 39 31.6627 39 31C39 30.3373 38.4627 29.8 37.8 29.8ZM33 32.2035C32.6576 31.7476 32.2524 31.3425 31.7966 31C32.2524 30.6576 32.6576 30.2524 33 29.7966C33.3425 30.2524 33.7476 30.6576 34.2035 31C33.7476 31.3425 33.3425 31.7476 33 32.2035Z" fill="#0090D4"/>
</g>
<defs>
<clipPath id="clip0">
<rect width="72" height="72" fill="white"/>
</clipPath>
</defs>
</svg>
