<svg width="72" height="72" viewBox="0 0 72 72" fill="none" xmlns="http://www.w3.org/2000/svg">
<g clip-path="url(#clip0)">
<path d="M25.4558 20.0514L24.2381 20.4927C22.3588 21.1742 20.9568 22.8181 20.5789 24.7842L20.1658 26.9492C19.9596 28.0216 20.2403 29.1199 20.9363 29.9621C21.6325 30.8052 22.6591 31.2886 23.7523 31.2886H34.3072C35.3919 31.2886 36.4133 30.8115 37.1094 29.9796C37.8049 29.1483 38.0943 28.06 37.9034 26.9937L37.5181 24.84C37.161 22.843 35.7543 21.1724 33.8466 20.4801L32.5557 20.0122V18.1095C32.5557 18.0561 32.5505 18.0041 32.5427 17.9527C33.4845 16.994 34.0239 15.6866 34.0239 14.3489V11.5141C34.0239 8.74687 31.7725 6.49561 29.0052 6.49561C26.2378 6.49561 23.986 8.74687 23.986 11.5141V14.4373C23.986 15.8123 24.553 17.0677 25.4647 17.9793C25.4593 18.0221 25.4558 18.0652 25.4558 18.1094V20.0514ZM35.4413 25.2112L35.8266 27.3652C35.9073 27.8153 35.7851 28.2748 35.4914 28.6258C35.1972 28.9773 34.7655 29.1791 34.3069 29.1791H23.752C23.29 29.1791 22.8564 28.9749 22.5622 28.6187C22.2685 28.2632 22.15 27.7999 22.2372 27.3461L22.6503 25.181C22.8884 23.9418 23.7724 22.9053 24.9566 22.4759L25.7542 22.187C25.7742 22.2075 25.7943 22.2282 25.8159 22.2472C26.7248 23.0418 27.8649 23.4392 29.0056 23.4391C30.1449 23.4391 31.2847 23.0425 32.1937 22.2494C32.2265 22.2209 32.2566 22.1901 32.2853 22.158L33.1266 22.463C34.3295 22.8992 35.2163 23.9522 35.4413 25.2112ZM26.0954 11.5141C26.0954 9.91012 27.4005 8.60498 29.0048 8.60498C30.3587 8.60498 31.4964 9.53592 31.8194 10.7903C31.6838 10.8565 31.5447 10.9191 31.4023 10.9761C30.1054 11.4952 29.0579 11.4263 28.7585 11.2165C28.2815 10.8821 27.624 10.9974 27.2894 11.4744C26.955 11.9514 27.0705 12.609 27.5473 12.9435C28.0624 13.3048 28.7616 13.4854 29.5595 13.4854C30.2844 13.4854 31.0909 13.3348 31.9143 13.0368V14.3487C31.9143 15.1549 31.5809 15.9443 30.9994 16.5146C30.7302 16.7787 30.4218 16.9833 30.0907 17.1245C30.0675 17.1333 30.0447 17.1429 30.0223 17.1533C29.6821 17.2879 29.3188 17.3555 28.9474 17.3458C27.3746 17.3156 26.0954 16.0107 26.0954 14.4371V11.5141ZM28.9069 19.455C28.9391 19.4556 28.971 19.4559 29.0032 19.4559C29.4981 19.4559 29.9829 19.3815 30.4462 19.2388V20.9261C29.5671 21.4681 28.4434 21.4678 27.5655 20.9253V19.2419C27.9921 19.3711 28.4417 19.446 28.9069 19.455Z" fill="#1D1D1F"/>
<path d="M12.4121 49.3457H45.2579C45.8405 49.3457 46.3126 48.8736 46.3126 48.291C46.3126 47.7084 45.8405 47.2363 45.2579 47.2363H12.4121C11.8295 47.2363 11.3574 47.7084 11.3574 48.291C11.3574 48.8736 11.8295 49.3457 12.4121 49.3457Z" fill="#A9AFB7"/>
<path d="M12.4121 55.0332H45.2579C45.8405 55.0332 46.3126 54.5611 46.3126 53.9785C46.3126 53.3959 45.8405 52.9238 45.2579 52.9238H12.4121C11.8295 52.9238 11.3574 53.3959 11.3574 53.9785C11.3574 54.5611 11.8295 55.0332 12.4121 55.0332Z" fill="#A9AFB7"/>
<path d="M12.4121 60.7195H45.2579C45.8405 60.7195 46.3126 60.2474 46.3126 59.6648C46.3126 59.0822 45.8405 58.6101 45.2579 58.6101H12.4121C11.8295 58.6101 11.3574 59.0822 11.3574 59.6648C11.3574 60.2474 11.8295 60.7195 12.4121 60.7195Z" fill="#A9AFB7"/>
<path d="M12.4121 66.407H45.2579C45.8405 66.407 46.3126 65.9349 46.3126 65.3523C46.3126 64.7697 45.8405 64.2976 45.2579 64.2976H12.4121C11.8295 64.2976 11.3574 64.7697 11.3574 65.3523C11.3574 65.9349 11.8295 66.407 12.4121 66.407Z" fill="#A9AFB7"/>
<path d="M11.3574 36.917C11.3574 37.4996 11.8295 37.9717 12.4121 37.9717H45.2579C45.8405 37.9717 46.3126 37.4996 46.3126 36.917C46.3126 36.3344 45.8405 35.8623 45.2579 35.8623H12.4121C11.8295 35.8623 11.3574 36.3345 11.3574 36.917Z" fill="#A9AFB7"/>
<path d="M12.4121 43.6592H45.2579C45.8405 43.6592 46.3126 43.1871 46.3126 42.6045C46.3126 42.0219 45.8405 41.5498 45.2579 41.5498H12.4121C11.8295 41.5498 11.3574 42.0219 11.3574 42.6045C11.3574 43.1871 11.8295 43.6592 12.4121 43.6592Z" fill="#A9AFB7"/>
<path d="M8.51761 49.3499C9.10233 49.3499 9.57638 48.876 9.57638 48.2913C9.57638 47.7067 9.10233 47.2327 8.51761 47.2327C7.93289 47.2327 7.45898 47.7066 7.45898 48.2913C7.45898 48.876 7.93303 49.3499 8.51761 49.3499Z" fill="#A9AFB7"/>
<path d="M8.51761 37.9759C9.10233 37.9759 9.57638 37.502 9.57638 36.9173C9.57638 36.3325 9.10233 35.8586 8.51761 35.8586C7.93289 35.8586 7.45898 36.3325 7.45898 36.9173C7.45898 37.502 7.93303 37.9759 8.51761 37.9759Z" fill="#A9AFB7"/>
<path d="M8.51761 43.6634C9.10233 43.6634 9.57638 43.1895 9.57638 42.6048C9.57638 42.02 9.10233 41.5461 8.51761 41.5461C7.93289 41.5461 7.45898 42.02 7.45898 42.6048C7.45898 43.1895 7.93303 43.6634 8.51761 43.6634Z" fill="#A9AFB7"/>
<path d="M8.51761 55.0364C9.10233 55.0364 9.57638 54.5625 9.57638 53.9778C9.57638 53.3931 9.10233 52.9192 8.51761 52.9192C7.93289 52.9192 7.45898 53.3931 7.45898 53.9778C7.45898 54.5625 7.93303 55.0364 8.51761 55.0364Z" fill="#A9AFB7"/>
<path d="M8.51761 60.7239C9.10233 60.7239 9.57638 60.25 9.57638 59.6653C9.57638 59.0806 9.10233 58.6067 8.51761 58.6067C7.93289 58.6067 7.45898 59.0806 7.45898 59.6653C7.45898 60.2499 7.93303 60.7239 8.51761 60.7239Z" fill="#A9AFB7"/>
<path d="M8.51761 66.4102C9.10233 66.4102 9.57638 65.9363 9.57638 65.3516C9.57638 64.767 9.10233 64.293 8.51761 64.293C7.93289 64.293 7.45898 64.7669 7.45898 65.3516C7.45898 65.9362 7.93303 66.4102 8.51761 66.4102Z" fill="#A9AFB7"/>
<path d="M68.2918 16.6108C67.8663 16.0722 67.4641 15.5632 67.2696 15.0944C67.0598 14.5883 66.9771 13.9196 66.8896 13.2114C66.7362 11.9708 66.5624 10.5647 65.5811 9.58359C64.5998 8.60245 63.1936 8.42864 61.953 8.27522C61.2447 8.18775 60.5757 8.10506 60.0696 7.89525C59.6006 7.70077 59.0918 7.29886 58.5531 6.87319C57.8119 6.28748 56.9967 5.64441 56.0328 5.35261V5.03353C56.033 2.25816 53.7747 0 50.9989 0H7.06144C4.28564 0 2.02734 2.25816 2.02734 5.03367V9.10463C2.02734 9.68723 2.49942 10.1593 3.08203 10.1593C3.66464 10.1593 4.13672 9.68723 4.13672 9.10463V5.03367C4.13672 3.42112 5.44875 2.10938 7.06144 2.10938H50.9989C52.6116 2.10938 53.9236 3.42112 53.9236 5.03367V5.35289C52.96 5.64483 52.1451 6.28762 51.4039 6.87333C50.8651 7.29886 50.3564 7.70091 49.8875 7.89539C49.3814 8.10506 48.7125 8.18775 48.0041 8.27536C46.7635 8.42864 45.3574 8.60245 44.376 9.58359C43.3946 10.5649 43.2208 11.971 43.0673 13.2116C42.9799 13.9196 42.8972 14.5884 42.6874 15.0945C42.4929 15.5634 42.0908 16.0723 41.6652 16.6109C40.8771 17.6081 39.9841 18.7383 39.9841 20.1852C39.9841 21.6321 40.8773 22.7623 41.6652 23.7594C42.0907 24.298 42.4929 24.807 42.6874 25.2758C42.8972 25.7819 42.9799 26.4506 43.0673 27.1589C43.2208 28.3994 43.3946 29.8055 44.3759 30.7866C45.3571 31.7679 46.7634 31.9416 48.004 32.095C48.3738 32.1407 48.7323 32.1855 49.0632 32.2474V48.1897C49.0632 48.8145 49.4119 49.3725 49.9734 49.6458C50.5348 49.9196 51.1891 49.8502 51.6815 49.4647L53.9235 47.7093V66.9665C53.9235 68.579 52.6114 69.8908 50.9987 69.8908H7.06144C5.44875 69.8908 4.13672 68.579 4.13672 66.9665V13.749C4.13672 13.1664 3.66464 12.6944 3.08203 12.6944C2.49942 12.6944 2.02734 13.1664 2.02734 13.749V66.9663C2.02734 69.7418 4.28564 72 7.06144 72H50.9989C53.7747 72 56.033 69.7418 56.033 66.9663V47.7091L58.2749 49.4644C58.5676 49.6936 58.9178 49.8112 59.2718 49.8112C59.5132 49.8112 59.7562 49.7565 59.984 49.6455C60.5456 49.3722 60.8947 48.8142 60.8947 48.1895V36.4196C60.8947 35.837 60.4226 35.3649 59.84 35.3649C59.2574 35.3649 58.7853 35.837 58.7853 36.4196V47.1852L55.9816 44.9902C55.6983 44.7659 55.3419 44.6423 54.9781 44.6423C54.6143 44.6423 54.258 44.7659 53.9791 44.9865L51.1724 47.184V33.3149C51.2489 33.3748 51.3258 33.4354 51.4037 33.4969C52.401 34.2849 53.5314 35.1778 54.9784 35.1778C56.4253 35.1778 57.5557 34.2848 58.553 33.497C59.0917 33.0715 59.6006 32.6693 60.0695 32.4748C60.5756 32.2651 61.2445 32.1825 61.9529 32.0948C63.1935 31.9416 64.5996 31.7677 65.5811 30.7866C66.5623 29.8053 66.7361 28.3992 66.8895 27.1588C66.9771 26.4506 67.0598 25.7818 67.2696 25.2757C67.4641 24.8068 67.8661 24.2979 68.2918 23.7593C69.0799 22.7621 69.9728 21.6319 69.9728 20.185C69.9728 18.7381 69.0797 17.6079 68.2918 16.6108ZM66.6368 22.4515C66.1407 23.0794 65.6277 23.7285 65.3213 24.4676C65.0016 25.2383 64.8971 26.083 64.7962 26.8999C64.6737 27.8907 64.5581 28.8266 64.0898 29.2949C63.6214 29.7631 62.6854 29.8787 61.6944 30.0012C60.8774 30.1022 60.0328 30.2065 59.2619 30.5262C58.5227 30.8326 57.8736 31.3455 57.2457 31.8416C56.4471 32.4723 55.6929 33.0682 54.9787 33.0682C54.2645 33.0682 53.5103 32.4724 52.7117 31.8416C52.0838 31.3456 51.4347 30.8326 50.6955 30.5262C50.6446 30.5051 50.468 30.4379 50.4299 30.426C49.7328 30.1836 48.9871 30.0907 48.2629 30.0012C47.2719 29.8787 46.3359 29.763 45.8675 29.2947C45.3993 28.8266 45.2836 27.8907 45.1611 26.9C45.0601 26.083 44.9558 25.2385 44.6362 24.4676C44.3296 23.7285 43.8167 23.0794 43.3206 22.4515C42.6899 21.653 42.0939 20.899 42.0939 20.185C42.0939 19.4711 42.6898 18.717 43.3206 17.9186C43.8167 17.2907 44.3297 16.6416 44.6362 15.9024C44.9558 15.1318 45.0603 14.2871 45.1611 13.4702C45.2836 12.4793 45.3993 11.5435 45.8676 11.0752C46.336 10.6069 47.272 10.4913 48.263 10.3688C49.08 10.2679 49.9246 10.1635 50.6955 9.84389C51.4347 9.53747 52.0838 9.02461 52.7117 8.52848C53.5086 7.89891 54.2615 7.30434 54.9745 7.30209C54.9757 7.30209 54.9772 7.30223 54.9784 7.30223C54.9798 7.30223 54.9812 7.30209 54.9826 7.30209C55.6957 7.3042 56.4487 7.89891 57.2457 8.52848C57.8736 9.02447 58.5227 9.53747 59.2619 9.84389C60.0326 10.1635 60.8775 10.268 61.6945 10.3688C62.6855 10.4913 63.6215 10.6071 64.0898 11.0753C64.5581 11.5436 64.6738 12.4793 64.7963 13.4702C64.8973 14.2871 65.0016 15.1317 65.3213 15.9024C65.6278 16.6416 66.1407 17.2907 66.6368 17.9186C67.2675 18.717 67.8635 19.4711 67.8635 20.185C67.8635 20.899 67.2676 21.6532 66.6368 22.4515Z" fill="#1D1D1F"/>
<path d="M61.7506 16.8332L58.1616 15.8177L56.0864 12.7183C55.8384 12.3482 55.4247 12.1274 54.9794 12.1274C54.534 12.1274 54.1201 12.3484 53.8724 12.7183L51.7972 15.8177L48.2078 16.8333C47.7792 16.9547 47.4412 17.2802 47.3036 17.7038C47.1661 18.1273 47.2485 18.5893 47.5239 18.9389L49.8305 21.8699L49.6874 25.5961C49.6701 26.0413 49.8748 26.4635 50.2352 26.7254C50.4666 26.8935 50.7406 26.9804 51.0178 26.9804C51.1728 26.9804 51.3286 26.9533 51.4782 26.8981L54.9791 25.6103L58.4797 26.898C58.8977 27.0521 59.3622 26.9874 59.7226 26.7257C60.0831 26.464 60.2881 26.042 60.2709 25.5966L60.1278 21.8698L62.4346 18.9388C62.7099 18.5887 62.7922 18.1271 62.6545 17.7035C62.5174 17.2799 62.1794 16.9545 61.7506 16.8332ZM58.2931 20.7908C58.0981 21.0388 57.9973 21.3491 58.0093 21.6653L58.1187 24.5178L55.4394 23.5321C55.1425 23.4229 54.8155 23.423 54.5192 23.532L51.8396 24.5178L51.9492 21.6643C51.961 21.3492 51.86 21.039 51.6647 20.7901L49.8993 18.5468L52.647 17.7696C52.9509 17.6834 53.2151 17.4913 53.3907 17.2289L54.9791 14.8566L56.5673 17.2286C56.7431 17.4912 57.0073 17.6833 57.3118 17.7697L60.0589 18.5468L58.2931 20.7908Z" fill="#0090D4"/>
</g>
<defs>
<clipPath id="clip0">
<rect width="72" height="72" fill="white"/>
</clipPath>
</defs>
</svg>
