<svg width="72" height="72" viewBox="0 0 72 72" fill="none" xmlns="http://www.w3.org/2000/svg">
<g clip-path="url(#clip0)">
<path fill-rule="evenodd" clip-rule="evenodd" d="M27 2.25C13.331 2.25 2.25 13.331 2.25 27C2.25 40.669 13.331 51.75 27 51.75C31.2174 51.75 35.1884 50.6952 38.6635 48.8349L38.8462 51.5473C35.2642 53.2791 31.2455 54.25 27 54.25C11.9502 54.25 -0.25 42.0498 -0.25 27C-0.25 11.9502 11.9502 -0.25 27 -0.25C42.0498 -0.25 54.25 11.9502 54.25 27C54.25 31.2759 53.2652 35.3218 51.5099 38.9232L48.7938 38.7402C50.6796 35.2468 51.75 31.2484 51.75 27C51.75 13.331 40.669 2.25 27 2.25ZM27 9.25C17.1969 9.25 9.25 17.1969 9.25 27C9.25 36.8031 17.1969 44.75 27 44.75C36.8031 44.75 44.75 36.8031 44.75 27C44.75 17.1969 36.8031 9.25 27 9.25ZM6.75 27C6.75 15.8162 15.8162 6.75 27 6.75C38.1838 6.75 47.25 15.8162 47.25 27C47.25 38.1838 38.1838 47.25 27 47.25C15.8162 47.25 6.75 38.1838 6.75 27Z" fill="#AAB0B8"/>
<path fill-rule="evenodd" clip-rule="evenodd" d="M55.4636 36.369L43.6402 35.5444C43.2502 35.5172 42.8839 35.7225 42.6652 36.0465C42.1048 36.8766 41.3553 37.6635 40.7397 38.4002L39.2682 36.9286C38.7186 36.3792 37.828 36.3792 37.2783 36.9286C36.7288 37.478 36.7288 38.3689 37.2783 38.9184L38.7716 40.4117C37.9247 41.1514 37.0074 42.5313 36.0312 43.3207C35.7267 43.567 35.517 43.9323 35.5432 44.3231L36.2949 55.5376C36.3179 55.8774 36.4631 56.1972 36.7038 56.4379L50.5483 70.2824C51.6934 71.4274 53.1974 71.9999 54.7016 71.9999C56.2058 71.9999 57.7097 71.4274 58.8549 70.2824L70.2083 58.929C72.4983 56.6387 72.4983 52.9124 70.2083 50.6223L56.3638 36.7779C56.1231 36.5372 55.8032 36.392 55.4636 36.369ZM56.865 68.2924L68.2184 56.9389C69.4114 55.7461 69.4114 53.8051 68.2184 52.612L54.7474 39.1409L44.7671 38.4683L42.7876 40.4478L43.7484 41.4086C44.2979 41.958 44.2979 42.8489 43.7484 43.3984C43.4737 43.673 43.1136 43.8105 42.7536 43.8105C42.3935 43.8105 42.0335 43.6731 41.7587 43.3984L40.7978 42.4375L38.3947 44.8406L39.067 54.8213L52.5382 68.2924C53.7312 69.4853 55.672 69.4853 56.865 68.2924Z" fill="#1D1D1F"/>
<path d="M53.2113 52.3839C55.3636 50.2316 55.3636 46.7295 53.2113 44.5772C51.0836 42.4498 47.5322 42.4493 45.4047 44.5772L44.6533 45.3285C42.501 47.4808 42.501 50.9829 44.6533 53.1351C46.785 55.2583 50.3292 55.2661 52.4598 53.1351L53.2113 52.3839ZM51.2215 50.3941L50.47 51.1454C49.4237 52.1918 47.6904 52.1832 46.643 51.1454C45.5879 50.0902 45.5879 48.3734 46.6429 47.3183L47.3944 46.5669C48.4374 45.5241 50.1784 45.5241 51.2214 46.5669C52.2765 47.6222 52.2765 49.339 51.2215 50.3941Z" fill="#0090D4"/>
<path d="M56.5208 53.4078C56.8118 54.1176 57.652 54.4607 58.3585 54.169C59.0673 53.8762 59.413 53.0399 59.1196 52.3315C58.8263 51.6232 57.9901 51.2771 57.282 51.5703C56.5754 51.8629 56.2263 52.7011 56.5208 53.4078Z" fill="#0090D4"/>
<path d="M58.9098 61.1534C58.6793 60.6001 58.1053 60.2443 57.5068 60.2889C56.9192 60.3327 56.4135 60.7506 56.2554 61.317C55.9154 62.5343 57.3053 63.5516 58.3652 62.8785C58.9361 62.5159 59.1656 61.7774 58.9098 61.1534Z" fill="#0090D4"/>
<path d="M62.1908 55.8335H53.1589C52.382 55.8335 51.752 56.4634 51.752 57.2405C51.752 58.0176 52.382 58.6475 53.1589 58.6475H62.1908C62.9678 58.6475 63.5978 58.0176 63.5978 57.2405C63.5978 56.4634 62.9679 55.8335 62.1908 55.8335Z" fill="#0090D4"/>
<path d="M14.1597 33.0002C13.9143 33.0002 13.701 32.9095 13.5197 32.7282C13.349 32.5468 13.2637 32.3335 13.2637 32.0882V22.2322C13.2637 21.9868 13.349 21.7735 13.5197 21.5922C13.701 21.4108 13.9143 21.3202 14.1597 21.3202H14.5917C14.837 21.3202 15.0503 21.4108 15.2317 21.5922C15.413 21.7735 15.5037 21.9868 15.5037 22.2322V25.8482C15.5037 25.9442 15.5463 25.9922 15.6317 25.9922H19.6317C19.717 25.9922 19.7597 25.9442 19.7597 25.8482V22.2322C19.7597 21.9868 19.8503 21.7735 20.0317 21.5922C20.213 21.4108 20.4263 21.3202 20.6717 21.3202H21.1037C21.349 21.3202 21.557 21.4108 21.7277 21.5922C21.909 21.7735 21.9997 21.9868 21.9997 22.2322V32.0882C21.9997 32.3335 21.909 32.5468 21.7277 32.7282C21.557 32.9095 21.349 33.0002 21.1037 33.0002H20.6717C20.4263 33.0002 20.213 32.9095 20.0317 32.7282C19.8503 32.5468 19.7597 32.3335 19.7597 32.0882V27.8482C19.7597 27.7522 19.717 27.7042 19.6317 27.7042H15.6317C15.5463 27.7042 15.5037 27.7522 15.5037 27.8482V32.0882C15.5037 32.3335 15.413 32.5468 15.2317 32.7282C15.0503 32.9095 14.837 33.0002 14.5917 33.0002H14.1597Z" fill="#1D1D1F"/>
<path d="M25.9693 31.0642C25.948 31.0855 25.9426 31.1122 25.9533 31.1442C25.9746 31.1762 26.0013 31.1922 26.0333 31.1922H29.8093C29.9053 31.1922 29.9533 31.1442 29.9533 31.0482V23.2722C29.9533 23.1762 29.9053 23.1282 29.8093 23.1282H27.3133C27.2173 23.1282 27.1693 23.1708 27.1693 23.2562C27.1693 25.7842 27.1 27.4748 26.9613 28.3282C26.8333 29.1815 26.5026 30.0935 25.9693 31.0642ZM23.5213 35.5602C23.276 35.5602 23.0626 35.4695 22.8813 35.2882C22.7 35.1068 22.6093 34.8935 22.6093 34.6482V31.9282C22.6093 31.7255 22.6786 31.5548 22.8173 31.4162C22.9666 31.2668 23.148 31.1922 23.3613 31.1922C23.436 31.1922 23.4893 31.1602 23.5213 31.0962C23.9693 30.4348 24.2893 29.8322 24.4813 29.2882C24.6733 28.7442 24.8066 28.0295 24.8813 27.1442C24.9666 26.2482 25.0093 24.9095 25.0093 23.1282V22.2322C25.0093 21.9868 25.1 21.7735 25.2813 21.5922C25.4626 21.4108 25.676 21.3202 25.9213 21.3202H31.2493C31.4946 21.3202 31.708 21.4108 31.8893 21.5922C32.0706 21.7735 32.1613 21.9868 32.1613 22.2322V31.0482C32.1613 31.1442 32.2093 31.1922 32.3053 31.1922H32.6413C32.8866 31.1922 33.1 31.2828 33.2813 31.4642C33.4626 31.6348 33.5533 31.8428 33.5533 32.0882V34.6482C33.5533 34.8935 33.4626 35.1068 33.2813 35.2882C33.1 35.4695 32.8866 35.5602 32.6413 35.5602H32.4013C32.156 35.5602 31.9426 35.4695 31.7613 35.2882C31.58 35.1068 31.4893 34.8935 31.4893 34.6482V33.1442C31.4893 33.0482 31.4466 33.0002 31.3613 33.0002H24.8013C24.716 33.0002 24.6733 33.0482 24.6733 33.1442V34.6482C24.6733 34.8935 24.5826 35.1068 24.4013 35.2882C24.22 35.4695 24.0066 35.5602 23.7613 35.5602H23.5213Z" fill="#1D1D1F"/>
<path d="M38.9248 33.1602C37.2395 33.1602 35.9008 32.6428 34.9088 31.6082C33.9275 30.5628 33.4368 29.0802 33.4368 27.1602C33.4368 25.2615 33.9115 23.7895 34.8608 22.7442C35.8208 21.6882 37.1595 21.1602 38.8768 21.1602C39.6661 21.1602 40.3275 21.2082 40.8608 21.3042C41.1168 21.3468 41.3301 21.4748 41.5008 21.6882C41.6715 21.9015 41.7568 22.1415 41.7568 22.4082V22.5362C41.7568 22.7602 41.6608 22.9362 41.4688 23.0642C41.2875 23.1922 41.0901 23.2295 40.8768 23.1762C40.3541 23.0375 39.7675 22.9682 39.1168 22.9682C38.0608 22.9682 37.2288 23.3308 36.6208 24.0562C36.0235 24.7815 35.7248 25.8162 35.7248 27.1602C35.7248 28.4935 36.0341 29.5282 36.6528 30.2642C37.2821 30.9895 38.1195 31.3522 39.1648 31.3522C39.8688 31.3522 40.4715 31.2882 40.9728 31.1602C41.1861 31.1068 41.3835 31.1442 41.5648 31.2722C41.7568 31.4002 41.8528 31.5762 41.8528 31.8002V31.9122C41.8528 32.1788 41.7675 32.4188 41.5968 32.6322C41.4368 32.8348 41.2235 32.9575 40.9568 33.0002C40.3488 33.1068 39.6715 33.1602 38.9248 33.1602Z" fill="#1D1D1F"/>
</g>
<defs>
<clipPath id="clip0">
<rect width="72" height="72" fill="white"/>
</clipPath>
</defs>
</svg>
