<svg width="72" height="72" viewBox="0 0 72 72" fill="none" xmlns="http://www.w3.org/2000/svg">
<path d="M38.4119 43.8426L35.0979 41.2224C34.9728 41.1221 34.8292 41.0476 34.6752 41.0031C34.5212 40.9586 34.3599 40.945 34.2006 40.9631C34.0413 40.9812 33.8872 41.0307 33.7471 41.1086C33.607 41.1865 33.4837 41.2914 33.3843 41.4172C33.285 41.5429 33.2114 41.6871 33.168 41.8414C33.1246 41.9957 33.1121 42.1571 33.1313 42.3163C33.1505 42.4754 33.201 42.6292 33.2799 42.7687C33.3588 42.9083 33.4645 43.0308 33.591 43.1294L33.7166 43.2287C32.4698 42.8359 31.3452 42.1284 30.4514 41.1745C29.5576 40.2205 28.9247 39.0523 28.6138 37.7826C28.3029 36.5128 28.3245 35.1844 28.6766 33.9254C29.0286 32.6664 29.6991 31.5194 30.6235 30.5951C30.8449 30.3658 30.9673 30.0588 30.9645 29.7401C30.9616 29.4215 30.8338 29.1167 30.6084 28.8914C30.383 28.6661 30.0782 28.5384 29.7595 28.5357C29.4409 28.533 29.1339 28.6555 28.9047 28.877C27.6016 30.1799 26.6826 31.8168 26.2487 33.6078C25.8148 35.3988 25.8828 37.2747 26.4453 39.0296C27.0077 40.7845 28.0427 42.3505 29.4368 43.5557C30.8309 44.7609 32.5301 45.5586 34.3479 45.8614L33.5896 46.4607C33.4631 46.5592 33.3574 46.6818 33.2785 46.8213C33.1996 46.9609 33.1491 47.1146 33.1299 47.2738C33.1107 47.4329 33.1232 47.5943 33.1666 47.7486C33.21 47.9029 33.2836 48.0471 33.383 48.1729C33.4823 48.2986 33.6056 48.4035 33.7457 48.4814C33.8858 48.5594 34.0399 48.6088 34.1992 48.6269C34.3585 48.645 34.5198 48.6314 34.6738 48.5869C34.8278 48.5424 34.9715 48.4679 35.0965 48.3677L38.4119 45.7475C38.5558 45.6337 38.6722 45.4888 38.7521 45.3237C38.8321 45.1585 38.8737 44.9775 38.8737 44.794C38.8737 44.6105 38.8321 44.4294 38.7521 44.2643C38.6722 44.0991 38.5558 43.9542 38.4119 43.8405V43.8426Z" fill="#0090D4"/>
<path d="M36.0005 19.6223C32.7613 19.6223 29.5949 20.5828 26.9017 22.3824C24.2084 24.182 22.1093 26.7398 20.8697 29.7324C19.6301 32.725 19.3058 36.0179 19.9377 39.1948C20.5697 42.3717 22.1295 45.2899 24.4199 47.5803C26.7103 49.8707 29.6285 51.4305 32.8054 52.0625C35.9823 52.6944 39.2753 52.3701 42.2678 51.1305C45.2604 49.8909 47.8182 47.7918 49.6178 45.0985C51.4174 42.4053 52.3779 39.2389 52.3779 35.9997C52.3731 31.6576 50.6461 27.4948 47.5758 24.4244C44.5055 21.3541 40.3426 19.6271 36.0005 19.6223ZM36.0005 49.9466C33.2421 49.9466 30.5456 49.1286 28.252 47.5961C25.9585 46.0636 24.1709 43.8854 23.1153 41.337C22.0597 38.7885 21.7835 35.9843 22.3216 33.2788C22.8598 30.5734 24.1881 28.0883 26.1386 26.1378C28.0891 24.1874 30.5742 22.859 33.2796 22.3209C35.985 21.7828 38.7892 22.059 41.3377 23.1146C43.8861 24.1702 46.0643 25.9578 47.5968 28.2513C49.1293 30.5448 49.9473 33.2413 49.9473 35.9997C49.9432 39.6974 48.4726 43.2425 45.8579 45.8572C43.2432 48.4718 39.6982 49.9425 36.0005 49.9466Z" fill="black"/>
<path d="M62.7831 31.1213H57.9663C57.4041 28.5624 56.3931 26.1233 54.9802 23.917L58.3879 20.5128C58.5008 20.4 58.5904 20.266 58.6516 20.1185C58.7127 19.9711 58.7442 19.813 58.7442 19.6534C58.7442 19.4937 58.7127 19.3357 58.6516 19.1882C58.5904 19.0408 58.5008 18.9068 58.3879 18.794L53.2072 13.614C52.9793 13.3863 52.6703 13.2584 52.3482 13.2584C52.026 13.2584 51.717 13.3863 51.4891 13.614L48.0828 17.0176C45.8766 15.6045 43.4374 14.5934 40.8785 14.0314V9.2153C40.8786 9.05568 40.8472 8.89761 40.7862 8.75012C40.7251 8.60263 40.6356 8.46862 40.5227 8.35575C40.4099 8.24288 40.2758 8.15337 40.1284 8.09232C39.9809 8.03128 39.8228 7.99991 39.6632 8H32.3366C32.177 7.99991 32.0189 8.03128 31.8714 8.09232C31.724 8.15337 31.5899 8.24288 31.4771 8.35575C31.3642 8.46862 31.2747 8.60263 31.2136 8.75012C31.1526 8.89761 31.1212 9.05568 31.1213 9.2153V14.0321C28.5624 14.5941 26.1232 15.6052 23.917 17.0182L20.5128 13.6105C20.2849 13.3828 19.9759 13.2549 19.6537 13.2549C19.3316 13.2549 19.0226 13.3828 18.7947 13.6105L13.614 18.7905C13.5011 18.9033 13.4115 19.0373 13.3503 19.1847C13.2892 19.3322 13.2577 19.4903 13.2577 19.6499C13.2577 19.8095 13.2892 19.9676 13.3503 20.1151C13.4115 20.2625 13.5011 20.3965 13.614 20.5093L17.0176 23.9156C15.6046 26.1219 14.5936 28.561 14.0314 31.1199H9.2153C9.05568 31.1198 8.89761 31.1512 8.75012 31.2123C8.60263 31.2733 8.46862 31.3628 8.35575 31.4757C8.24288 31.5886 8.15337 31.7226 8.09232 31.8701C8.03128 32.0175 7.99991 32.1756 8 32.3352V39.6618C7.99991 39.8214 8.03128 39.9795 8.09232 40.127C8.15337 40.2745 8.24288 40.4085 8.35575 40.5213C8.46862 40.6342 8.60263 40.7237 8.75012 40.7848C8.89761 40.8458 9.05568 40.8772 9.2153 40.8771H14.0321C14.5943 43.436 15.6053 45.8751 17.0182 48.0814L13.6112 51.4891C13.4983 51.6019 13.4087 51.7359 13.3475 51.8834C13.2864 52.0308 13.2549 52.1889 13.2549 52.3485C13.2549 52.5081 13.2864 52.6662 13.3475 52.8137C13.4087 52.9611 13.4983 53.0951 13.6112 53.2079L18.7919 58.3879C19.0198 58.6156 19.3288 58.7435 19.6509 58.7435C19.9731 58.7435 20.2821 58.6156 20.51 58.3879L23.9156 54.9809C26.1218 56.394 28.561 57.405 31.1199 57.967V62.7838C31.1198 62.9434 31.1512 63.1015 31.2123 63.249C31.2733 63.3965 31.3628 63.5305 31.4757 63.6434C31.5886 63.7562 31.7226 63.8457 31.8701 63.9068C32.0175 63.9678 32.1756 63.9992 32.3352 63.9991H39.6618C39.8214 63.9992 39.9795 63.9678 40.127 63.9068C40.2745 63.8457 40.4085 63.7562 40.5213 63.6434C40.6342 63.5305 40.7237 63.3965 40.7848 63.249C40.8458 63.1015 40.8772 62.9434 40.8771 62.7838V57.9663C43.4361 57.4043 45.8752 56.3933 48.0814 54.9802L51.4891 58.3872C51.717 58.6149 52.026 58.7428 52.3482 58.7428C52.6703 58.7428 52.9793 58.6149 53.2072 58.3872L58.3879 53.2072C58.5008 53.0944 58.5904 52.9604 58.6516 52.813C58.7127 52.6655 58.7442 52.5074 58.7442 52.3478C58.7442 52.1882 58.7127 52.0301 58.6516 51.8827C58.5904 51.7352 58.5008 51.6012 58.3879 51.4884L54.9809 48.0828C56.3938 45.8765 57.4048 43.4374 57.967 40.8785H62.7838C62.9434 40.8786 63.1015 40.8472 63.249 40.7862C63.3965 40.7251 63.5305 40.6356 63.6434 40.5227C63.7562 40.4099 63.8457 40.2758 63.9068 40.1284C63.9678 39.9809 63.9992 39.8228 63.9991 39.6632V32.3366C63.9992 32.177 63.9678 32.0188 63.9067 31.8713C63.8456 31.7237 63.7561 31.5897 63.6431 31.4768C63.5302 31.364 63.3961 31.2745 63.2485 31.2134C63.1009 31.1524 62.9428 31.1211 62.7831 31.1213ZM61.5678 38.4465H56.9663C56.6799 38.4466 56.4028 38.5478 56.1837 38.7322C55.9647 38.9167 55.8178 39.1726 55.7691 39.4548C55.2689 42.364 54.1251 45.1246 52.4211 47.5349C52.2563 47.769 52.1795 48.0537 52.2041 48.339C52.2288 48.6242 52.3533 48.8916 52.5558 49.0939L55.81 52.3482L52.3482 55.81L49.0932 52.5558C48.8908 52.3534 48.6234 52.229 48.3383 52.2043C48.0531 52.1797 47.7683 52.2564 47.5342 52.4211C45.124 54.1249 42.3637 55.269 39.4548 55.7698C39.1726 55.8185 38.9167 55.9654 38.7322 56.1844C38.5478 56.4035 38.4466 56.6806 38.4465 56.967V61.5678H33.5519V56.967C33.5519 56.6806 33.4507 56.4035 33.2662 56.1844C33.0817 55.9654 32.8258 55.8185 32.5436 55.7698C29.6347 55.269 26.8745 54.1249 24.4642 52.4211C24.2301 52.2564 23.9453 52.1797 23.6602 52.2043C23.375 52.229 23.1076 52.3534 22.9052 52.5558L19.6502 55.81L16.1884 52.3482L19.4426 49.0939C19.6451 48.8916 19.7696 48.6242 19.7943 48.339C19.8189 48.0537 19.7421 47.769 19.5773 47.5349C17.8734 45.1246 16.7295 42.364 16.2293 39.4548C16.1806 39.1726 16.0337 38.9167 15.8147 38.7322C15.5956 38.5478 15.3185 38.4466 15.0321 38.4465H10.4306V33.5519H15.0321C15.3185 33.5519 15.5956 33.4507 15.8147 33.2662C16.0337 33.0817 16.1806 32.8258 16.2293 32.5436C16.7295 29.6345 17.8734 26.8739 19.5773 24.4635C19.7421 24.2294 19.8189 23.9447 19.7943 23.6594C19.7696 23.3742 19.6451 23.1069 19.4426 22.9045L16.1884 19.6502L19.6502 16.1884L22.9052 19.4426C23.1075 19.6452 23.3749 19.7698 23.6601 19.7945C23.9454 19.8191 24.2302 19.7422 24.4642 19.5773C26.8745 17.8735 29.6347 16.7295 32.5436 16.2286C32.8258 16.1799 33.0817 16.033 33.2662 15.814C33.4507 15.5949 33.5519 15.3178 33.5519 15.0314V10.4306H38.4465V15.0314C38.4466 15.3178 38.5478 15.5949 38.7322 15.814C38.9167 16.033 39.1726 16.1799 39.4548 16.2286C42.3637 16.7295 45.124 17.8735 47.5342 19.5773C47.7682 19.7422 48.053 19.8191 48.3383 19.7945C48.6236 19.7698 48.8909 19.6452 49.0932 19.4426L52.3482 16.1884L55.81 19.6502L52.5558 22.9045C52.3533 23.1069 52.2288 23.3742 52.2041 23.6594C52.1795 23.9447 52.2563 24.2294 52.4211 24.4635C54.1251 26.8739 55.2689 29.6345 55.7691 32.5436C55.8178 32.8258 55.9647 33.0817 56.1837 33.2662C56.4028 33.4507 56.6799 33.5519 56.9663 33.5519H61.5678V38.4465Z" fill="black"/>
<path d="M37.6527 26.1115L38.411 25.5121C38.5375 25.4136 38.6432 25.2911 38.7221 25.1515C38.801 25.012 38.8515 24.8582 38.8707 24.699C38.8899 24.5399 38.8774 24.3785 38.834 24.2242C38.7906 24.0699 38.7171 23.9257 38.6177 23.7999C38.5183 23.6742 38.395 23.5693 38.2549 23.4914C38.1148 23.4135 37.9607 23.364 37.8014 23.3459C37.6421 23.3278 37.4808 23.3414 37.3268 23.3859C37.1728 23.4304 37.0292 23.5049 36.9041 23.6051L33.5887 26.2253C33.4448 26.3391 33.3284 26.484 33.2485 26.6491C33.1685 26.8143 33.127 26.9954 33.127 27.1788C33.127 27.3623 33.1685 27.5434 33.2485 27.7085C33.3284 27.8737 33.4448 28.0186 33.5887 28.1323L36.9027 30.7525C37.0278 30.8528 37.1714 30.9273 37.3254 30.9718C37.4795 31.0163 37.6407 31.0299 37.8 31.0118C37.9593 30.9937 38.1134 30.9442 38.2535 30.8663C38.3936 30.7884 38.5169 30.6835 38.6163 30.5577C38.7157 30.432 38.7892 30.2878 38.8326 30.1335C38.876 29.9792 38.8885 29.8178 38.8693 29.6586C38.8501 29.4995 38.7996 29.3457 38.7207 29.2062C38.6418 29.0666 38.5361 28.9441 38.4097 28.8455L38.284 28.7462C39.5308 29.1389 40.6554 29.8463 41.5493 30.8002C42.4431 31.754 43.076 32.9222 43.3869 34.1919C43.6978 35.4616 43.6762 36.7901 43.3241 38.049C42.9721 39.3079 42.3015 40.4549 41.3771 41.3791C41.1492 41.6073 41.0212 41.9166 41.0213 42.239C41.0214 42.5615 41.1497 42.8707 41.3778 43.0986C41.6059 43.3266 41.9152 43.4545 42.2377 43.4544C42.5601 43.4543 42.8693 43.326 43.0973 43.0979C44.4011 41.795 45.3205 40.1579 45.7547 38.3665C46.1888 36.575 46.1208 34.6986 45.5582 32.9433C44.9956 31.188 43.9601 29.6218 42.5655 28.4165C41.1708 27.2113 39.471 26.4137 37.6527 26.1115Z" fill="#0090D4"/>
</svg>
