<svg width="72" height="72" viewBox="0 0 72 72" fill="none" xmlns="http://www.w3.org/2000/svg">
<path fill-rule="evenodd" clip-rule="evenodd" d="M68.4 46.7999C70.3882 46.7999 72 45.1881 72 43.1999C72 41.2117 70.3882 39.5999 68.4 39.5999H64.452C61.8547 39.5212 59.2904 40.1986 57.0708 41.5499L52.6512 45.6779C49.68 50.1371 43.4544 52.7999 36 52.7999C28.5036 52.7999 22.2792 50.1407 19.332 45.6563L14.9304 41.5487C12.71 40.1985 10.1455 39.5215 7.548 39.5999H3.6C1.61177 39.5999 0 41.2117 0 43.1999C0 45.1881 1.61177 46.7999 3.6 46.7999H6V51.6767C5.3064 51.6191 4.5228 51.5999 3.6 51.5999C1.61177 51.5999 0 53.2117 0 55.1999C0 57.1881 1.61177 58.7999 3.6 58.7999C4.116 58.7999 4.8168 58.7999 5.28 58.8167C5.4156 59.0135 5.5716 59.2487 5.6892 59.4251C7.9908 62.8931 11.7864 65.8091 17.2944 68.3399C24.672 71.7359 33.48 71.9999 36 71.9999C38.52 71.9999 47.3268 71.7359 54.708 68.3423C59.4658 66.2231 63.6179 62.9473 66.786 58.8131C67.2444 58.7999 67.8672 58.7999 68.4 58.7999C70.3882 58.7999 72 57.1881 72 55.1999C72 53.2117 70.3882 51.5999 68.4 51.5999C67.4856 51.5999 66.7008 51.5999 66 51.6479V46.7999H68.4ZM3.6 41.9999C2.93726 41.9999 2.4 42.5372 2.4 43.1999C2.4 43.8627 2.93726 44.3999 3.6 44.3999H7.548C9.29622 44.3126 11.0294 44.761 12.516 45.6851C14.0666 46.8442 15.4103 48.2569 16.4904 49.8635C18.2589 52.2205 20.6064 54.0806 23.3052 55.2635C27.3449 56.8594 31.6568 57.653 36 57.5999C40.3456 57.6517 44.6596 56.856 48.7008 55.2575C51.3983 54.0741 53.7445 52.214 55.512 49.8575C56.5924 48.2514 57.936 46.8392 59.4864 45.6803C60.9729 44.7586 62.7051 44.312 64.452 44.3999H68.4C69.0627 44.3999 69.6 43.8627 69.6 43.1999C69.6 42.5372 69.0627 41.9999 68.4 41.9999H64.452C62.2156 41.9079 60.0048 42.5034 58.1172 43.7063C56.7936 44.663 55.6098 45.7996 54.6 47.0831C51.18 52.1591 44.2296 55.1999 36 55.1999C27.7404 55.1999 20.8032 52.1687 17.4084 47.0903C16.3978 45.8052 15.2133 44.6671 13.8888 43.7087C11.9997 42.5039 9.78663 41.9075 7.548 41.9999H3.6ZM30 59.5403V64.3931C31.9284 64.6439 33.6144 64.7435 34.8 64.7747V59.9747C33.1931 59.9202 31.5906 59.7752 30 59.5403ZM20.4 56.4551C18.6033 55.4311 16.9827 54.1253 15.6 52.5875V59.1791C17.1196 60.2045 18.7257 61.0955 20.4 61.8419V56.4551ZM27.6 59.1167C25.9573 58.7779 24.3501 58.285 22.8 57.6443V62.7839C24.369 63.3069 25.973 63.7183 27.6 64.0151V59.1167ZM42 59.5391C40.4095 59.7749 38.8069 59.9204 37.2 59.9747V64.7795C38.3856 64.7435 40.0716 64.6439 42 64.3931V59.5391ZM49.2 57.6443C47.65 58.2849 46.0428 58.7775 44.4 59.1155V64.0151C46.027 63.7188 47.631 63.3078 49.2 62.7851V57.6443ZM56.4 52.5863C55.0175 54.1246 53.3969 55.4309 51.6 56.4551V61.8419C53.2941 61.0741 54.9029 60.1305 56.4 59.0267V52.5863ZM11.1504 47.6555C10.3205 47.1484 9.37222 46.8675 8.4 46.8407V52.2095C9.79093 52.9387 10.9334 54.0653 11.682 55.4459C12.1241 56.097 12.6328 56.7003 13.2 57.2459V49.5659C12.592 48.853 11.9043 48.212 11.1504 47.6555ZM68.4 56.3999C69.0627 56.3999 69.6 55.8627 69.6 55.1999C69.6 54.5372 69.0627 53.9999 68.4 53.9999C64.92 53.9999 64.3824 53.9999 63.0108 55.8455C60.314 59.3818 56.768 62.1798 52.7016 63.9803C46.2072 66.9683 38.28 67.1999 36 67.1999C33.72 67.1999 25.7916 66.9683 19.2948 63.9791C14.6868 61.8611 11.4528 59.4359 9.6828 56.7707C7.9632 54.1811 7.566 53.9999 3.6 53.9999C2.93726 53.9999 2.4 54.5372 2.4 55.1999C2.4 55.8627 2.93726 56.3999 3.6 56.3999C4.44835 56.3701 5.29774 56.4014 6.1416 56.4935C6.40434 56.5432 6.64296 56.6792 6.8196 56.8799C6.9918 57.0754 7.17447 57.3474 7.40056 57.684C8.53731 59.3765 10.7717 62.7033 18.2916 66.1595C25.2324 69.3515 33.6 69.5999 36 69.5999C38.4 69.5999 46.7676 69.3515 53.7048 66.1607C57.1899 64.5906 60.3419 62.3673 62.9904 59.6111C63.7931 58.7621 64.5353 57.8579 65.2116 56.9051C65.4114 56.6504 65.7057 56.4873 66.0276 56.4527C66.5268 56.3999 67.4784 56.3999 68.4 56.3999ZM58.8 56.9999C59.6466 56.2183 60.4106 55.3517 61.08 54.4139C61.7136 53.4679 62.5819 52.7025 63.6 52.1927V46.8407C62.6289 46.8676 61.6816 47.1476 60.852 47.6531C60.0971 48.2101 59.4086 48.8519 58.8 49.5659V56.9999Z" fill="#0090D4"/>
<path fill-rule="evenodd" clip-rule="evenodd" d="M31.3962 0C24.741 0 20.1407 6.16491 22.4926 11.9317L24.0465 15.7417C22.7081 16.7376 21.4764 17.8707 20.3717 19.0949C16.4585 23.4312 14 29.0556 14 34.1904C14 44.5661 23.9607 52.8 36 52.8C48.0393 52.8 58 44.5661 58 34.1904C58 29.0556 55.5415 23.4312 51.6283 19.0949C50.5235 17.8707 49.2919 16.7376 47.9535 15.7417L49.5074 11.9317C51.8593 6.1649 47.259 0 40.6038 0H31.3962ZM45.943 14.4005L47.2693 11.1485C49.0301 6.83131 45.5861 2.21606 40.6038 2.21606H31.3962C26.4139 2.21606 22.9699 6.83132 24.7307 11.1485L26.057 14.4005C26.8192 13.948 27.6087 13.5404 28.4225 13.1846L27.4204 9.25314C26.7804 6.74245 28.8366 4.33577 31.6217 4.33577H40.3783C43.1634 4.33577 45.2196 6.74245 44.5796 9.25314L43.5775 13.1846C44.3913 13.5404 45.1808 13.948 45.943 14.4005ZM30.6697 12.3567C32.3692 11.8449 34.1538 11.562 36 11.562C37.8461 11.562 39.6308 11.8449 41.3303 12.3567L42.2512 8.74391C42.5365 7.62468 41.6199 6.55182 40.3783 6.55182H31.6217C30.3801 6.55182 29.4635 7.62468 29.7488 8.74391L30.6697 12.3567ZM28.9863 15.3965C28.2797 15.7282 27.591 16.1059 26.9232 16.5245L24.9407 17.9342C23.9672 18.7129 23.0523 19.5797 22.2073 20.5161C18.591 24.5234 16.3924 29.6592 16.3924 34.1904C16.3924 43.1463 25.0601 50.5839 36 50.5839C46.9399 50.5839 55.6076 43.1463 55.6076 34.1904C55.6076 29.6592 53.409 24.5234 49.7927 20.5161C48.9477 19.5797 48.0327 18.7129 47.0593 17.9342L45.0767 16.5245C44.409 16.1059 43.7203 15.7282 43.0136 15.3965L40.7781 14.5231C39.2408 14.041 37.6393 13.7781 36 13.7781C34.3607 13.7781 32.7592 14.041 31.2219 14.5231L28.9863 15.3965Z" fill="black"/>
</svg>
