<svg width="72" height="72" viewBox="0 0 72 72" fill="none" xmlns="http://www.w3.org/2000/svg">
<path d="M36 1.125C29.1024 1.125 22.3597 3.17038 16.6245 7.0025C10.8893 10.8346 6.41932 16.2813 3.77972 22.6539C1.14011 29.0265 0.449469 36.0387 1.79513 42.8038C3.14079 49.5689 6.46231 55.783 11.3397 60.6604C16.217 65.5377 22.4312 68.8592 29.1962 70.2049C35.9613 71.5505 42.9735 70.8599 49.3461 68.2203C55.7187 65.5807 61.1654 61.1107 64.9975 55.3755C68.8296 49.6403 70.875 42.8976 70.875 36C70.875 26.7506 67.2007 17.88 60.6604 11.3397C54.12 4.79932 45.2494 1.125 36 1.125ZM36 68.625C27.5388 68.63 19.4065 65.3476 13.3195 59.4705C7.23243 53.5933 3.66678 45.5812 3.37502 37.125H7.87502V34.875H3.37502C3.63229 27.0071 6.74328 19.5016 12.1275 13.7587L14.9175 16.5487L16.515 14.9513L13.725 12.1613C19.4714 6.75714 26.9909 3.63336 34.875 3.375V6.75H37.125V3.375C44.9929 3.63227 52.4985 6.74326 58.2413 12.1275L55.4513 14.9175L57.0488 16.515L59.8388 13.725C65.2429 19.4714 68.3667 26.9909 68.625 34.875H65.25V37.125H68.625C68.3333 45.5812 64.7676 53.5933 58.6806 59.4705C52.5935 65.3476 44.4613 68.63 36 68.625Z" fill="#1D1D1F"/>
<path d="M9.10195 34.8747H15.8519C16.1301 34.8764 16.3989 34.775 16.6067 34.5901C16.8145 34.4052 16.9464 34.1499 16.9769 33.8734C17.3709 30.33 18.755 26.9691 20.9707 24.1759C21.1422 23.9591 21.2278 23.6866 21.2112 23.4106C21.1946 23.1347 21.0769 22.8745 20.8807 22.6797L16.0882 17.8759C15.9775 17.7666 15.8453 17.6814 15.7 17.6257C15.5547 17.5701 15.3995 17.5451 15.244 17.5525C15.0886 17.5599 14.9364 17.5995 14.7971 17.6687C14.6577 17.7379 14.5342 17.8353 14.4344 17.9547C10.6945 22.4042 8.43696 27.9104 7.97695 33.7047C7.95727 34.0172 8.06248 34.3247 8.26945 34.5597C8.37949 34.6661 8.51007 34.7489 8.65322 34.803C8.79636 34.8572 8.94905 34.8816 9.10195 34.8747ZM15.3907 20.3622L18.6194 23.6247C16.7021 26.2982 15.4278 29.3781 14.8957 32.6247H10.3957C10.9578 28.1702 12.6803 23.9416 15.3907 20.3622Z" fill="#0090D4"/>
<path d="M62.8984 37.1251H56.1484C55.8703 37.1234 55.6014 37.2248 55.3936 37.4097C55.1859 37.5946 55.054 37.8499 55.0234 38.1264C54.6218 41.6678 53.2385 45.0266 51.0296 47.8238C50.8582 48.0407 50.7725 48.3132 50.7891 48.5892C50.8057 48.8651 50.9234 49.1253 51.1196 49.3201L55.9346 54.1239C56.1442 54.3317 56.427 54.4489 56.7221 54.4501H56.7784C56.9341 54.4424 57.0865 54.4024 57.2259 54.3327C57.3654 54.263 57.4888 54.165 57.5884 54.0451C61.3284 49.5956 63.5859 44.0894 64.0459 38.2951C64.0656 37.9826 63.9604 37.6751 63.7534 37.4401C63.6407 37.3309 63.5065 37.2464 63.3592 37.1922C63.212 37.1379 63.055 37.1151 62.8984 37.1251ZM56.6096 51.6376L53.3809 48.3751C55.2982 45.7016 56.5725 42.6217 57.1046 39.3751H61.6046C61.0425 43.8296 59.3201 48.0582 56.6096 51.6376Z" fill="#A9AFB7"/>
<path d="M20.9922 47.8235C18.7833 45.0263 17.4 41.6675 16.9984 38.126C16.9678 37.8496 16.8359 37.5943 16.6282 37.4094C16.4204 37.2245 16.1515 37.1231 15.8734 37.1248H9.12343C8.96728 37.1237 8.81262 37.1552 8.66929 37.2172C8.52597 37.2791 8.39711 37.3703 8.29093 37.4848C8.08396 37.7197 7.97876 38.0273 7.99843 38.3398C8.45844 44.1341 10.716 49.6402 14.4559 54.0898C14.5555 54.2097 14.6789 54.3077 14.8184 54.3774C14.9578 54.4471 15.1102 54.4871 15.2659 54.4948C15.5611 54.4935 15.8439 54.3764 16.0534 54.1685L20.8684 49.3648C21.0821 49.1724 21.214 48.9054 21.237 48.6188C21.2601 48.3321 21.1724 48.0476 20.9922 47.8235ZM15.3672 51.6373C12.6487 48.0603 10.9184 43.8314 10.3497 39.3748H14.8497C15.3818 42.6214 16.6561 45.7013 18.5734 48.3748L15.3672 51.6373Z" fill="#0090D4"/>
<path d="M38.1266 16.9984C41.6701 17.3923 45.0309 18.7764 47.8241 20.9921C48.0235 21.1469 48.2692 21.2301 48.5216 21.2284C48.6697 21.2292 48.8164 21.2008 48.9535 21.1449C49.0906 21.0889 49.2152 21.0064 49.3204 20.9021L54.1241 16.0984C54.2354 15.9867 54.3219 15.8528 54.3781 15.7055C54.4343 15.5582 54.4589 15.4008 54.4504 15.2434C54.4427 15.0877 54.4027 14.9352 54.333 14.7958C54.2632 14.6564 54.1653 14.5329 54.0454 14.4334C49.5958 10.6934 44.0897 8.43587 38.2954 7.97586C38.1404 7.96286 37.9844 7.98214 37.8372 8.03249C37.69 8.08283 37.5549 8.16315 37.4404 8.26836C37.3259 8.37454 37.2347 8.50339 37.1727 8.64672C37.1108 8.79005 37.0793 8.94471 37.0804 9.10086V15.8509C37.0739 16.1399 37.1789 16.4204 37.3738 16.6341C37.5686 16.8477 37.8382 16.9782 38.1266 16.9984ZM39.3754 10.3496C43.8342 10.9249 48.0632 12.6631 51.6379 15.3896L48.3754 18.6184C45.7039 16.6975 42.6231 15.4228 39.3754 14.8946V10.3496Z" fill="#0090D4"/>
<path d="M22.6806 20.9028C22.7857 21.0071 22.9104 21.0895 23.0474 21.1455C23.1845 21.2015 23.3313 21.2299 23.4793 21.229C23.7317 21.2308 23.9774 21.1476 24.1768 20.9928C26.97 18.7771 30.3309 17.393 33.8743 16.999C34.1508 16.9685 34.4061 16.8366 34.591 16.6288C34.7759 16.421 34.8773 16.1522 34.8756 15.874V9.12405C34.8766 8.9679 34.8452 8.81324 34.7832 8.66991C34.7212 8.52659 34.6301 8.39773 34.5156 8.29155C34.401 8.18634 34.2659 8.10603 34.1187 8.05568C33.9716 8.00534 33.8156 7.98605 33.6606 7.99905C27.8663 8.45906 22.3601 10.7166 17.9106 14.4565C17.7906 14.5561 17.6927 14.6796 17.623 14.819C17.5532 14.9584 17.5133 15.1108 17.5056 15.2665C17.497 15.424 17.5216 15.5814 17.5778 15.7287C17.634 15.876 17.7206 16.0098 17.8318 16.1215L22.6806 20.9028ZM32.6256 10.3503V14.8503C29.3779 15.3784 26.297 16.6531 23.6256 18.574L20.3631 15.3903C23.9377 12.6638 28.1668 10.9256 32.6256 10.3503Z" fill="#0090D4"/>
<path d="M56.7569 17.55C56.6013 17.543 56.446 17.5684 56.3008 17.6245C56.1555 17.6807 56.0235 17.7664 55.9131 17.8762L51.0981 22.68C50.9019 22.8747 50.7843 23.1349 50.7677 23.4109C50.7511 23.6869 50.8367 23.9593 51.0081 24.1762C53.2238 26.9694 54.6079 30.3302 55.0019 33.8737C55.0325 34.1501 55.1644 34.4054 55.3721 34.5903C55.5799 34.7753 55.8488 34.8766 56.1269 34.875H62.8769C63.033 34.876 63.1877 34.8445 63.331 34.7826C63.4743 34.7206 63.6032 34.6295 63.7094 34.515C63.9164 34.28 64.0216 33.9725 64.0019 33.66C63.5419 27.8656 61.2844 22.3595 57.5444 17.91C57.4434 17.8009 57.3218 17.7129 57.1867 17.6512C57.0515 17.5894 56.9054 17.555 56.7569 17.55ZM57.1056 32.625C56.5735 29.3784 55.2992 26.2984 53.3819 23.625L56.6106 20.4075C59.3299 23.9693 61.0677 28.1819 61.6506 32.625H57.1056Z" fill="#A9AFB7"/>
<path d="M51.75 54H20.25C19.9516 54 19.6655 54.1185 19.4545 54.3295C19.2435 54.5405 19.125 54.8266 19.125 55.125V59.625C19.125 59.9234 19.2435 60.2095 19.4545 60.4205C19.6655 60.6315 19.9516 60.75 20.25 60.75H51.75C52.0484 60.75 52.3345 60.6315 52.5455 60.4205C52.7565 60.2095 52.875 59.9234 52.875 59.625V55.125C52.875 54.8266 52.7565 54.5405 52.5455 54.3295C52.3345 54.1185 52.0484 54 51.75 54ZM50.625 58.5H21.375V56.25H50.625V58.5Z" fill="#1D1D1F"/>
<path d="M32.1198 46.9364C32.2222 47.5609 32.462 48.1549 32.8219 48.6755C33.1818 49.1961 33.6528 49.6303 34.2009 49.9467C34.749 50.2632 35.3605 50.454 35.9913 50.5054C36.6221 50.5568 37.2564 50.4674 37.8485 50.2439C38.5486 49.9859 39.1847 49.5796 39.713 49.0528C40.2414 48.526 40.6496 47.8911 40.9097 47.1918L48.2041 27.9426C48.3532 27.6842 48.3937 27.3771 48.3164 27.0889C48.2392 26.8007 48.0507 26.555 47.7923 26.4058C47.5339 26.2566 47.2268 26.2162 46.9386 26.2934C46.6504 26.3706 46.4047 26.5592 46.2555 26.8176L33.1739 42.7256C32.7038 43.3092 32.366 43.9881 32.184 44.7151C32.002 45.4421 31.9801 46.2 32.1198 46.9364ZM34.9953 44.2058L43.6939 33.6395L38.8924 46.4558C38.7495 46.8476 38.5241 47.2042 38.2315 47.5014C37.9389 47.7986 37.5858 48.0295 37.1963 48.1786C36.9103 48.2856 36.6041 48.328 36.2998 48.3027C35.9955 48.2774 35.7005 48.1851 35.436 48.0325C35.1716 47.8798 34.9442 47.6705 34.7701 47.4195C34.5961 47.1686 34.4797 46.8823 34.4294 46.5811C34.333 46.1668 34.3285 45.7365 34.4162 45.3203C34.5039 44.9042 34.6816 44.5122 34.9369 44.1721L34.9953 44.2058Z" fill="#1D1D1F"/>
</svg>
