<svg width="72" height="72" viewBox="0 0 72 72" fill="none" xmlns="http://www.w3.org/2000/svg">
<g clip-path="url(#clip0)">
<path d="M71.8677 17.073C71.6199 16.1515 71.0153 15.3659 70.1881 14.8896C69.3603 14.411 68.3761 14.2815 67.4528 14.5293C66.5307 14.7777 65.7451 15.3817 65.2688 16.2089L64.6689 17.2529C64.0989 16.9254 63.3707 17.1182 63.0373 17.6852L59.9898 22.8799L58.9458 22.28C58.6693 22.12 58.3401 22.0767 58.0319 22.1599C57.7232 22.2437 57.4607 22.4464 57.302 22.724C56.9768 23.2976 57.1749 24.0264 57.746 24.3556L58.79 24.9555L48.5918 42.6285L46.0721 49.3597L44.8723 51.6029C44.1698 52.825 44.2448 54.344 45.0644 55.4905L42.3649 58.8017L41.6092 56.9065C41.2682 56.0617 40.4791 55.4829 39.5716 55.412C38.6636 55.3406 37.7936 55.7893 37.3255 56.5702L36.8937 57.3019L36.486 52.5028C36.3923 51.3674 35.5129 50.4547 34.3823 50.3176C33.251 50.1811 32.1801 50.8589 31.8186 51.9392L28.8672 60.7935C28.661 61.4198 28.9984 62.0947 29.6229 62.3056C29.7401 62.3601 29.866 62.3929 29.9949 62.4011C30.5105 62.4028 30.9698 62.0742 31.135 61.5856L34.0741 52.7312L34.4942 57.6019C34.5809 58.6412 35.3278 59.5053 36.3436 59.7408C37.3595 59.9763 38.4105 59.5287 38.9453 58.6341L39.3894 57.9018L40.1334 59.7859C40.4492 60.5797 41.1633 61.1462 42.0087 61.2722C42.8541 61.3981 43.7023 61.0648 44.2366 60.3975L47.0322 56.8585C47.3416 56.9393 47.6603 56.9797 47.9801 56.9786C49.266 56.9885 50.46 56.3113 51.1114 55.2023L52.3112 53.1987L56.8825 47.6438L67.1886 29.7547L68.2325 30.3546C68.5108 30.5139 68.7135 30.777 68.7961 31.0869C68.8793 31.3944 68.836 31.7225 68.6766 31.9984L63.8774 40.3132C63.6964 40.5862 63.6349 40.9213 63.7075 41.2412C63.7802 41.5605 63.9799 41.8364 64.2612 42.0045C64.5377 42.1651 64.8669 42.2084 65.1751 42.1252C65.4838 42.0415 65.7462 41.8388 65.905 41.5611L70.7042 33.2463C71.1828 32.4185 71.3123 31.4343 71.0639 30.511C70.8155 29.5889 70.2115 28.8033 69.3843 28.327L68.3403 27.7271L71.3398 22.5319C71.6673 21.9619 71.4746 21.2343 70.9081 20.9003L71.508 19.8564C71.9995 19.0157 72.1295 18.0116 71.8677 17.073ZM67.3444 17.4087C67.5032 17.131 67.7668 16.9278 68.0767 16.8452C68.3849 16.769 68.7106 16.8118 68.9883 16.9653C69.2665 17.124 69.4692 17.3876 69.5524 17.697C69.6286 18.0051 69.5858 18.3308 69.4323 18.6085L68.8324 19.6525L66.7445 18.4527L67.3444 17.4087ZM50.9913 50.9075L50.3914 50.5595L48.6158 49.5273L50.3194 44.9683L54.0986 47.1517L50.9913 50.9075ZM47.392 54.3745C46.8852 54.0212 46.7294 53.3417 47.0322 52.8027L47.6321 51.7593L49.7195 52.9591L49.1196 53.9908C48.9515 54.2825 48.6691 54.4899 48.3404 54.5631C48.0118 54.6358 47.6679 54.5678 47.392 54.3745ZM55.4666 45.1845L51.3153 42.7849L60.9137 26.1553L65.0649 28.5549L55.4666 45.1845ZM66.2647 26.4793L62.1135 24.0797L64.5131 19.9284L68.6643 22.328L66.2647 26.4793Z" fill="#0090D4"/>
<path d="M18.9331 53.7748L14.6863 58.0104L12.1426 55.4667C11.6745 55.0016 10.9188 55.0016 10.4507 55.4667C10.2234 55.6923 10.0957 55.9986 10.0957 56.3185C10.0957 56.6384 10.2234 56.9454 10.4507 57.1703L12.9944 59.714C13.4443 60.1604 14.0524 60.4106 14.6863 60.41C15.3237 60.4135 15.9371 60.1634 16.3899 59.714L20.625 55.4667C21.0327 54.9904 21.0052 54.281 20.5623 53.8381C20.1188 53.3946 19.4093 53.3671 18.9331 53.7748Z" fill="#0090D4"/>
<path d="M4.79883 57.0021C4.79883 62.635 9.36485 67.2004 14.9971 67.2004C20.6293 67.2004 25.1954 62.635 25.1954 57.0021C25.1954 56.3396 24.6581 55.8023 23.9956 55.8023C23.333 55.8023 22.7958 56.3396 22.7958 57.0021C22.7958 61.3092 19.3042 64.8008 14.9971 64.8008C10.69 64.8008 7.19842 61.3092 7.19842 57.0021C7.19842 52.6951 10.69 49.2035 14.9971 49.2035C16.6855 49.1988 18.3288 49.7465 19.6762 50.7636C20.2064 51.1613 20.9586 51.0535 21.3558 50.5234C21.7536 49.9932 21.6464 49.2415 21.1162 48.8438C18.0259 46.5262 13.891 46.1536 10.4363 47.8806C6.98107 49.6083 4.79883 53.1397 4.79883 57.0021Z" fill="#A9AFB7"/>
<path d="M43.1933 9.61053C43.8559 9.61053 44.3931 9.0739 44.3931 8.41073C44.3931 7.74815 43.8559 7.21094 43.1933 7.21094H11.9986C11.336 7.21094 10.7988 7.74815 10.7988 8.41073V13.2099C10.7988 13.8731 11.336 14.4097 11.9986 14.4097H43.1933C43.8559 14.4097 44.3931 13.8731 44.3931 13.2099C44.3931 12.5473 43.8559 12.0101 43.1933 12.0101H13.1984V9.61053H43.1933Z" fill="black"/>
<path d="M15.5963 16.8096C14.9337 16.8096 14.3965 17.3468 14.3965 18.0094C14.3965 18.6725 14.9337 19.2092 15.5963 19.2092H39.5922C40.2548 19.2092 40.792 18.6725 40.792 18.0094C40.792 17.3468 40.2548 16.8096 39.5922 16.8096H15.5963Z" fill="black"/>
<path d="M46.7926 25.2075H20.3971C19.7345 25.2075 19.1973 25.7447 19.1973 26.4073C19.1973 27.0705 19.7345 27.6071 20.3971 27.6071H46.7926C47.4552 27.6071 47.9924 27.0705 47.9924 26.4073C47.9924 25.7447 47.4552 25.2075 46.7926 25.2075Z" fill="black"/>
<path d="M34.7939 33.6065C34.7939 32.944 34.2567 32.4067 33.5941 32.4067H9.59823C8.93565 32.4067 8.39844 32.944 8.39844 33.6065C8.39844 34.2697 8.93565 34.8063 9.59823 34.8063H33.5941C34.2567 34.8063 34.7939 34.2697 34.7939 33.6065Z" fill="black"/>
<path d="M46.7917 32.4067H38.3932C37.7306 32.4067 37.1934 32.944 37.1934 33.6065C37.1934 34.2697 37.7306 34.8063 38.3932 34.8063H46.7917C47.4543 34.8063 47.9915 34.2697 47.9915 33.6065C47.9915 32.944 47.4543 32.4067 46.7917 32.4067Z" fill="black"/>
<path d="M21.5962 40.8053C22.2588 40.8053 22.796 40.2687 22.796 39.6056C22.796 38.943 22.2588 38.4058 21.5962 38.4058H9.59823C8.93565 38.4058 8.39844 38.943 8.39844 39.6056C8.39844 40.2687 8.93565 40.8053 9.59823 40.8053H21.5962Z" fill="black"/>
<path d="M26.3951 40.8053H34.7937C35.4563 40.8053 35.9935 40.2687 35.9935 39.6056C35.9935 38.943 35.4563 38.4058 34.7937 38.4058H26.3951C25.7325 38.4058 25.1953 38.943 25.1953 39.6056C25.1953 40.2687 25.7325 40.8053 26.3951 40.8053Z" fill="black"/>
<path d="M53.9908 55.2023C53.3282 55.2023 52.791 55.7395 52.791 56.4021V68.4001C52.791 69.0632 52.2538 69.5999 51.5912 69.5999H3.59939C2.9368 69.5999 2.39959 69.0632 2.39959 68.4001V3.61111C2.39959 2.94852 2.9368 2.41131 3.59939 2.41131H51.5912C52.2538 2.41131 52.791 2.94852 52.791 3.61111V26.1436C52.791 26.8062 53.3282 27.3434 53.9908 27.3434C54.6534 27.3434 55.1906 26.8062 55.1906 26.1436V3.61111C55.1906 1.62336 53.579 0.0117188 51.5912 0.0117188H3.59939C1.61164 0.0117188 0 1.62336 0 3.61111V68.4001C0 70.3884 1.61164 71.9995 3.59939 71.9995H51.5912C53.579 71.9995 55.1906 70.3884 55.1906 68.4001V56.4021C55.1906 55.7395 54.6534 55.2023 53.9908 55.2023Z" fill="black"/>
</g>
<defs>
<clipPath id="clip0">
<rect width="72" height="72" fill="white"/>
</clipPath>
</defs>
</svg>
