<svg width="70" height="72" viewBox="0 0 70 72" fill="none" xmlns="http://www.w3.org/2000/svg">
<path d="M5.02611 11.5307C5.60036 11.5307 6.06589 11.0652 6.06589 10.491C6.06589 9.9167 5.60036 9.45117 5.02611 9.45117C4.45185 9.45117 3.98633 9.9167 3.98633 10.491C3.98633 11.0652 4.45185 11.5307 5.02611 11.5307Z" fill="#A9AFB7"/>
<path d="M29.2422 52.2358V49.3357C29.2422 48.7531 28.7701 48.281 28.1875 48.281C27.6049 48.281 27.1328 48.7531 27.1328 49.3357V52.2358C27.1328 52.8184 27.6049 53.2905 28.1875 53.2905C28.77 53.2905 29.2422 52.8183 29.2422 52.2358Z" fill="#A9AFB7"/>
<path d="M64.9714 11.5307C65.5457 11.5307 66.0112 11.0652 66.0112 10.491C66.0112 9.9167 65.5457 9.45117 64.9714 9.45117C64.3972 9.45117 63.9316 9.9167 63.9316 10.491C63.9316 11.0652 64.3972 11.5307 64.9714 11.5307Z" fill="#A9AFB7"/>
<path d="M65.4475 5.79934L62.6885 1.36094C62.2821 0.707315 61.6459 0.251129 60.8966 0.0761914C60.1477 -0.0981833 59.3748 0.0289414 58.7213 0.435066C58.0678 0.841471 57.6116 1.47766 57.4368 2.22691C57.2619 2.9763 57.3893 3.74875 57.7957 4.40223L60.5542 8.83964C60.3587 9.36333 60.2559 9.92302 60.2569 10.4987C60.2571 10.5745 60.2593 10.6499 60.2631 10.7247L52.477 17.3733C48.5664 16.1436 44.3215 16.9586 41.1403 19.5451C39.8201 19.1358 38.3923 19.83 37.9147 21.1429C37.6762 21.7982 37.707 22.5072 38.0018 23.1394C38.2965 23.7713 38.8198 24.2508 39.4751 24.4895L58.8879 31.5552C59.1793 31.6612 59.4815 31.7141 59.7826 31.7141C60.1586 31.7141 60.5335 31.6317 60.8845 31.468C61.5165 31.1732 61.9959 30.65 62.2345 29.9947C62.473 29.3394 62.4422 28.6303 62.1475 27.9982C61.8706 27.4048 61.3906 26.9485 60.7907 26.6972C60.3389 24.3486 59.2225 22.2291 57.6187 20.5583L64.0039 15.1059C64.3166 15.1714 64.6406 15.2064 64.9725 15.2064H64.9804C67.5804 15.2021 69.6923 13.0831 69.6881 10.4831C69.6839 8.0461 67.8223 6.03812 65.4475 5.79934ZM59.5871 3.28862C59.4784 3.11383 59.4443 2.90697 59.4911 2.70644C59.5379 2.50576 59.66 2.33547 59.8352 2.22662C60.0101 2.11792 60.2167 2.08389 60.4172 2.13044C60.6178 2.17727 60.7882 2.29947 60.8971 2.47455L63.1701 6.13107C62.6961 6.32696 62.2551 6.60216 61.862 6.94824L59.5871 3.28862ZM58.3855 25.815L57.9417 25.6534C57.3935 25.4546 56.789 25.7365 56.5899 26.2837C56.3906 26.8312 56.6728 27.4363 57.2201 27.6355L59.4789 28.4576C59.4796 28.4579 59.4803 28.4582 59.481 28.4585L59.9526 28.6302C60.1226 28.6921 60.2029 28.8193 60.2358 28.8896C60.2686 28.9599 60.3144 29.1032 60.2524 29.2733C60.1907 29.443 60.0634 29.5234 59.9931 29.5562C59.9227 29.589 59.7791 29.6345 59.6095 29.5729L40.1967 22.5072C40.0266 22.4454 39.9464 22.3182 39.9134 22.2478C39.8808 22.1775 39.8348 22.0342 39.8969 21.8642C39.9586 21.6943 40.0858 21.614 40.1562 21.5811C40.2265 21.5482 40.3699 21.5025 40.5398 21.5644L41.0043 21.7334C41.0076 21.7345 41.0109 21.7358 41.0143 21.737L52.597 25.953C53.1443 26.1517 53.7495 25.8697 53.9488 25.3227C54.1481 24.7752 53.8658 24.1701 53.3185 23.9709L43.5499 20.4152C46.1448 18.8172 49.346 18.4634 52.2728 19.5292C55.1998 20.5945 57.4249 22.9231 58.3855 25.815ZM56.0132 19.1556C55.5802 18.8399 55.1243 18.5518 54.6477 18.2931L60.935 12.9245C61.2035 13.3682 61.5432 13.7638 61.9378 14.0965L56.0132 19.1556ZM64.9766 13.0972H64.9724C63.5374 13.0971 62.3686 11.9309 62.3663 10.4952C62.3639 9.05818 63.5311 7.88719 64.9681 7.8848H64.9724C66.4073 7.8848 67.5762 9.05114 67.5784 10.4868C67.5808 11.9237 66.4136 13.0947 64.9766 13.0972Z" fill="#0090D4"/>
<path d="M12.819 15.7397C11.7809 17.1664 11.0506 18.823 10.7062 20.613C9.43161 21.1479 8.78474 22.5976 9.2623 23.9104C9.50094 24.5657 9.98047 25.0889 10.6124 25.3837C10.9634 25.5474 11.3382 25.6298 11.7144 25.6298C12.0156 25.6298 12.3175 25.5769 12.6089 25.4709L32.0218 18.4052C32.6772 18.1666 33.2004 17.6872 33.4952 17.0551C33.7901 16.4229 33.8209 15.7139 33.5824 15.0586C33.3437 14.4033 32.8643 13.88 32.2322 13.5853C31.6386 13.3084 30.9777 13.2675 30.3566 13.4607C27.0685 10.7874 22.6436 10.0062 18.6268 11.4201L9.48168 8.77943L12.2028 4.40249C13.041 3.05347 12.6259 1.27387 11.277 0.435181C9.92802 -0.403083 8.14841 0.012182 7.31001 1.36091L4.55081 5.79959C2.17636 6.03837 0.314491 8.04649 0.310553 10.4835C0.306334 13.0835 2.4181 15.2025 5.01825 15.2068H5.02612C6.06674 15.2067 7.0296 14.8671 7.81063 14.2936L12.819 15.7397ZM30.4861 15.6516C30.4864 15.6515 30.4868 15.6513 30.4871 15.6513L30.9572 15.4802C31.0184 15.458 31.076 15.4495 31.128 15.4495C31.2207 15.4495 31.2955 15.476 31.3407 15.4969C31.411 15.5297 31.5382 15.6101 31.6001 15.78C31.6618 15.9499 31.6161 16.0932 31.5834 16.1635C31.5506 16.2338 31.4702 16.3611 31.3003 16.4229L11.8873 23.4884C11.7173 23.5502 11.5743 23.5044 11.504 23.4716C11.4337 23.439 11.3064 23.3584 11.2445 23.1887C11.1499 22.9287 11.2845 22.6404 11.5444 22.5457L12.0149 22.3745C12.0163 22.3739 12.0177 22.3735 12.019 22.3729L30.4861 15.6516ZM19.2243 13.4448C22.1513 12.3796 25.3526 12.733 27.9472 14.3309L13.1115 19.7306C13.5903 18.2889 14.3836 16.9878 15.4214 15.9129C15.4221 15.9122 15.4226 15.9115 15.4234 15.9108C16.4672 14.8308 17.7573 13.9787 19.2243 13.4448ZM9.70836 11.0405L15.8503 12.8138C15.3239 13.1686 14.8291 13.5626 14.3682 13.9913L9.28058 12.5224C9.5001 12.0643 9.64705 11.5655 9.70836 11.0405ZM9.10128 2.4748C9.32586 2.11396 9.80244 2.00258 10.1634 2.22688C10.5244 2.45146 10.6356 2.92804 10.4113 3.28916L8.13618 6.94836C7.74313 6.60228 7.30213 6.32722 6.82809 6.13119L9.10128 2.4748ZM5.02598 13.0975H5.02176C3.58472 13.0949 2.41753 11.9239 2.41992 10.487C2.42231 9.0514 3.59091 7.88506 5.02598 7.88506H5.0302C6.46724 7.88745 7.63443 9.05843 7.63204 10.4955C7.62951 11.9311 6.46092 13.0975 5.02598 13.0975Z" fill="#0090D4"/>
<path d="M57.0019 49.957V47.1604C57.0019 46.5778 56.5297 46.1057 55.9473 46.1057C55.3647 46.1057 54.8926 46.5778 54.8926 47.1604V49.957C54.8926 50.5396 55.3647 51.0117 55.9473 51.0117C56.5299 51.0117 57.0019 50.5395 57.0019 49.957Z" fill="#A9AFB7"/>
<path d="M16.6914 42.1121C16.1088 42.1121 15.6367 42.5843 15.6367 43.1667V45.9182C15.6367 46.5007 16.1088 46.9729 16.6914 46.9729C17.274 46.9729 17.7461 46.5007 17.7461 45.9182V43.1667C17.7461 42.5841 17.2739 42.1121 16.6914 42.1121Z" fill="#A9AFB7"/>
<path d="M59.7038 41.7574H27.0161C26.1728 41.7574 25.38 41.429 24.7837 40.8326L14.3105 30.3593C12.7017 28.7504 10.0932 28.7097 8.496 30.2684C7.6988 31.0463 7.25977 32.088 7.25977 33.2016V47.1757C7.25977 48.5386 7.94784 49.7865 9.10012 50.5138L14.2258 53.7494C14.7182 54.0606 15.3697 53.913 15.6807 53.4207C15.9916 52.9281 15.8443 52.2767 15.3519 51.9658L10.2261 48.73C9.68962 48.3914 9.36914 47.8103 9.36914 47.1755V33.2015C9.36914 32.6611 9.58232 32.1555 9.96932 31.7778C10.7439 31.022 12.0224 31.0542 12.8189 31.8509L23.2921 42.3242C24.2869 43.3189 25.6095 43.8668 27.0161 43.8668H59.7038C60.8002 43.8668 61.6922 44.7587 61.6922 45.8551V51.9628C61.6922 54.0255 60.014 55.7037 57.9513 55.7037H47.1622V49.3366C47.1622 48.754 46.69 48.282 46.1075 48.282C45.5249 48.282 45.0528 48.754 45.0528 49.3366V55.7037H23.3513C21.9915 55.7037 20.665 55.3201 19.5155 54.5942C19.023 54.283 18.3717 54.4303 18.0606 54.923C17.7497 55.4154 17.8968 56.0669 18.3894 56.3779C19.8765 57.3168 21.5922 57.8131 23.3513 57.8131H27.9066V59.2972C27.9066 60.7717 29.1061 61.9714 30.5807 61.9714H31.5125V65.8399H27.4747C25.9375 65.8399 24.687 67.0907 24.687 68.6277V70.0204C24.687 71.1125 25.5753 72.0008 26.6674 72.0008H46.3638C47.4558 72.0008 48.3441 71.1125 48.3441 70.0204V68.6277C48.3441 67.0905 47.0934 65.8399 45.5564 65.8399H41.5188V61.9714H42.4505C43.925 61.9714 45.1247 60.7718 45.1247 59.2972V57.8131H57.9515C61.1773 57.8131 63.8017 55.1887 63.8017 51.9628V45.8551C63.8015 43.5956 61.9633 41.7574 59.7038 41.7574ZM45.5564 67.9487C45.9304 67.9487 46.2348 68.2531 46.2348 68.6271V69.8909H26.7963V68.6271C26.7963 68.2531 27.1007 67.9487 27.4747 67.9487H45.5564ZM33.6218 65.8394V61.9708H39.4095V65.8394H33.6218ZM42.4504 59.8617H30.5805C30.2692 59.8617 30.0158 59.6083 30.0158 59.2969V57.8128H43.015V59.2969H43.0151C43.0151 59.6083 42.7617 59.8617 42.4504 59.8617Z" fill="#1D1D1F"/>
</svg>
