<svg width="72" height="72" viewBox="0 0 72 72" fill="none" xmlns="http://www.w3.org/2000/svg">
<path d="M36.0682 23.0127C32.9695 23.0127 30.4492 20.4935 30.4492 17.3965C30.4492 14.3 32.9695 11.7803 36.0682 11.7803C39.1663 11.7803 41.6871 14.3 41.6871 17.3965C41.6871 20.4935 39.1663 23.0127 36.0682 23.0127ZM36.0682 14.5928C34.5208 14.5928 33.2617 15.8507 33.2617 17.397C33.2617 18.9428 34.5208 20.2007 36.0682 20.2007C37.6156 20.2007 38.8746 18.9428 38.8746 17.397C38.8746 15.8507 37.6156 14.5928 36.0682 14.5928Z" fill="#0090D4"/>
<path d="M36.0684 55.5637C35.9766 55.5637 35.8838 55.5538 35.7937 55.5357C35.7042 55.517 35.6152 55.4906 35.5311 55.4555C35.4454 55.4203 35.3636 55.3764 35.2878 55.3258C35.2103 55.2753 35.1384 55.216 35.0741 55.1517C35.0093 55.0869 34.95 55.0138 34.8994 54.938C34.8489 54.8605 34.8055 54.7787 34.7703 54.6947C34.7352 54.6101 34.7072 54.5216 34.6901 54.4315C34.672 54.3403 34.6621 54.2486 34.6621 54.1574C34.6621 54.0646 34.672 53.9734 34.6901 53.8817C34.7072 53.7916 34.7352 53.7031 34.7703 53.6185C34.8055 53.5345 34.8489 53.4527 34.8994 53.3757C34.95 53.2994 35.0093 53.228 35.0741 53.1615C35.1384 53.0972 35.2103 53.0396 35.2878 52.9874C35.3636 52.9368 35.4454 52.8934 35.5311 52.8583C35.6152 52.8231 35.7042 52.7962 35.7937 52.7781C35.9755 52.7413 36.1612 52.7413 36.3425 52.7781C36.4326 52.7962 36.521 52.8231 36.6067 52.8583C36.6913 52.8934 36.7726 52.9368 36.8484 52.9874C36.9258 53.0396 36.9978 53.0972 37.0626 53.1615C37.1269 53.228 37.1862 53.2994 37.2368 53.3757C37.2873 53.4527 37.3312 53.5345 37.3664 53.6185C37.4016 53.7031 37.4296 53.7916 37.446 53.8817C37.4647 53.9729 37.4746 54.0646 37.4746 54.1574C37.4746 54.2486 37.4647 54.3403 37.446 54.4315C37.4296 54.5216 37.4016 54.6101 37.3664 54.6947C37.3312 54.7787 37.2873 54.8605 37.2368 54.938C37.1862 55.0138 37.1269 55.0869 37.0626 55.1517C36.9978 55.216 36.9258 55.2753 36.8484 55.3258C36.7726 55.3764 36.6913 55.4203 36.6067 55.4555C36.521 55.4906 36.4326 55.517 36.3425 55.5357C36.2524 55.5538 36.1595 55.5637 36.0684 55.5637Z" fill="black"/>
<path d="M28.181 36.6143H18.3301C17.5533 36.6143 16.9238 35.9847 16.9238 35.208C16.9238 34.4313 17.5533 33.8018 18.3301 33.8018H28.181C28.9577 33.8018 29.5872 34.4313 29.5872 35.208C29.5872 35.9847 28.9577 36.6143 28.181 36.6143Z" fill="#AAB0B8"/>
<path d="M28.181 44.8677H18.3301C17.5533 44.8677 16.9238 44.2376 16.9238 43.4614C16.9238 42.6847 17.5533 42.0552 18.3301 42.0552H28.181C28.9577 42.0552 29.5872 42.6847 29.5872 43.4614C29.5872 44.2376 28.9577 44.8677 28.181 44.8677Z" fill="#AAB0B8"/>
<path d="M28.181 53.1206H18.3301C17.5533 53.1206 16.9238 52.4911 16.9238 51.7144C16.9238 50.9376 17.5533 50.3081 18.3301 50.3081H28.181C28.9577 50.3081 29.5872 50.9376 29.5872 51.7144C29.5872 52.4911 28.9577 53.1206 28.181 53.1206Z" fill="#AAB0B8"/>
<path d="M53.8054 36.6143H43.9551C43.1783 36.6143 42.5488 35.9847 42.5488 35.208C42.5488 34.4313 43.1783 33.8018 43.9551 33.8018H53.8054C54.5822 33.8018 55.2117 34.4313 55.2117 35.208C55.2117 35.9847 54.5822 36.6143 53.8054 36.6143Z" fill="#AAB0B8"/>
<path d="M53.8054 44.8677H43.9551C43.1783 44.8677 42.5488 44.2376 42.5488 43.4614C42.5488 42.6847 43.1783 42.0552 43.9551 42.0552H53.8054C54.5822 42.0552 55.2117 42.6847 55.2117 43.4614C55.2117 44.2376 54.5822 44.8677 53.8054 44.8677Z" fill="#AAB0B8"/>
<path d="M53.8054 53.1206H43.9551C43.1783 53.1206 42.5488 52.4911 42.5488 51.7144C42.5488 50.9376 43.1783 50.3081 43.9551 50.3081H53.8054C54.5822 50.3081 55.2117 50.9376 55.2117 51.7144C55.2117 52.4911 54.5822 53.1206 53.8054 53.1206Z" fill="#AAB0B8"/>
<path d="M67.9169 27.4889H62.4853V4.33081C62.4853 1.94293 60.5413 0 58.1523 0H13.9834C11.5944 0 9.65094 1.94293 9.65094 4.33081V27.4889H4.21875C3.44202 27.4889 2.8125 28.119 2.8125 28.8951V61.4905C2.8125 64.8089 5.51294 67.5082 8.83301 67.5082H27.7427C29.5746 70.2988 32.6915 72 36.0681 72C39.4442 72 42.561 70.2988 44.393 67.5082H63.3032C66.6227 67.5082 69.3232 64.8089 69.3232 61.4905V28.8951C69.3232 28.1184 68.6937 27.4889 67.9169 27.4889ZM36.0681 61.3103C34.9871 59.8376 33.6434 58.0287 31.7845 58.0287H12.4634V27.0363H31.7845C32.1509 27.0363 32.4948 27.234 32.6816 27.5526C33.1512 28.353 33.8505 28.9391 34.6619 29.2429V47.0264C34.6619 47.8032 35.2914 48.4327 36.0681 48.4327C36.8448 48.4327 37.4744 47.8032 37.4744 47.0264V29.2434C38.2857 28.9391 38.985 28.353 39.4547 27.5526C39.6414 27.234 39.9853 27.0363 40.3517 27.0363H59.6728V58.0287H40.3511C38.4928 58.0287 37.1486 59.8376 36.0681 61.3103ZM17.4644 21.6277V13.1545C20.0012 12.542 21.9578 10.5216 22.4907 7.96948H49.645C50.1779 10.5216 52.1345 12.542 54.6718 13.1545V21.6277C53.0431 21.9963 51.6412 22.9103 50.7129 24.2238H40.3511C38.9916 24.2238 37.7183 24.9538 37.0289 26.1293C36.8311 26.4655 36.5098 26.6666 36.1681 26.6666H35.9676C35.6265 26.6666 35.3046 26.4655 35.1074 26.1293C34.4174 24.9538 33.1441 24.2238 31.7845 24.2238H21.4228C20.4944 22.9103 19.0926 21.9963 17.4644 21.6277ZM13.9834 2.8125H58.1523C58.9905 2.8125 59.6728 3.49365 59.6728 4.33081V24.2238H56.4099C57.0284 24.0743 57.4843 23.5173 57.4843 22.8571V11.9361C57.4843 11.1802 56.8867 10.5595 56.1313 10.5309C53.9907 10.4491 52.3136 8.70612 52.3136 6.56323C52.3136 5.7865 51.6835 5.15698 50.9073 5.15698H21.2289C20.4521 5.15698 19.8226 5.7865 19.8226 6.56323C19.8226 8.70612 18.145 10.4491 16.0043 10.5309C15.249 10.5595 14.6519 11.1802 14.6519 11.9361V22.8571C14.6519 23.5173 15.1078 24.0743 15.7264 24.2238H12.4634V4.33081C12.4634 3.49365 13.1451 2.8125 13.9834 2.8125ZM29.7773 65.434C29.5318 64.9792 29.0566 64.6957 28.5403 64.6957H8.83301C7.06421 64.6957 5.625 63.2582 5.625 61.4905V30.3014H9.65039V59.4349C9.65039 60.2117 10.2799 60.8412 11.0566 60.8412H31.7829C32.2586 60.873 33.4001 62.4287 33.8297 63.0143C34.1147 63.4021 34.3889 63.7762 34.6619 64.1025V69.0485C32.6003 68.636 30.8002 67.3286 29.7773 65.434ZM66.5107 61.4905C66.5107 63.2582 65.072 64.6957 63.3032 64.6957H43.5959C43.079 64.6957 42.6039 64.9792 42.3583 65.434C41.3355 67.3286 39.5354 68.636 37.4744 69.0485V64.1025C37.7474 63.7762 38.0215 63.4026 38.306 63.0143C38.7356 62.4287 39.8771 60.8736 40.3517 60.8412H61.079C61.8558 60.8412 62.4853 60.2117 62.4853 59.4349V30.3014H66.5112V61.4905H66.5107Z" fill="black"/>
</svg>
