<svg width="72" height="72" viewBox="0 0 72 72" fill="none" xmlns="http://www.w3.org/2000/svg">
<path d="M70.5451 35.2044L36.7951 1.45438C36.5842 1.24348 36.2981 1.125 35.9998 1.125C35.7015 1.125 35.4154 1.24348 35.2044 1.45438L1.45439 35.2044C1.2971 35.3617 1.18999 35.5621 1.1466 35.7803C1.10322 35.9985 1.12549 36.2247 1.21062 36.4302C1.29575 36.6358 1.43991 36.8115 1.62487 36.9351C1.80983 37.0587 2.02729 37.1247 2.24976 37.1248H7.87476V64.1248H6.74976C6.45139 64.1248 6.16524 64.2433 5.95427 64.4543C5.74329 64.6652 5.62476 64.9514 5.62476 65.2498V69.7498C5.62476 70.0481 5.74329 70.3343 5.95427 70.5452C6.16524 70.7562 6.45139 70.8748 6.74976 70.8748H65.2498C65.5481 70.8748 65.8343 70.7562 66.0453 70.5452C66.2562 70.3343 66.3748 70.0481 66.3748 69.7498V65.2498C66.3748 64.9514 66.2562 64.6652 66.0453 64.4543C65.8343 64.2433 65.5481 64.1248 65.2498 64.1248H64.1248V37.1248H69.7498C69.9722 37.1247 70.1897 37.0587 70.3747 36.9351C70.5596 36.8115 70.7038 36.6358 70.7889 36.4302C70.874 36.2247 70.8963 35.9985 70.8529 35.7803C70.8095 35.5621 70.7024 35.3617 70.5451 35.2044ZM64.1248 68.6248H7.87476V66.3748H64.1248V68.6248ZM10.1248 64.1248V36.4655L35.9998 10.5905L61.8748 36.4655V64.1248H10.1248ZM63.4655 34.8748L36.7951 8.20438C36.5842 7.99348 36.2981 7.875 35.9998 7.875C35.7015 7.875 35.4154 7.99348 35.2044 8.20438L8.53401 34.8748H4.96551L35.9998 3.84051L67.034 34.8748H63.4655Z" fill="#1D1D1F"/>
<path d="M46.125 43.875H40.5V40.5C40.5 40.2016 40.3815 39.9155 40.1705 39.7045C39.9595 39.4935 39.6734 39.375 39.375 39.375H32.625C32.3266 39.375 32.0405 39.4935 31.8295 39.7045C31.6185 39.9155 31.5 40.2016 31.5 40.5V43.875H25.875C24.9799 43.875 24.1214 44.2306 23.4885 44.8635C22.8556 45.4965 22.5 46.3549 22.5 47.25V51.75C22.5 52.0484 22.6185 52.3345 22.8295 52.5455C23.0405 52.7565 23.3266 52.875 23.625 52.875H24.75V60.75C24.75 61.0484 24.8685 61.3345 25.0795 61.5455C25.2905 61.7565 25.5766 61.875 25.875 61.875H46.125C46.4234 61.875 46.7095 61.7565 46.9205 61.5455C47.1315 61.3345 47.25 61.0484 47.25 60.75V52.875H48.375C48.6734 52.875 48.9595 52.7565 49.1705 52.5455C49.3815 52.3345 49.5 52.0484 49.5 51.75V47.25C49.5 46.3549 49.1444 45.4965 48.5115 44.8635C47.8785 44.2306 47.0201 43.875 46.125 43.875ZM33.75 41.625H38.25V43.875H33.75V41.625ZM45 59.625H27V52.875H32.625V56.25C32.625 56.5484 32.7435 56.8345 32.9545 57.0455C33.1655 57.2565 33.4516 57.375 33.75 57.375H38.25C38.5484 57.375 38.8345 57.2565 39.0455 57.0455C39.2565 56.8345 39.375 56.5484 39.375 56.25V52.875H45V59.625ZM34.875 52.875H37.125V55.125H34.875V52.875ZM47.25 50.625H24.75V47.25C24.75 46.9516 24.8685 46.6655 25.0795 46.4545C25.2905 46.2435 25.5766 46.125 25.875 46.125H46.125C46.4234 46.125 46.7095 46.2435 46.9205 46.4545C47.1315 46.6655 47.25 46.9516 47.25 47.25V50.625Z" fill="#A9AFB7"/>
<path d="M51.7493 34.8751H47.724C47.4257 34.8751 47.1395 34.7565 46.9285 34.5456C46.7175 34.3346 46.599 34.0484 46.599 33.7501C46.599 33.4517 46.7175 33.1655 46.9285 32.9546C47.1395 32.7436 47.4257 32.6251 47.724 32.6251H51.7493C51.936 32.625 52.1198 32.5784 52.2841 32.4895C52.4483 32.4006 52.5878 32.2723 52.6901 32.116C52.7923 31.9597 52.8541 31.7805 52.8697 31.5944C52.8854 31.4083 52.8545 31.2212 52.7798 31.0501C52.2814 29.9056 51.475 28.922 50.4505 28.2089C49.426 27.4957 48.2236 27.0811 46.9773 27.0111C45.731 26.9411 44.4897 27.2186 43.3918 27.8125C42.2939 28.4065 41.3825 29.2936 40.7591 30.3751H31.7141C31.0908 29.2936 30.1794 28.4065 29.0815 27.8125C27.9836 27.2186 26.7423 26.9411 25.496 27.0111C24.2497 27.0811 23.0473 27.4957 22.0228 28.2089C20.9983 28.922 20.1919 29.9056 19.6935 31.0501C19.6188 31.2212 19.5879 31.4083 19.6036 31.5944C19.6192 31.7805 19.681 31.9597 19.7832 32.116C19.8855 32.2723 20.025 32.4006 20.1892 32.4895C20.3535 32.5784 20.5373 32.625 20.724 32.6251H24.7493C25.0476 32.6251 25.3338 32.7436 25.5448 32.9546C25.7558 33.1655 25.8743 33.4517 25.8743 33.7501C25.8743 34.0484 25.7558 34.3346 25.5448 34.5456C25.3338 34.7565 25.0476 34.8751 24.7493 34.8751H20.724C20.5373 34.8752 20.3535 34.9217 20.1892 35.0106C20.025 35.0995 19.8855 35.2279 19.7832 35.3841C19.681 35.5404 19.6192 35.7197 19.6036 35.9058C19.5879 36.0918 19.6188 36.2789 19.6935 36.4501C20.1919 37.5945 20.9983 38.5781 22.0228 39.2913C23.0473 40.0044 24.2497 40.4191 25.496 40.489C26.7423 40.559 27.9836 40.2816 29.0815 39.6876C30.1794 39.0937 31.0908 38.2065 31.7141 37.1251H40.7591C41.3825 38.2065 42.2939 39.0937 43.3918 39.6876C44.4897 40.2816 45.731 40.559 46.9773 40.489C48.2236 40.4191 49.426 40.0044 50.4505 39.2913C51.475 38.5781 52.2814 37.5945 52.7798 36.4501C52.8545 36.2789 52.8854 36.0918 52.8697 35.9058C52.8541 35.7197 52.7923 35.5404 52.6901 35.3841C52.5878 35.2279 52.4483 35.0995 52.2841 35.0106C52.1198 34.9217 51.936 34.8752 51.7493 34.8751ZM46.599 38.2501C45.7242 38.2492 44.8686 37.9933 44.1369 37.5138C43.4052 37.0343 42.8292 36.3519 42.4793 35.5501C42.3918 35.3495 42.2477 35.1789 42.0646 35.059C41.8816 34.9391 41.6676 34.8752 41.4488 34.8751H31.0245C30.8057 34.8752 30.5917 34.9391 30.4087 35.059C30.2256 35.1789 30.0815 35.3495 29.994 35.5501C29.7115 36.1992 29.2796 36.7723 28.7333 37.2226C28.1871 37.673 27.5422 37.9878 26.8511 38.1414C26.1601 38.2949 25.4425 38.2829 24.7569 38.1063C24.0714 37.9297 23.4374 37.5934 22.9065 37.1251H24.7493C25.6444 37.1251 26.5028 36.7695 27.1358 36.1366C27.7687 35.5036 28.1243 34.6452 28.1243 33.7501C28.1243 32.855 27.7687 31.9965 27.1358 31.3636C26.5028 30.7306 25.6444 30.3751 24.7493 30.3751H22.9032C23.434 29.9067 24.068 29.5705 24.7536 29.3939C25.4391 29.2172 26.1567 29.2052 26.8477 29.3588C27.5388 29.5124 28.1838 29.8272 28.73 30.2775C29.2762 30.7278 29.7082 31.301 29.9907 31.9501C30.0782 32.1506 30.2223 32.3213 30.4053 32.4412C30.5883 32.561 30.8024 32.625 31.0212 32.6251H41.4454C41.6642 32.625 41.8782 32.561 42.0612 32.4412C42.2443 32.3213 42.3884 32.1506 42.4759 31.9501C42.7584 31.301 43.1904 30.7278 43.7366 30.2775C44.2828 29.8272 44.9277 29.5124 45.6188 29.3588C46.3099 29.2052 47.0274 29.2172 47.713 29.3939C48.3985 29.5705 49.0326 29.9067 49.5634 30.3751H47.7184C46.8233 30.3751 45.9648 30.7306 45.3319 31.3636C44.699 31.9965 44.3434 32.855 44.3434 33.7501C44.3434 34.6452 44.699 35.5036 45.3319 36.1366C45.9648 36.7695 46.8233 37.1251 47.7184 37.1251H49.5634C48.7451 37.8484 47.6911 38.2484 46.599 38.2501Z" fill="#0090D4"/>
</svg>
