<svg width="72" height="72" viewBox="0 0 72 72" fill="none" xmlns="http://www.w3.org/2000/svg">
<path d="M69.4204 11.5796L60.4204 2.57962C60.21 2.36812 59.9231 2.25 59.625 2.25H3.375C2.754 2.25 2.25 2.75288 2.25 3.375V68.625C2.25 69.2471 2.754 69.75 3.375 69.75H68.625C69.246 69.75 69.75 69.2471 69.75 68.625V12.375C69.75 12.0758 69.6319 11.79 69.4204 11.5796ZM4.5 67.5V4.5H59.1592L65.9092 11.25H60.75V7.875H58.5V12.375C58.5 12.9971 59.004 13.5 59.625 13.5H67.5V67.5H4.5Z" fill="#1D1D1F"/>
<path d="M34.875 7.875H37.125V64.125H34.875V7.875Z" fill="#1D1D1F"/>
<path d="M12.375 10.125C9.89325 10.125 7.875 12.1432 7.875 14.625C7.875 17.1068 9.89325 19.125 12.375 19.125C14.8568 19.125 16.875 17.1068 16.875 14.625C16.875 12.1432 14.8568 10.125 12.375 10.125ZM12.375 16.875C11.1341 16.875 10.125 15.8659 10.125 14.625C10.125 13.3841 11.1341 12.375 12.375 12.375C13.6159 12.375 14.625 13.3841 14.625 14.625C14.625 15.8659 13.6159 16.875 12.375 16.875Z" fill="#1D1D1F"/>
<path d="M18 16.875H31.5V19.125H18V16.875Z" fill="#1D1D1F"/>
<path d="M12.375 21.375C9.89325 21.375 7.875 23.3932 7.875 25.875C7.875 28.3568 9.89325 30.375 12.375 30.375C14.8568 30.375 16.875 28.3568 16.875 25.875C16.875 23.3932 14.8568 21.375 12.375 21.375ZM12.375 28.125C11.1341 28.125 10.125 27.1159 10.125 25.875C10.125 24.6341 11.1341 23.625 12.375 23.625C13.6159 23.625 14.625 24.6341 14.625 25.875C14.625 27.1159 13.6159 28.125 12.375 28.125Z" fill="#1D1D1F"/>
<path d="M18 28.125H31.5V30.375H18V28.125Z" fill="#1D1D1F"/>
<path d="M12.375 32.625C9.89325 32.625 7.875 34.6432 7.875 37.125C7.875 39.6068 9.89325 41.625 12.375 41.625C14.8568 41.625 16.875 39.6068 16.875 37.125C16.875 34.6432 14.8568 32.625 12.375 32.625ZM12.375 39.375C11.1341 39.375 10.125 38.3659 10.125 37.125C10.125 35.8841 11.1341 34.875 12.375 34.875C13.6159 34.875 14.625 35.8841 14.625 37.125C14.625 38.3659 13.6159 39.375 12.375 39.375Z" fill="#1D1D1F"/>
<path d="M18 39.375H31.5V41.625H18V39.375Z" fill="#1D1D1F"/>
<path d="M12.375 43.875C9.89325 43.875 7.875 45.8932 7.875 48.375C7.875 50.8568 9.89325 52.875 12.375 52.875C14.8568 52.875 16.875 50.8568 16.875 48.375C16.875 45.8932 14.8568 43.875 12.375 43.875ZM12.375 50.625C11.1341 50.625 10.125 49.6159 10.125 48.375C10.125 47.1341 11.1341 46.125 12.375 46.125C13.6159 46.125 14.625 47.1341 14.625 48.375C14.625 49.6159 13.6159 50.625 12.375 50.625Z" fill="#1D1D1F"/>
<path d="M18 50.625H31.5V52.875H18V50.625Z" fill="#1D1D1F"/>
<path d="M12.375 55.125C9.89325 55.125 7.875 57.1432 7.875 59.625C7.875 62.1068 9.89325 64.125 12.375 64.125C14.8568 64.125 16.875 62.1068 16.875 59.625C16.875 57.1432 14.8568 55.125 12.375 55.125ZM12.375 61.875C11.1341 61.875 10.125 60.8659 10.125 59.625C10.125 58.3841 11.1341 57.375 12.375 57.375C13.6159 57.375 14.625 58.3841 14.625 59.625C14.625 60.8659 13.6159 61.875 12.375 61.875Z" fill="#1D1D1F"/>
<path d="M18 61.875H31.5V64.125H18V61.875Z" fill="#1D1D1F"/>
<path d="M45 10.125C42.5182 10.125 40.5 12.1432 40.5 14.625C40.5 17.1068 42.5182 19.125 45 19.125C47.4818 19.125 49.5 17.1068 49.5 14.625C49.5 12.1432 47.4818 10.125 45 10.125ZM45 16.875C43.7591 16.875 42.75 15.8659 42.75 14.625C42.75 13.3841 43.7591 12.375 45 12.375C46.2409 12.375 47.25 13.3841 47.25 14.625C47.25 15.8659 46.2409 16.875 45 16.875Z" fill="#1D1D1F"/>
<path d="M50.625 16.875H64.125V19.125H50.625V16.875Z" fill="#1D1D1F"/>
<path d="M45 21.375C42.5182 21.375 40.5 23.3932 40.5 25.875C40.5 28.3568 42.5182 30.375 45 30.375C47.4818 30.375 49.5 28.3568 49.5 25.875C49.5 23.3932 47.4818 21.375 45 21.375ZM45 28.125C43.7591 28.125 42.75 27.1159 42.75 25.875C42.75 24.6341 43.7591 23.625 45 23.625C46.2409 23.625 47.25 24.6341 47.25 25.875C47.25 27.1159 46.2409 28.125 45 28.125Z" fill="#0090D4"/>
<path d="M50.625 28.125H64.125V30.375H50.625V28.125Z" fill="#0090D4"/>
<path d="M45 32.625C42.5182 32.625 40.5 34.6432 40.5 37.125C40.5 39.6068 42.5182 41.625 45 41.625C47.4818 41.625 49.5 39.6068 49.5 37.125C49.5 34.6432 47.4818 32.625 45 32.625ZM45 39.375C43.7591 39.375 42.75 38.3659 42.75 37.125C42.75 35.8841 43.7591 34.875 45 34.875C46.2409 34.875 47.25 35.8841 47.25 37.125C47.25 38.3659 46.2409 39.375 45 39.375Z" fill="#AAB0B8"/>
<path d="M50.625 39.375H64.125V41.625H50.625V39.375Z" fill="#AAB0B8"/>
<path d="M45 43.875C42.5182 43.875 40.5 45.8932 40.5 48.375C40.5 50.8568 42.5182 52.875 45 52.875C47.4818 52.875 49.5 50.8568 49.5 48.375C49.5 45.8932 47.4818 43.875 45 43.875ZM45 50.625C43.7591 50.625 42.75 49.6159 42.75 48.375C42.75 47.1341 43.7591 46.125 45 46.125C46.2409 46.125 47.25 47.1341 47.25 48.375C47.25 49.6159 46.2409 50.625 45 50.625Z" fill="#AAB0B8"/>
<path d="M50.625 50.625H64.125V52.875H50.625V50.625Z" fill="#AAB0B8"/>
<path d="M45 55.125C42.5182 55.125 40.5 57.1432 40.5 59.625C40.5 62.1068 42.5182 64.125 45 64.125C47.4818 64.125 49.5 62.1068 49.5 59.625C49.5 57.1432 47.4818 55.125 45 55.125ZM45 61.875C43.7591 61.875 42.75 60.8659 42.75 59.625C42.75 58.3841 43.7591 57.375 45 57.375C46.2409 57.375 47.25 58.3841 47.25 59.625C47.25 60.8659 46.2409 61.875 45 61.875Z" fill="#AAB0B8"/>
<path d="M50.625 61.875H64.125V64.125H50.625V61.875Z" fill="#AAB0B8"/>
</svg>
