<svg width="20" height="20" viewBox="0 0 20 20" fill="none" xmlns="http://www.w3.org/2000/svg">
<g opacity="0.5">
<path d="M9.50033 2C7.28894 2 5.49 3.85234 5.49 6.1295C5.49 8.4065 7.28894 10.258 9.50033 10.258C11.7116 10.258 13.5097 8.4065 13.5097 6.1295C13.5097 3.85234 11.7117 2 9.50033 2ZM9.50033 4.4195C10.4156 4.4195 11.1598 5.18698 11.1598 6.1295C11.1598 7.07163 10.4156 7.83851 9.50033 7.83851C8.58491 7.83851 7.83988 7.07165 7.83988 6.1295C7.83988 5.18698 8.58491 4.4195 9.50033 4.4195ZM6.194 10.3985C5.79723 10.3921 5.40706 10.5936 5.18073 10.965C4.83484 11.5309 5.00054 12.2776 5.54876 12.6335C6.2739 13.102 7.06077 13.4344 7.87679 13.626L5.63567 15.935C5.17688 16.4077 5.17726 17.1733 5.63615 17.646C5.86615 17.8819 6.16613 18 6.46686 18C6.76729 18 7.06828 17.8817 7.29758 17.6455L9.49938 15.377L11.7031 17.6455C12.1615 18.1181 12.9049 18.1181 13.3641 17.6455C13.8231 17.1731 13.8231 16.4067 13.3641 15.935L11.122 13.6265C11.9382 13.4349 12.7253 13.1023 13.45 12.6335C13.9993 12.2776 14.1652 11.5301 13.8195 10.965C13.4733 10.399 12.7485 10.2285 12.1988 10.585C10.5571 11.6485 8.44165 11.6478 6.8004 10.585C6.61148 10.4625 6.40183 10.4018 6.194 10.3985V10.3985Z" fill="white"/>
</g>
</svg>
