<svg width="24" height="31" viewBox="0 0 24 31" fill="none" xmlns="http://www.w3.org/2000/svg">
<path fill-rule="evenodd" clip-rule="evenodd" d="M15.638 23.4386C20.4869 21.8979 24 17.3592 24 12C24 5.37258 18.6274 0 12 0C5.37258 0 0 5.37258 0 12C0 17.3592 3.51313 21.8979 8.36204 23.4386L12 31L15.638 23.4386Z" fill="#0090D4"/>
<path d="M12 4C7.58897 4 4 7.58115 4 12C4 16.4188 7.58897 20 12 20C16.411 20 20 16.4188 20 12C20 7.58115 16.411 4 12 4ZM19.1178 10.4921C18.0551 10.0942 16.9524 9.88482 15.8296 9.88482C15.2281 9.86387 14.6466 9.96859 14.0852 10.199C14.2857 9.75916 14.386 9.27749 14.406 8.79581C14.4261 7.89529 13.985 6.84817 13.1228 6.40838C13.5238 6.86911 13.985 7.39267 13.985 8.20942C13.985 9.69633 13.3233 11.1204 12.6617 11.1204C11.9198 11.1204 11.5188 10.1152 11.5188 9.40314C11.5188 7.91623 12.4411 6.51309 13.2431 4.94241C16.1504 5.44503 18.4762 7.66492 19.1178 10.4921ZM10.817 4.92147C10.2757 6.26178 9.99499 7.68586 9.95489 9.15183C9.95489 9.67539 10.015 10.199 10.1554 10.7016C9.61404 10.2827 8.95238 10.0524 8.27068 10.0524C7.40852 10.0314 6.40601 10.4921 5.98496 11.3927C6.42606 10.9738 6.92732 10.4921 7.70927 10.4921C9.13283 10.4921 10.4962 11.1832 10.4962 11.8743C10.4962 12.6492 9.53383 13.0681 8.85213 13.0681C7.46867 13.0681 6.14536 12.1466 4.6817 11.3298C5.04261 8.06283 7.58897 5.42408 10.817 4.92147ZM13.7644 19.0576C14.2256 17.822 14.4862 16.5026 14.5063 15.1832C14.5063 14.7644 14.4662 14.3665 14.386 13.9686C14.9073 14.3455 15.5288 14.555 16.1704 14.555C17.0326 14.5759 18.0351 14.1152 18.4561 13.2147C18.015 13.6335 17.5138 14.1152 16.7318 14.1152C15.609 14.1152 14.5263 13.6963 14.1253 13.1728C14.0852 13.089 14.0451 13.0052 13.985 12.9215C13.9649 12.8586 13.9449 12.7958 13.9449 12.733C13.9449 11.9581 14.9073 11.5393 15.589 11.5393C16.812 11.5393 17.9749 12.2513 19.218 12.9843C18.8571 15.9372 16.6516 18.3455 13.7644 19.0576ZM16.01 11.2251C15.1679 11.2251 13.9449 11.6649 13.7644 12.6283C13.7444 12.712 13.7444 12.7749 13.7444 12.8586C13.7644 13.2147 13.9248 13.5288 14.1855 13.7592C14.2657 14.1361 14.3058 14.5131 14.3058 14.8901C14.3058 16.377 13.6842 17.801 13.0025 19.1832C12.6617 19.2251 12.3409 19.2461 12 19.2461C7.98998 19.2461 4.7619 16.0628 4.70175 12.1257C5.90476 12.7539 7.14787 13.3194 8.47118 13.3194C9.37343 13.3194 10.7368 12.7958 10.7368 11.6859V11.6649C10.7168 11.3717 10.5965 11.0785 10.396 10.8691C10.2556 10.3874 10.1754 9.88482 10.1754 9.3822C10.1754 7.79058 10.8772 6.28272 11.619 4.79581C11.7393 4.79581 11.8596 4.79581 11.9799 4.79581C12.1404 4.79581 12.3008 4.79581 12.4612 4.81675C11.8195 6.11518 11.2381 7.47644 11.2381 8.92147C11.2381 9.86387 11.7393 11.288 12.802 11.288C13.3033 11.288 13.7043 10.8901 14.005 10.3455C14.5063 10.1571 15.0476 10.0524 15.5689 10.0733C16.8321 10.0733 18.0351 10.5969 19.218 11.2042C19.2581 11.4764 19.2581 11.7487 19.2581 12.0209C19.2581 12.0628 19.2581 12.0838 19.2581 12.1257C18.2356 11.644 17.1529 11.2251 16.01 11.2251Z" fill="white"/>
</svg>
