<svg width="14" height="14" viewBox="0 0 14 14" fill="none" xmlns="http://www.w3.org/2000/svg">
<path d="M2.5 2C2.10218 2 1.72064 2.15156 1.43934 2.42135C1.15804 2.69113 1 3.05704 1 3.43858L1 12.6404C1.00002 12.7116 1.02204 12.7812 1.0633 12.8403C1.10455 12.8995 1.16318 12.9455 1.23175 12.9727C1.30032 12.9999 1.37577 13.007 1.44853 12.993C1.52129 12.9791 1.5881 12.9447 1.6405 12.8943L3.78025 10.8422C3.92087 10.7073 4.1116 10.6315 4.3105 10.6315H11.5C11.8978 10.6315 12.2794 10.4799 12.5607 10.2101C12.842 9.94032 13 9.57442 13 9.19288V3.43858C13 3.05704 12.842 2.69113 12.5607 2.42135C12.2794 2.15156 11.8978 2 11.5 2H2.5Z" fill="#0090D4"/>
</svg>
