<svg width="16" height="15" viewBox="0 0 16 15" fill="none" xmlns="http://www.w3.org/2000/svg">
<path d="M7.2088 0.90273C7.50159 0.198765 8.49884 0.198764 8.79163 0.902729L10.1797 4.24002C10.3031 4.53679 10.5822 4.73957 10.9026 4.76525L14.5055 5.05409C15.2655 5.11502 15.5736 6.06346 14.9946 6.55946L12.2496 8.91086C12.0055 9.11996 11.8989 9.44805 11.9735 9.7607L12.8121 13.2765C12.989 14.0181 12.1822 14.6043 11.5316 14.2069L8.44701 12.3228C8.17271 12.1553 7.82773 12.1553 7.55343 12.3228L4.46886 14.2069C3.8182 14.6043 3.01141 14.0181 3.18831 13.2765L4.02696 9.7607C4.10154 9.44805 3.99494 9.11996 3.75083 8.91086L1.00581 6.55946C0.426783 6.06346 0.734947 5.11502 1.49494 5.05409L5.09782 4.76525C5.41821 4.73957 5.69731 4.53679 5.82074 4.24002L7.2088 0.90273Z" fill="white"/>
</svg>
