<svg width="12" height="12" viewBox="0 0 12 12" fill="none" xmlns="http://www.w3.org/2000/svg">
<path d="M7.45943 0C8.26343 0 8.66543 0.5472 8.66543 1.1742C8.66543 1.9572 7.96703 2.6814 7.05803 2.6814C6.29663 2.6814 5.85263 2.2314 5.87363 1.4874C5.87363 0.8616 6.40223 0 7.45943 0ZM4.98563 12C4.35083 12 3.88583 11.6088 4.32983 9.8856L5.05823 6.8304C5.18483 6.342 5.20583 6.1458 5.05823 6.1458C4.86803 6.1458 4.04483 6.483 3.55703 6.816L3.24023 6.288C4.78343 4.9764 6.55883 4.2078 7.32083 4.2078C7.95503 4.2078 8.06063 4.9716 7.74383 6.1458L6.90923 9.357C6.76163 9.924 6.82463 10.1196 6.97283 10.1196C7.16303 10.1196 7.78703 9.8844 8.40023 9.3954L8.76023 9.8838C7.25903 11.412 5.61923 12 4.98563 12Z" fill="white"/>
</svg>
