<svg width="20" height="20" viewBox="0 0 20 20" fill="none" xmlns="http://www.w3.org/2000/svg">
<g opacity="0.5">
<path d="M17.9825 5.7125C18.0991 5.325 17.9825 5.04083 17.4308 5.04083H15.6033C15.1383 5.04083 14.9258 5.28667 14.8091 5.55667C14.8091 5.55667 13.88 7.8225 12.5633 9.29167C12.1383 9.71917 11.9441 9.85417 11.7125 9.85417C11.5966 9.85417 11.4283 9.71917 11.4283 9.33167V5.7125C11.4283 5.2475 11.2941 5.04083 10.9066 5.04083H8.03496C7.74496 5.04083 7.56996 5.25583 7.56996 5.46083C7.56996 5.90083 8.22829 6.0025 8.29579 7.2425V9.9325C8.29579 10.5217 8.18996 10.6292 7.95663 10.6292C7.33746 10.6292 5.83079 8.355 4.93663 5.75167C4.76246 5.24583 4.58663 5.04167 4.11996 5.04167H2.29329C1.77079 5.04167 1.66663 5.2875 1.66663 5.5575C1.66663 6.0425 2.28579 8.4425 4.55079 11.6167C6.06079 13.7842 8.18663 14.9592 10.1233 14.9592C11.2841 14.9592 11.4275 14.6983 11.4275 14.2483V12.61C11.4275 12.0883 11.5383 11.9833 11.9058 11.9833C12.1758 11.9833 12.6408 12.12 13.725 13.1642C14.9633 14.4025 15.1683 14.9583 15.8641 14.9583H17.6908C18.2125 14.9583 18.4733 14.6975 18.3233 14.1825C18.1591 13.67 17.5675 12.9242 16.7825 12.0417C16.3558 11.5383 15.7183 10.9967 15.5241 10.7258C15.2533 10.3767 15.3316 10.2225 15.5241 9.9125C15.525 9.91333 17.7508 6.77833 17.9825 5.7125Z" fill="white"/>
</g>
</svg>
