<svg width="169" height="40" viewBox="0 0 169 40" fill="none" xmlns="http://www.w3.org/2000/svg">
<g clip-path="url(#clip0)">
<path d="M53.7197 19.1622C52.932 18.5339 51.8818 18.1674 50.8316 18.2198C50.2539 18.2198 49.6763 18.3245 49.0987 18.4816V18.2198H43.9525L42.8498 30.8376H48.0484L48.7311 22.8271C48.7836 22.7748 48.7836 22.7748 48.8361 22.7748C48.9936 22.6701 49.1512 22.6177 49.3087 22.6177C49.4137 22.6177 49.5188 22.6701 49.6238 22.7224L48.8886 30.8376H54.0873L54.875 21.78C54.875 21.6753 54.875 21.5706 54.875 21.5182C54.875 20.5758 54.4549 19.6858 53.7197 19.1622ZM53.9823 21.6753L53.2471 29.8952H49.8863L50.5165 22.7224C50.569 22.4606 50.4115 22.1465 50.2014 21.9894C49.9389 21.78 49.6238 21.6753 49.3087 21.6753C48.9411 21.6753 48.6261 21.78 48.3635 21.9894C48.1009 22.1465 47.9434 22.4083 47.8909 22.7224L47.2608 29.8952H43.9L44.8452 19.1098H48.206L48.1009 20.157C48.8361 19.4763 49.8863 19.0575 50.8841 19.1098C51.7243 19.0575 52.5119 19.3716 53.1946 19.8428C53.7197 20.2617 54.0348 20.9423 53.9823 21.6753Z" fill="#0090D4"/>
<path d="M20.9522 0C9.39961 0 0 8.95288 0 20C0 31.0471 9.39961 40 20.9522 40C32.5048 40 41.9044 31.0471 41.9044 20C41.9044 8.95288 32.5048 0 20.9522 0ZM39.5939 16.2304C36.8108 15.2356 33.9226 14.712 30.982 14.712C29.4066 14.6597 27.8838 14.9215 26.4134 15.4974C26.9386 14.3979 27.2011 13.1937 27.2536 11.9895C27.3061 9.73822 26.1509 7.12042 23.8929 6.02094C24.9431 7.17278 26.1509 8.48168 26.1509 10.5236C26.1509 14.2408 24.418 17.801 22.6851 17.801C20.7422 17.801 19.6919 15.288 19.6919 13.5079C19.6919 9.79058 22.1075 6.28272 24.2079 2.35602C31.8221 3.61257 37.9135 9.1623 39.5939 16.2304ZM17.854 2.30367C16.4362 5.65445 15.701 9.21466 15.596 12.8796C15.596 14.1885 15.7535 15.4974 16.1211 16.7539C14.7033 15.7068 12.9704 15.1309 11.185 15.1309C8.92701 15.0785 6.30142 16.2304 5.19867 18.4817C6.35393 17.4346 7.66672 16.2304 9.71468 16.2304C13.443 16.2304 17.0138 17.9581 17.0138 19.6859C17.0138 21.623 14.4933 22.6702 12.7079 22.6702C9.08454 22.6702 5.61876 20.3665 1.7854 18.3246C2.73061 10.1571 9.39961 3.56021 17.854 2.30367ZM25.5732 37.644C26.781 34.555 27.4637 31.2565 27.5162 27.9581C27.5162 26.911 27.4112 25.9162 27.2011 24.9215C28.5664 25.8639 30.1943 26.3874 31.8747 26.3874C34.1327 26.4398 36.7583 25.288 37.861 23.0366C36.7057 24.0838 35.393 25.288 33.345 25.288C30.4043 25.288 27.5687 24.2408 26.5185 22.9319C26.4134 22.7225 26.3084 22.5131 26.1509 22.3037C26.0984 22.1466 26.0459 21.9895 26.0459 21.8325C26.0459 19.8953 28.5664 18.8482 30.3518 18.8482C33.555 18.8482 36.6007 20.6283 39.8565 22.4607C38.9112 29.8429 33.1349 35.8639 25.5732 37.644ZM31.4546 18.0628C29.2491 18.0628 26.0459 19.1623 25.5732 21.5707C25.5207 21.7801 25.5207 21.9372 25.5207 22.1466C25.5732 23.0366 25.9933 23.822 26.676 24.3979C26.886 25.3403 26.9911 26.2827 26.9911 27.2251C26.9911 30.9424 25.3632 34.5026 23.5778 37.9581C22.6851 38.0628 21.8449 38.1152 20.9522 38.1152C10.4498 38.1152 1.99545 30.1571 1.83791 20.3141C4.98862 21.8848 8.24435 23.2984 11.7101 23.2984C14.0732 23.2984 17.644 21.9895 17.644 19.2147V19.1623C17.5915 18.4293 17.2764 17.6963 16.7513 17.1728C16.3837 15.9686 16.1736 14.712 16.1736 13.4555C16.1736 9.47644 18.0115 5.70681 19.9545 1.98953C20.2696 1.98953 20.5846 1.98953 20.8997 1.98953C21.3198 1.98953 21.7399 1.98953 22.16 2.04188C20.4796 5.28796 18.9568 8.6911 18.9568 12.3037C18.9568 14.6597 20.2696 18.2199 23.0527 18.2199C24.3655 18.2199 25.4157 17.2251 26.2034 15.8639C27.5162 15.3927 28.934 15.1309 30.2993 15.1832C33.6076 15.1832 36.7583 16.4921 39.8565 18.0105C39.9615 18.6911 39.9615 19.3717 39.9615 20.0524C39.9615 20.1571 39.9615 20.2094 39.9615 20.3141C37.2834 19.1099 34.4477 18.0628 31.4546 18.0628Z" fill="#0090D4"/>
<path d="M78.0326 21.8326L77.5074 27.7488C77.4024 28.5341 76.9823 29.2148 76.2997 29.6336C75.5645 30.1572 74.6718 30.419 73.7266 30.419C72.7289 30.4713 71.7311 30.1048 71.0485 29.3718L70.7859 32.6179H67.2676L68.4754 19.1624H71.9937L71.8887 20.2095C72.6764 19.4765 73.7266 19.1101 74.7768 19.1624C75.6695 19.1101 76.5097 19.4242 77.1924 19.9477C77.77 20.419 78.1376 21.1519 78.0326 21.8326ZM74.4618 22.932C74.4618 22.6179 74.3567 22.3561 74.0942 22.1467C73.8316 21.9373 73.464 21.8326 73.0964 21.8326C72.7289 21.8326 72.3613 21.9373 72.0987 22.1467C71.8362 22.3038 71.6261 22.5655 71.6261 22.932L71.311 26.7017C71.2585 27.0158 71.4161 27.2776 71.6786 27.487C71.9412 27.6964 72.3088 27.8012 72.6238 27.8012C72.9914 27.8012 73.359 27.6964 73.6741 27.487C73.9366 27.3299 74.1467 27.0682 74.1467 26.7017L74.4618 22.932Z" fill="#0090D4"/>
<path d="M88.1672 19.1626L87.9047 21.8851H85.1215L84.3339 30.4715H80.8156L81.6032 21.8851H78.7676L79.0302 19.1626H88.1672Z" fill="#0090D4"/>
<path d="M99.1424 19.1626L98.1446 30.4715H94.5738L94.9939 26.126H92.2108L91.7907 30.4715H88.2724L89.2701 19.1626H92.7884L92.4208 23.4558H95.2565L95.6241 19.1626H99.1424Z" fill="#0090D4"/>
<path d="M120.62 21.8326L120.094 27.7488C119.989 28.5341 119.569 29.2148 118.887 29.6336C118.152 30.1572 117.259 30.419 116.314 30.419C115.316 30.4713 114.318 30.1048 113.636 29.3718L113.373 32.6179H109.855L111.062 19.1624H114.581L114.476 20.2095C115.263 19.4765 116.314 19.1101 117.364 19.1624C118.257 19.1101 119.097 19.4242 119.779 19.9477C120.357 20.419 120.672 21.1519 120.62 21.8326ZM116.996 22.932C117.049 22.6179 116.891 22.3561 116.629 22.1467C116.366 21.9373 115.999 21.8326 115.631 21.8326C115.263 21.8326 114.896 21.9373 114.633 22.1467C114.371 22.3038 114.161 22.6179 114.161 22.932L113.846 26.7017C113.793 27.0158 113.951 27.2776 114.213 27.487C114.476 27.6964 114.843 27.8012 115.158 27.8012C115.526 27.8012 115.894 27.6964 116.209 27.487C116.471 27.3299 116.681 27.0158 116.681 26.7017L116.996 22.932Z" fill="#0090D4"/>
<path d="M130.229 22.9319C129.547 22.4083 128.707 22.1465 127.866 22.1465C126.816 22.0942 125.818 22.513 125.031 23.1936L125.346 19.1099H121.932L120.935 30.4188H124.348L124.453 29.3716C125.136 30.1046 126.081 30.4711 127.079 30.4188C127.971 30.4188 128.864 30.157 129.599 29.6334C130.229 29.2146 130.702 28.5339 130.754 27.801L131.017 24.7643C131.122 24.0837 130.807 23.4031 130.229 22.9319ZM127.446 27.4868C127.394 27.801 127.236 28.0627 126.974 28.2198C126.659 28.4292 126.343 28.5339 125.976 28.5339C125.661 28.5339 125.293 28.4292 125.031 28.2198C124.768 28.0627 124.663 27.7486 124.716 27.4868L124.873 25.4973C124.926 25.1832 125.083 24.9214 125.346 24.7643C125.608 24.5549 125.976 24.4502 126.343 24.4502C126.711 24.4502 127.026 24.5549 127.289 24.7643C127.499 24.9214 127.656 25.2355 127.604 25.4973L127.446 27.4868Z" fill="#0090D4"/>
<path d="M136.111 19.1626H132.697L131.7 30.4715H135.06L136.111 19.1626Z" fill="#0090D4"/>
<path d="M59.6008 6.07361C58.6556 5.18356 57.3428 4.66 56.03 4.76471C54.7697 4.71235 53.5094 5.07885 52.4592 5.81183C51.514 5.07885 50.4112 4.71235 49.2034 4.76471C48.1007 4.76471 46.9454 5.02649 46.0002 5.60241C45.2125 6.12597 44.7399 6.91131 44.5824 7.80136L43.8472 16.3877H48.4683V16.126C48.4683 16.126 49.0984 9.47675 49.0984 8.95319L49.1509 8.90083C49.2034 8.84848 49.2034 8.79612 49.2559 8.74377C49.361 8.69141 49.5185 8.63905 49.676 8.63905C49.8336 8.63905 49.9386 8.69141 50.0961 8.74377L50.1486 8.79612L49.466 16.3354H54.1395V16.0736C54.1395 16.0736 54.7697 8.90083 54.8222 8.90083C54.8222 8.84848 54.8222 8.79612 54.8747 8.74377C55.0322 8.69141 55.2423 8.63905 55.3998 8.63905C55.5049 8.63905 55.6099 8.69141 55.7674 8.69141L55.1898 16.283H59.6533L59.7058 15.6024C59.7058 15.55 60.2309 9.63382 60.3359 8.42963C60.3359 8.27256 60.3359 8.16785 60.3359 8.01078C60.3359 7.33015 60.0734 6.64953 59.6008 6.07361ZM59.5483 8.42963C59.3907 9.68618 58.9181 15.6548 58.9181 15.6548H55.9775L56.5026 8.90083C56.5551 8.63905 56.4501 8.37727 56.2925 8.22021C56.03 8.11549 55.7149 8.01078 55.3998 8.01078C55.0848 8.01078 54.7172 8.11549 54.4546 8.22021C54.2446 8.37727 54.087 8.63905 54.087 8.90083L53.4569 15.6548H50.3587L50.9888 8.90083C51.0413 8.69141 50.8313 8.42963 50.6738 8.22021C50.1486 7.90607 49.466 7.90607 48.9409 8.22021C48.7308 8.37727 48.5733 8.63905 48.4683 8.90083L47.8381 15.6548H44.7399L45.4226 7.95843C45.5276 7.2778 45.9477 6.64953 46.5253 6.23068C47.3655 5.75947 48.3107 5.55005 49.3085 5.55005C50.6738 5.55005 51.9866 6.02125 52.5117 6.91131C53.1418 5.9689 54.4546 5.55005 56.0825 5.55005C57.7104 5.55005 59.8108 6.23068 59.5483 8.42963Z" fill="#0090D4"/>
<path d="M67.6875 9.16227H64.9044L64.9569 8.63871C65.0094 8.32458 65.167 8.01044 65.4295 7.85337C65.6921 7.64395 66.0597 7.53924 66.4273 7.53924C66.7948 7.53924 67.1099 7.64395 67.3725 7.85337C67.635 8.01044 67.74 8.32458 67.6875 8.63871V9.16227ZM69.9981 5.81149C69.0528 5.02615 67.8976 4.6073 66.6898 4.65965C65.4295 4.65965 64.1692 5.02615 63.1715 5.81149C62.2263 6.43976 61.6487 7.48688 61.5437 8.58636L61.1761 12.5654C61.0711 13.6125 61.5437 14.6597 62.3838 15.3403C63.3291 16.1256 64.4843 16.5445 65.6921 16.4921C66.9524 16.4921 68.2127 16.1256 69.2104 15.3403C70.1556 14.712 70.7332 13.6649 70.8382 12.5654H67.3725C67.32 12.8795 67.1624 13.1937 66.8999 13.3508C66.5848 13.5602 66.2697 13.6649 65.9021 13.6649C65.5346 13.6649 65.2195 13.5602 64.9569 13.3508C64.6944 13.1413 64.5893 12.8795 64.5893 12.5654L64.6419 11.9895H70.8908L71.2058 8.58636C71.3109 7.53924 70.8382 6.54447 69.9981 5.81149ZM121.985 9.21463H119.202L119.569 5.02615H116.156L115.158 16.1256H118.624L118.992 11.8848H121.722L121.355 16.1256H124.82L125.818 5.02615H122.352L121.985 9.21463ZM143.882 5.02615L140.784 8.95285L141.099 5.02615H137.686L136.688 16.1256H140.154L140.521 11.8848H141.887C142.202 11.8848 142.569 11.9895 142.832 12.1989C143.042 12.356 143.2 12.6701 143.2 12.9319L142.884 16.1256H146.35L146.718 11.8848C146.77 11.2565 146.56 10.6806 146.14 10.2617C145.668 9.73819 144.985 9.42405 144.302 9.31934L147.716 5.02615H143.882V5.02615ZM135.06 5.81149C134.167 5.02615 132.96 4.6073 131.752 4.65965C130.492 4.65965 129.231 5.02615 128.234 5.81149C127.288 6.43976 126.711 7.48688 126.606 8.63871L126.291 12.6178C126.186 13.7172 126.658 14.7644 127.498 15.445C128.391 16.2303 129.599 16.6492 130.807 16.5968C132.067 16.5968 133.327 16.2303 134.325 15.445C135.27 14.7644 135.848 13.7696 135.953 12.6178L136.005 12.0419H132.54L132.487 12.5654C132.435 12.8795 132.277 13.1937 132.014 13.3508C131.752 13.5602 131.384 13.6649 131.017 13.6649C130.702 13.6649 130.334 13.5602 130.072 13.3508C129.809 13.1413 129.704 12.8795 129.704 12.5654L130.019 8.58636C130.072 8.27222 130.229 7.95808 130.492 7.80102C130.754 7.59159 131.122 7.48688 131.489 7.48688C131.857 7.48688 132.172 7.59159 132.435 7.80102C132.697 8.01044 132.802 8.27222 132.75 8.58636V9.16227H136.215L136.268 8.58636C136.32 7.53924 135.9 6.49212 135.06 5.81149ZM154.017 12.4607L154.647 5.0785H158.113L157.115 16.178H153.649L153.754 15.1309C152.967 15.8638 151.969 16.2303 150.866 16.178C150.026 16.2303 149.186 15.9162 148.503 15.3926C147.926 14.9738 147.611 14.2408 147.663 13.5078L148.398 5.02615H151.811L151.181 12.4083C151.129 12.7225 151.286 12.9843 151.496 13.1413C151.759 13.3508 152.074 13.4555 152.442 13.4555C152.809 13.4555 153.124 13.3508 153.439 13.1413C153.859 13.0366 154.017 12.7225 154.017 12.4607ZM110.905 12.4607C110.852 12.7748 110.695 13.0366 110.432 13.1937C110.117 13.4031 109.802 13.5078 109.434 13.5078C109.119 13.5078 108.752 13.4031 108.489 13.1937C108.227 13.0366 108.122 12.7225 108.174 12.4607L108.804 5.0785H105.338L104.603 13.5602C104.551 14.2932 104.866 14.9738 105.444 15.445C106.126 15.9686 106.966 16.2303 107.807 16.2303C108.857 16.2827 109.907 15.9162 110.695 15.1832L110.59 16.2303H114.055L115.053 5.13086H111.587L110.905 12.4607ZM103.238 12.4607L103.868 5.0785H100.402L99.7722 12.4083C99.7197 12.7225 99.5622 12.9843 99.2996 13.1413C98.9846 13.3508 98.6695 13.4555 98.3019 13.4555C97.9868 13.4555 97.6193 13.3508 97.3567 13.1413C97.0941 12.9843 96.9891 12.6701 97.0416 12.4083L97.6718 5.02615H94.206L93.4708 13.5078C93.4183 14.2408 93.7334 14.9738 94.311 15.3926C94.9937 15.9162 95.8339 16.178 96.6741 16.178C98.0919 16.0209 99.4047 15.4973 100.56 14.6073C100.56 14.6073 100.717 16.1256 103.973 16.2827C103.973 15.8638 103.973 16.2827 104.236 13.979C103.186 13.9267 103.238 12.4083 103.238 12.4607ZM165.097 9.16227H162.314L162.366 8.63871C162.419 8.32458 162.576 8.01044 162.839 7.85337C163.101 7.64395 163.469 7.53924 163.837 7.53924C164.204 7.53924 164.519 7.64395 164.782 7.85337C165.044 8.01044 165.149 8.32458 165.097 8.63871V9.16227ZM167.46 5.81149C166.515 5.02615 165.359 4.6073 164.099 4.65965C162.839 4.65965 161.579 5.02615 160.581 5.81149C159.636 6.43976 159.058 7.48688 158.953 8.58636L158.585 12.5131C158.48 13.5602 158.953 14.6073 159.793 15.2879C160.738 16.0733 161.894 16.4921 163.101 16.4398C164.362 16.4398 165.622 16.0733 166.62 15.2879C167.565 14.6597 168.143 13.6125 168.248 12.5131H164.782C164.729 12.8272 164.572 13.1413 164.309 13.2984C163.994 13.5078 163.679 13.6125 163.312 13.6125C162.944 13.6125 162.629 13.5078 162.366 13.2984C162.104 13.089 161.999 12.8272 162.051 12.5131L162.104 11.9371H168.3L168.615 8.534C168.72 7.53924 168.248 6.54447 167.46 5.81149ZM78.1899 12.4083C78.1374 12.7225 77.9798 12.9843 77.7173 13.1413C77.4022 13.3508 77.0872 13.4555 76.7196 13.4555C76.352 13.4555 75.3543 13.4031 75.3543 13.4031L75.8794 7.64395C75.8794 7.64395 76.8246 7.59159 77.1922 7.59159C77.5598 7.59159 77.8748 7.6963 78.1374 7.90573C78.3999 8.0628 78.505 8.37693 78.4525 8.63871L78.1899 12.4083ZM81.2356 5.75913C80.5529 5.23557 79.7127 4.97379 78.8725 4.97379H72.6762L71.6784 16.0733H77.8748C78.7675 16.0733 79.6602 15.8115 80.3954 15.2879C81.0255 14.8691 81.4981 14.1884 81.5507 13.4031L82.0758 7.59159C82.1283 6.91096 81.8132 6.23034 81.2356 5.75913ZM88.9548 12.4083C88.9023 12.7225 88.7448 12.9843 88.4822 13.1413C88.1671 13.3508 87.8521 13.4555 87.4845 13.4555C87.1694 13.4555 86.8018 13.3508 86.5393 13.1413C86.2767 12.9843 86.1717 12.6701 86.2242 12.4083L86.8543 5.02615H83.3886L82.6534 13.5078C82.6009 14.2408 82.916 14.9214 83.4936 15.3926C84.1762 15.9162 85.0164 16.178 85.8566 16.178C86.9069 16.2303 87.9571 15.8638 88.7448 15.1309L88.6397 16.178H92.1055L93.1032 5.0785H89.6375L88.9548 12.4083Z" fill="#0090D4"/>
<path d="M109.592 22.7226L109.277 26.0734H103.081L103.028 26.6493C102.976 26.9634 103.133 27.2776 103.343 27.4346C103.606 27.6441 103.921 27.7488 104.288 27.7488C104.656 27.7488 105.024 27.6441 105.286 27.4346C105.549 27.2252 105.706 26.9634 105.759 26.6493H109.225C109.12 27.7488 108.542 28.7959 107.597 29.4242C106.599 30.2095 105.339 30.6283 104.078 30.576C102.871 30.6283 101.663 30.2095 100.77 29.4242C99.93 28.7435 99.4574 27.6964 99.5624 26.6493L99.8775 22.7226C99.9825 21.6231 100.56 20.576 101.505 19.9477C102.503 19.1624 103.763 18.7435 105.024 18.7959C106.231 18.7435 107.439 19.1624 108.332 19.9477C109.225 20.576 109.645 21.6231 109.592 22.7226ZM106.126 22.7226C106.179 22.4084 106.021 22.1467 105.811 21.9372C105.549 21.7278 105.181 21.6231 104.866 21.6231C104.498 21.6231 104.183 21.7278 103.868 21.9372C103.606 22.0943 103.396 22.4084 103.396 22.7226L103.343 23.2461H106.126V22.7226Z" fill="#0090D4"/>
<path fill-rule="evenodd" clip-rule="evenodd" d="M61.8063 18.377C63.119 18.3246 64.4318 18.7958 65.4821 19.6335C66.3748 20.3142 66.8999 21.3089 66.9524 22.4084C66.8999 22.5131 66.8999 22.6702 66.8999 22.8273L66.2172 30.6807H61.1236L61.1761 30.3665C60.651 30.5759 60.0734 30.6807 59.4957 30.6807C58.498 30.6807 57.5003 30.2618 56.7651 29.6335C56.03 29.11 55.6099 28.2199 55.6099 27.2775V27.2252L56.0825 22.7225C56.135 21.466 56.8176 20.2618 57.9204 19.6335C58.7081 19.0576 59.5482 18.6911 60.4935 18.4817C60.9136 18.4293 61.3862 18.377 61.8063 18.377ZM65.4296 29.7906L66.0072 22.7225C66.1647 21.8325 65.7446 20.8901 65.0095 20.4189C64.1168 19.6859 63.014 19.267 61.8588 19.3194C61.5962 19.3194 61.2811 19.3194 60.9661 19.3718C60.0734 19.5288 59.2332 19.843 58.498 20.3665C57.6053 20.8377 57.0277 21.7801 57.0277 22.7749L56.5551 27.3299C56.5551 28.0105 56.8701 28.5864 57.3953 29.0053C57.9729 29.5288 58.7606 29.843 59.5482 29.843C60.0209 29.843 60.4935 29.7906 60.9661 29.5812C61.4387 29.3718 61.8588 29.11 62.2789 28.7435L62.1738 29.7906H65.4296ZM63.014 22.7749C63.014 22.4084 62.8565 21.9896 62.5414 21.7801C62.2789 21.5707 61.9113 21.5184 61.5962 21.5707H61.3337C60.5985 21.5184 60.0209 22.0943 59.9683 22.7749L59.6008 26.2304C59.6533 27.0157 60.2834 27.5917 61.0711 27.5917H61.3337C62.0163 27.4869 62.5939 27.0157 62.7515 26.3351V26.2828L63.014 22.7749ZM61.2286 26.6492C61.5437 26.6492 61.8588 26.3875 61.9113 26.0733C61.9113 25.9163 62.1213 22.8273 62.1738 22.8273C62.1738 22.5131 61.9113 22.4084 61.5962 22.4084C61.3862 22.4084 60.9136 22.4608 60.9136 22.7225V22.8273C60.9136 22.8273 60.546 26.1257 60.546 26.2304C60.5985 26.4398 60.9136 26.6492 61.1236 26.6492H61.2286Z" fill="#0090D4"/>
</g>
<defs>
<clipPath id="clip0">
<rect width="168.615" height="40" fill="white"/>
</clipPath>
</defs>
</svg>
