<svg width="129" height="128" viewBox="0 0 129 128" fill="none" xmlns="http://www.w3.org/2000/svg">
<g clip-path="url(#clip0)">
<path d="M127.377 50.3598C127.332 50.3598 127.287 50.3458 127.249 50.3196L65.1446 7.06815C64.9556 6.93714 64.7311 6.86713 64.5011 6.86752C64.2711 6.86791 64.0468 6.93869 63.8582 7.07035L2.20099 50.3191C2.15222 50.3533 2.09187 50.3668 2.0332 50.3565C1.97452 50.3462 1.92234 50.313 1.88814 50.2642C1.85393 50.2155 1.8405 50.1551 1.85079 50.0964C1.86109 50.0378 1.89427 49.9856 1.94304 49.9514L63.6003 6.70258C63.8643 6.5183 64.1784 6.41923 64.5004 6.4187C64.8223 6.41817 65.1367 6.5162 65.4013 6.69962L127.506 49.9509C127.545 49.9783 127.575 50.0174 127.59 50.0627C127.606 50.1079 127.606 50.1569 127.592 50.2026C127.577 50.2482 127.549 50.288 127.51 50.3163C127.472 50.3446 127.425 50.3598 127.377 50.3598L127.377 50.3598Z" fill="#A9AFB7"/>
<path d="M5.72412 51.8927L64.562 8.28662L123.846 54.9955L67.5936 88.3429L37.0532 81.3815L5.72412 51.8927Z" fill="#F2F2F5"/>
<path d="M39.6312 108.94H10.5639C10.3854 108.941 10.2086 108.906 10.0436 108.837C9.87867 108.769 9.72876 108.669 9.60247 108.543C9.47618 108.417 9.376 108.267 9.30764 108.102C9.23929 107.938 9.2041 107.761 9.2041 107.582C9.2041 107.404 9.23929 107.227 9.30764 107.062C9.376 106.897 9.47618 106.748 9.60247 106.621C9.72876 106.495 9.87867 106.395 10.0436 106.327C10.2086 106.259 10.3854 106.224 10.5639 106.224H39.6312C39.8097 106.224 39.9865 106.259 40.1514 106.327C40.3164 106.395 40.4663 106.495 40.5926 106.621C40.7189 106.748 40.8191 106.897 40.8874 107.062C40.9558 107.227 40.991 107.404 40.991 107.582C40.991 107.761 40.9558 107.938 40.8874 108.102C40.8191 108.267 40.7189 108.417 40.5926 108.543C40.4663 108.669 40.3164 108.769 40.1514 108.837C39.9865 108.906 39.8097 108.941 39.6312 108.94Z" fill="#0090D4"/>
<path d="M20.9926 103.102H10.5639C10.3854 103.102 10.2086 103.067 10.0436 102.999C9.87867 102.931 9.72876 102.831 9.60247 102.705C9.47618 102.578 9.376 102.429 9.30764 102.264C9.23929 102.099 9.2041 101.922 9.2041 101.744C9.2041 101.565 9.23929 101.389 9.30764 101.224C9.376 101.059 9.47618 100.909 9.60247 100.783C9.72876 100.657 9.87867 100.557 10.0436 100.489C10.2086 100.42 10.3854 100.386 10.5639 100.386H20.9926C21.1711 100.386 21.3478 100.42 21.5128 100.489C21.6778 100.557 21.8277 100.657 21.954 100.783C22.0803 100.909 22.1804 101.059 22.2488 101.224C22.3172 101.389 22.3523 101.565 22.3523 101.744C22.3523 101.922 22.3172 102.099 22.2488 102.264C22.1804 102.429 22.0803 102.578 21.954 102.705C21.8277 102.831 21.6778 102.931 21.5128 102.999C21.3478 103.067 21.1711 103.102 20.9926 103.102Z" fill="#0090D4"/>
<path d="M65.3892 76.1809C65.1683 76.1811 64.9494 76.1382 64.7449 76.0547L28.4578 60.998V13.8683C28.4582 13.4516 28.624 13.052 28.9187 12.7573C29.2134 12.4626 29.6129 12.2969 30.0297 12.2964H99.6439C100.061 12.2969 100.46 12.4626 100.755 12.7573C101.05 13.052 101.215 13.4516 101.216 13.8683V61.0309L101.148 61.0601L66.053 76.0473C65.8429 76.1356 65.6172 76.181 65.3892 76.1809Z" fill="white"/>
<path d="M65.3894 76.293C65.1538 76.2933 64.9205 76.2476 64.7024 76.1586L28.3457 61.073V13.8683C28.3462 13.4218 28.5238 12.9937 28.8396 12.6779C29.1553 12.3622 29.5834 12.1846 30.0299 12.1841H99.6441C100.091 12.1846 100.519 12.3622 100.834 12.6779C101.15 12.9937 101.328 13.4218 101.328 13.8683V61.105L66.0973 76.1505C65.8732 76.2448 65.6325 76.2932 65.3894 76.293ZM28.7948 60.773L64.8736 75.7433C65.2101 75.8799 65.587 75.8776 65.9219 75.7371L100.879 60.8085V13.8683C100.879 13.5408 100.749 13.2269 100.517 12.9954C100.285 12.7638 99.9716 12.6336 99.6441 12.6332H30.0299C29.7025 12.6336 29.3886 12.7638 29.157 12.9954C28.9255 13.2269 28.7952 13.5408 28.7948 13.8683L28.7948 60.773Z" fill="#A9AFB7"/>
<path d="M126.928 49.9106H126.883L101.104 60.9187L65.8316 75.98C65.6938 76.038 65.5459 76.0683 65.3964 76.069C65.2468 76.0698 65.0986 76.0411 64.9602 75.9845L28.57 60.8872L2.157 49.9286L2.11665 49.9106H2.07169C1.65493 49.9111 1.25537 50.0769 0.960674 50.3716C0.665979 50.6663 0.500218 51.0658 0.499756 51.4826V119.749C0.500219 120.166 0.665979 120.566 0.960674 120.86C1.25537 121.155 1.65493 121.321 2.07169 121.321H126.928C127.345 121.321 127.744 121.155 128.039 120.86C128.334 120.566 128.5 120.166 128.5 119.749V51.4826C128.5 51.0658 128.334 50.6663 128.039 50.3716C127.744 50.0769 127.345 49.9111 126.928 49.9106ZM128.051 119.749C128.051 120.047 127.932 120.333 127.722 120.543C127.511 120.754 127.226 120.872 126.928 120.872H2.07169C1.77394 120.872 1.48842 120.754 1.27788 120.543C1.06733 120.333 0.948999 120.047 0.94888 119.749V51.4826C0.949287 51.1922 1.06192 50.9133 1.26322 50.704C1.46452 50.4948 1.73891 50.3714 2.02904 50.3598L28.57 61.3723L64.7874 76.4C65.1795 76.5595 65.6188 76.5571 66.009 76.3932L101.104 61.406L126.973 50.3598C127.263 50.3723 127.536 50.496 127.737 50.7051C127.938 50.9142 128.05 51.1927 128.051 51.4826V119.749Z" fill="#A9AFB7"/>
<path d="M61.0105 26.9464C64.3409 26.194 67.8253 26.5382 70.944 27.9279C71.7007 28.265 72.5875 27.9249 72.9247 27.1682C73.2618 26.4115 72.9217 25.5247 72.165 25.1876C68.4553 23.5346 64.3107 23.1252 60.3493 24.0202C56.3879 24.9152 52.822 27.0668 50.1833 30.1541C47.5446 33.2413 45.9745 37.0988 45.7073 41.1513C45.4401 45.2038 46.49 49.234 48.7005 52.641C50.9109 56.0481 54.1635 58.6493 57.9731 60.0567C61.7827 61.4641 65.9452 61.6024 69.8398 60.4509C73.7344 59.2994 77.1524 56.9198 79.5841 53.667C82.0158 50.4142 83.3309 46.4625 83.3332 42.4012V40.8057C83.3332 39.9773 82.6616 39.3057 81.8332 39.3057C81.0048 39.3057 80.3332 39.9773 80.3332 40.8057V42.3995C80.3312 45.8139 79.2256 49.1361 77.1813 51.8707C75.1369 54.6054 72.2634 56.6059 68.9892 57.574C65.7149 58.5421 62.2155 58.4259 59.0128 57.2426C55.81 56.0594 53.0755 53.8725 51.2172 51.0082C49.3588 48.1439 48.4762 44.7556 48.7008 41.3487C48.9255 37.9418 50.2454 34.6987 52.4638 32.1032C54.6821 29.5077 57.6801 27.6989 61.0105 26.9464Z" fill="#0090D4"/>
<path d="M82.8945 29.5936C83.48 29.0075 83.4795 28.0577 82.8934 27.4722C82.3073 26.8868 81.3576 26.8872 80.7721 27.4733L64.4994 43.7623L60.3606 39.6234C59.7748 39.0377 58.8251 39.0377 58.2393 39.6234C57.6535 40.2092 57.6535 41.159 58.2393 41.7448L63.4393 46.9448C63.7207 47.2262 64.1024 47.3842 64.5003 47.3841C64.8983 47.384 65.2799 47.2258 65.5611 46.9442L82.8945 29.5936Z" fill="#0090D4"/>
</g>
<defs>
<clipPath id="clip0">
<rect width="128" height="128" fill="white" transform="translate(0.5)"/>
</clipPath>
</defs>
</svg>
