<svg width="18" height="20" viewBox="0 0 18 20" fill="none" xmlns="http://www.w3.org/2000/svg">
<path d="M11.0801 14.6095C13.8956 13.7149 15.9355 11.0795 15.9355 7.96774C15.9355 4.11956 12.8159 1 8.96774 1C5.11956 1 2 4.11956 2 7.96774C2 11.0795 4.03988 13.7149 6.85538 14.6095L8.96774 19L11.0801 14.6095Z" fill="#0090D4"/>
<path d="M8.96773 3.32275C6.40649 3.32275 4.32257 5.40213 4.32257 7.96792C4.32257 10.5337 6.40649 12.6131 8.96773 12.6131C11.529 12.6131 13.6129 10.5337 13.6129 7.96792C13.6129 5.40213 11.529 3.32275 8.96773 3.32275ZM13.1006 7.09239C12.4836 6.86135 11.8433 6.73974 11.1914 6.73974C10.8421 6.72758 10.5045 6.78838 10.1785 6.92215C10.2949 6.66678 10.3531 6.3871 10.3648 6.10742C10.3764 5.58453 10.1203 4.97653 9.61968 4.72117C9.85252 4.98869 10.1203 5.29269 10.1203 5.76694C10.1203 6.6303 9.7361 7.45719 9.35192 7.45719C8.92116 7.45719 8.68832 6.87351 8.68832 6.46006C8.68832 5.59669 9.22386 4.78197 9.68954 3.86996C11.3776 4.1618 12.7281 5.45077 13.1006 7.09239ZM8.28085 3.8578C7.96652 4.63605 7.80353 5.46293 7.78025 6.31414C7.78025 6.61814 7.81517 6.92215 7.89667 7.21399C7.58233 6.97079 7.19815 6.83702 6.80232 6.83702C6.30171 6.82486 5.71961 7.09239 5.47513 7.61527C5.73125 7.37207 6.0223 7.09239 6.47634 7.09239C7.30292 7.09239 8.09458 7.49367 8.09458 7.89495C8.09458 8.34488 7.53576 8.58808 7.13994 8.58808C6.33664 8.58808 5.56827 8.05304 4.7184 7.57879C4.92796 5.68181 6.40649 4.14964 8.28085 3.8578ZM9.99223 12.0659C10.26 11.3484 10.4113 10.5823 10.423 9.81625C10.423 9.57305 10.3997 9.34201 10.3531 9.11096C10.6558 9.32985 11.0167 9.45145 11.3893 9.45145C11.8899 9.46361 12.472 9.19609 12.7165 8.6732C12.4603 8.9164 12.1693 9.19609 11.7152 9.19609C11.0633 9.19609 10.4346 8.95288 10.2018 8.64888C10.1785 8.60024 10.1552 8.5516 10.1203 8.50296C10.1086 8.46648 10.097 8.43 10.097 8.39352C10.097 7.94359 10.6558 7.70039 11.0517 7.70039C11.7618 7.70039 12.437 8.11384 13.1589 8.53944C12.9493 10.254 11.6687 11.6524 9.99223 12.0659ZM11.2961 7.51799C10.8072 7.51799 10.097 7.77335 9.99223 8.33272C9.98059 8.38136 9.98059 8.41784 9.98059 8.46648C9.99223 8.6732 10.0854 8.8556 10.2367 8.98936C10.2833 9.20825 10.3066 9.42713 10.3066 9.64601C10.3066 10.5094 9.94566 11.3363 9.54983 12.1388C9.35192 12.1632 9.16565 12.1753 8.96773 12.1753C6.63933 12.1753 4.76497 10.327 4.73004 8.04088C5.42856 8.40568 6.15037 8.734 6.91874 8.734C7.44263 8.734 8.23429 8.43 8.23429 7.78551V7.77335C8.22264 7.60311 8.15279 7.43287 8.03637 7.31127C7.95488 7.03159 7.90831 6.73974 7.90831 6.4479C7.90831 5.52373 8.31578 4.64821 8.74653 3.78484C8.81639 3.78484 8.88624 3.78484 8.95609 3.78484C9.04923 3.78484 9.14236 3.78484 9.2355 3.797C8.86295 4.55092 8.52534 5.34133 8.52534 6.18038C8.52534 6.72758 8.81639 7.55447 9.43341 7.55447C9.72446 7.55447 9.9573 7.32343 10.1319 7.00727C10.423 6.89783 10.7373 6.83702 11.04 6.84918C11.7735 6.84918 12.472 7.15319 13.1589 7.50583C13.1821 7.66391 13.1821 7.82199 13.1821 7.98007C13.1821 8.0044 13.1821 8.01656 13.1821 8.04088C12.5884 7.76119 11.9597 7.51799 11.2961 7.51799Z" fill="white"/>
</svg>
