<svg width="582" height="582" viewBox="0 0 582 582" fill="none" xmlns="http://www.w3.org/2000/svg">
<circle cx="291.002" cy="291.001" r="189.13" fill="#C8E4F9"/>
<circle cx="291.003" cy="290.565" r="239.565" stroke="#C8E4F9" stroke-width="2"/>
<circle cx="291" cy="291" r="290" stroke="#C8E4F9" stroke-width="2"/>
<circle cx="291" cy="52" r="10" fill="#C8E4F9"/>
<path d="M291 46L291 58" stroke="white" stroke-width="2"/>
<path d="M297 52L285 52" stroke="white" stroke-width="2"/>
<circle cx="33" cy="159" r="10" fill="#C8E4F9"/>
<path d="M33 153L33 165" stroke="white" stroke-width="2"/>
<path d="M39 159L27 159" stroke="white" stroke-width="2"/>
<circle cx="531" cy="291" r="10" fill="#C8E4F9"/>
<path d="M531 285L531 297" stroke="white" stroke-width="2"/>
<path d="M537 291L525 291" stroke="white" stroke-width="2"/>
<circle cx="55" cy="328" r="16" fill="#0090D4"/>
<path d="M55 322L55 334" stroke="white" stroke-width="2"/>
<path d="M61 328L49 328" stroke="white" stroke-width="2"/>
<circle cx="521" cy="114" r="16" fill="#0090D4"/>
<path d="M521 108L521 120" stroke="white" stroke-width="2"/>
<path d="M527 114L515 114" stroke="white" stroke-width="2"/>
<circle cx="148" cy="38" r="16" fill="#0090D4"/>
<path d="M148 32L148 44" stroke="white" stroke-width="2"/>
<path d="M154 38L142 38" stroke="white" stroke-width="2"/>
</svg>
