<svg width="373" height="325" viewBox="0 0 373 325" fill="none" xmlns="http://www.w3.org/2000/svg">
<path opacity="0.9" d="M242.877 3.46559C250.571 0.778055 258.747 -0.373746 266.634 0.106171C306.646 2.60174 331.75 37.6357 339.156 74.1094C349.833 127.092 322.805 181.419 284.813 217.221C283.562 218.373 282.312 219.524 281.061 220.676C241.53 255.806 188.629 273.755 136.209 275.195C103.218 276.155 64.0712 265.02 42.3338 238.913C19.5382 211.654 24.636 149.936 68.0148 147.057C85.7126 145.905 102.16 152.24 119.184 155.791C142.749 160.686 168.43 155.983 187.763 141.298C226.237 112.215 191.611 59.04 215.176 24.198C221.524 14.5037 231.623 7.40091 242.877 3.46559Z" fill="white"/>
<path d="M186.5 325C289.501 325 373 320.144 373 314.154C373 308.164 289.501 303.308 186.5 303.308C83.4989 303.308 0 308.164 0 314.154C0 320.144 83.4989 325 186.5 325Z" fill="#E8E8EB"/>
<path d="M340.779 283.919C340.971 282.959 344.337 259.731 337.508 251.765C335.969 250.037 334.142 249.077 331.93 248.981C318.272 248.693 316.444 259.539 316.444 259.731L318.079 260.019C318.175 259.635 319.714 250.421 331.93 250.709C333.661 250.709 335.104 251.477 336.354 252.916C342.606 260.403 339.24 283.535 339.24 283.823L340.779 283.919Z" fill="#0090D4"/>
<path d="M341.644 282.863L343.279 282.767C343.279 282.575 342.702 261.459 353.186 257.044C363.382 252.724 367.998 261.555 368.191 261.939L369.634 261.171C369.537 261.075 364.151 250.613 352.513 255.508C341.067 260.403 341.644 281.903 341.644 282.863Z" fill="#0090D4"/>
<path d="M341.548 284.495C341.548 284.111 341.644 250.709 348.185 240.918C354.437 231.512 364.536 235.927 365.017 236.119L365.69 234.68C365.594 234.584 353.859 229.496 346.838 240.055C340.009 250.229 339.913 283.151 339.913 284.495H341.548Z" fill="#0090D4"/>
<path d="M330.006 249.749C330.006 249.749 335.969 251.957 334.142 257.14C332.411 262.323 313.559 270.769 313.559 270.769C313.559 270.769 305.671 263.571 312.885 251.861C320.195 240.151 329.91 246.102 330.006 249.749Z" fill="#0073AA"/>
<path d="M348.473 239.191C348.473 239.191 344.241 238.711 344.626 236.215C345.011 233.624 361.073 227.097 370.499 237.751C370.499 237.751 364.44 248.117 355.687 248.309C346.934 248.309 348.473 239.191 348.473 239.191Z" fill="#0073AA"/>
<path d="M352.801 256.372C352.801 256.372 349.916 254.068 352.994 252.916C356.168 251.765 371.557 252.053 371.75 267.314C371.75 267.314 353.763 270.289 351.551 264.53C349.435 258.579 352.801 256.372 352.801 256.372Z" fill="#0073AA"/>
<path d="M326.832 314.922H354.725L357.707 284.495H323.85L326.832 314.922Z" fill="#80C7E9"/>
<path d="M322.405 287.878H359.244V281.159H322.405V287.878Z" fill="#33A6DD"/>
<path d="M295.284 293.133L267.583 290.446V251.573H256.618V290.446L228.821 293.133C226.031 293.421 223.915 295.725 223.915 298.509V302.636H261.042H263.062H300.189V298.509C300.189 295.725 298.073 293.421 295.284 293.133Z" fill="#515B60"/>
<path d="M226.801 315.018C230.785 315.018 234.015 311.795 234.015 307.819C234.015 303.843 230.785 300.62 226.801 300.62C222.817 300.62 219.587 303.843 219.587 307.819C219.587 311.795 222.817 315.018 226.801 315.018Z" fill="#263238"/>
<path d="M297.207 315.018C301.191 315.018 304.421 311.795 304.421 307.819C304.421 303.843 301.191 300.62 297.207 300.62C293.223 300.62 289.994 303.843 289.994 307.819C289.994 311.795 293.223 315.018 297.207 315.018Z" fill="#263238"/>
<path d="M265.467 259.923H258.638C256.425 259.923 254.694 258.1 254.694 255.988V225.369H269.506V255.988C269.506 258.1 267.679 259.923 265.467 259.923Z" fill="#676F74"/>
<path d="M288.358 164.516C288.358 164.516 290.474 216.347 275.951 225.273H292.494C292.494 225.273 305.287 207.612 301.632 164.516H288.358V164.516Z" fill="#676F74"/>
<path d="M228.917 218.074H293.264C295.957 218.074 298.073 220.186 298.073 222.874V229.304H224.108V222.874C224.108 220.186 226.32 218.074 228.917 218.074Z" fill="#263238"/>
<path d="M222.954 223.641H299.227C300.285 223.641 301.151 224.505 301.151 225.561V227.289C301.151 228.345 300.285 229.208 299.227 229.208H222.954C221.896 229.208 221.03 228.345 221.03 227.289V225.561C221.03 224.505 221.896 223.641 222.954 223.641Z" fill="#A8ADAF"/>
<path d="M305.672 175.074H279.221C271.43 175.074 265.178 168.835 265.178 161.06V150.694C265.178 142.919 271.43 136.68 279.221 136.68H305.672C313.462 136.68 319.714 142.919 319.714 150.694V161.06C319.714 168.835 313.462 175.074 305.672 175.074Z" fill="#263238"/>
<path d="M199.004 94.3517L193.714 80.4341C193.714 80.4341 196.022 78.3225 194.387 76.2109C192.848 74.0992 183.134 68.1483 181.306 69.2041C179.575 70.2599 175.631 74.1952 177.747 76.4028C179.863 78.6105 189.289 82.2578 189.289 82.2578L194.002 100.495L199.004 94.3517Z" fill="#F2C3B5"/>
<path d="M235.938 120.843C235.938 120.843 211.892 115.948 209.296 114.7C206.699 113.548 196.984 85.2333 196.984 85.2333L189.578 88.6887C189.578 88.6887 195.541 117.004 201.601 123.819C207.66 130.538 233.726 136.297 233.726 136.297L235.938 120.843Z" fill="#0090D4"/>
<path opacity="0.2" d="M233.822 136.297C233.822 136.297 233.63 136.297 233.341 136.201C231.995 135.913 227.955 134.953 223.05 133.513C215.163 131.209 205.16 127.754 201.697 123.819C195.637 117.1 189.674 88.6887 189.674 88.6887L197.08 85.2333C197.08 85.2333 206.795 113.452 209.392 114.7C211.989 115.852 236.035 120.843 236.035 120.843L233.822 136.297Z" fill="black"/>
<path d="M197.176 84.7534L198.619 87.6329L189.097 90.8964L189.482 87.345L197.176 84.7534Z" fill="#0090D4"/>
<path opacity="0.2" d="M234.015 135.913C232.668 135.721 228.532 135.049 223.531 133.993C226.416 129.098 234.688 126.602 234.688 126.602L234.015 135.913Z" fill="black"/>
<path d="M269.795 101.263C269.795 101.263 271.238 114.508 266.236 117.772C261.331 121.035 237.093 117.196 234.303 111.917C231.514 106.542 241.902 92.0482 241.902 92.0482L269.795 101.263Z" fill="#263238"/>
<path d="M171.688 275.952L178.036 277.392L181.21 268.754L184.095 260.787L176.882 257.716L174.092 267.314L171.688 275.952Z" fill="#F2C3B5"/>
<path opacity="0.2" d="M174.092 267.314L181.21 268.754L184.095 260.787L176.882 257.716L174.092 267.314Z" fill="black"/>
<path d="M174.766 262.707L183.518 265.97C183.518 265.97 206.891 207.612 211.7 207.42C216.509 207.228 265.467 229.688 277.778 217.211C290.09 204.733 272.296 174.786 272.296 174.786C272.296 174.786 242.767 170.563 240.555 177.281C240.074 178.529 239.69 181.121 239.305 183.232C238.92 185.248 238.728 186.976 238.728 186.976C237.862 186.784 208.141 179.105 196.503 186.976C184.673 194.942 174.766 262.707 174.766 262.707Z" fill="#0090D4"/>
<path opacity="0.6" d="M174.766 262.707L183.518 265.97C183.518 265.97 206.891 207.612 211.7 207.42C216.509 207.228 265.467 229.688 277.778 217.211C290.09 204.733 272.296 174.786 272.296 174.786C272.296 174.786 242.767 170.563 240.555 177.281C240.074 178.529 239.69 181.121 239.305 183.232C238.92 185.248 238.728 186.976 238.728 186.976C237.862 186.784 208.141 179.105 196.503 186.976C184.673 194.942 174.766 262.707 174.766 262.707Z" fill="white"/>
<path d="M225.262 300.812L231.514 299.18L230.264 290.158L229.206 281.903L221.415 282.575L223.435 292.27L225.262 300.812Z" fill="#F2C3B5"/>
<path opacity="0.2" d="M223.435 292.462L230.36 290.35L229.206 281.999L221.415 282.671L223.435 292.462Z" fill="black"/>
<path d="M187.173 262.803L174.381 258.387L173.804 263.667L183.518 267.026L187.173 262.803Z" fill="#0090D4"/>
<path d="M256.618 220.186C256.618 220.186 254.598 220.186 223.627 218.746C223.627 218.746 228.244 257.332 230.744 286.319L221.511 287.854C221.511 287.854 199.389 225.945 199.581 216.059C199.773 206.172 211.123 203.389 211.123 203.389C211.123 203.389 233.245 216.155 256.618 220.186Z" fill="#0090D4"/>
<path opacity="0.6" d="M256.618 220.186C256.618 220.186 254.598 220.186 223.627 218.746C223.627 218.746 228.244 257.332 230.744 286.319L221.511 287.854C221.511 287.854 199.389 225.945 199.581 216.059C199.773 206.172 211.123 203.389 211.123 203.389C211.123 203.389 233.245 216.155 256.618 220.186Z" fill="white"/>
<path opacity="0.1" d="M256.618 220.186C256.618 220.186 254.598 220.186 223.627 218.746C223.627 218.746 228.244 257.332 230.744 286.319L221.511 287.854C221.511 287.854 199.389 225.945 199.581 216.059C199.773 206.172 211.123 203.389 211.123 203.389C211.123 203.389 233.245 216.155 256.618 220.186Z" fill="black"/>
<path d="M232.187 283.535L219.395 284.975L221.896 289.966L232.187 288.622V283.535Z" fill="#0090D4"/>
<path opacity="0.1" d="M238.728 186.88L256.041 190.431C256.041 190.431 246.519 185.152 239.305 183.136C239.016 185.248 238.728 186.88 238.728 186.88Z" fill="black"/>
<path d="M271.622 170.179L272.296 174.786L240.555 177.185L239.786 171.81L271.622 170.179Z" fill="#263238"/>
<path opacity="0.2" d="M271.622 170.179L272.296 174.786L240.555 177.185L239.786 171.81L271.622 170.179Z" fill="black"/>
<path d="M261.575 177.82L263.105 177.662L262.289 169.737L260.758 169.894L261.575 177.82Z" fill="#0090D4"/>
<path d="M247.601 177.064L254.512 176.621L254.173 171.353L247.262 171.796L247.601 177.064Z" fill="white"/>
<path d="M242.157 178.667L243.688 178.51L242.871 170.585L241.341 170.743L242.157 178.667Z" fill="#0090D4"/>
<path opacity="0.6" d="M261.575 177.82L263.105 177.662L262.289 169.737L260.758 169.894L261.575 177.82Z" fill="white"/>
<path opacity="0.6" d="M242.157 178.667L243.688 178.51L242.871 170.585L241.341 170.743L242.157 178.667Z" fill="white"/>
<path d="M235.361 120.363C235.361 120.363 243.441 122.859 253.636 122.379C263.832 121.899 275.951 126.794 275.951 126.794L271.622 170.179L239.786 171.81C239.786 171.81 229.013 135.529 235.361 120.363Z" fill="#0090D4"/>
<path d="M240.459 95.8875C240.459 95.8875 242.286 74.8671 259.888 82.4498C282.01 92.0481 264.409 117.676 253.636 112.493C242.767 107.214 240.459 95.8875 240.459 95.8875Z" fill="#263238"/>
<path opacity="0.2" d="M245.364 123.531L245.845 135.433L249.789 129.866C249.789 129.866 248.346 143.015 249.212 150.214C249.212 150.214 249.981 137.352 251.713 129.866L255.945 135.433L262.004 123.627C262.1 123.627 252.29 120.171 245.364 123.531Z" fill="black"/>
<path d="M250.847 125.738L259.984 123.147C254.406 119.307 257.195 110.669 257.195 110.669L248.154 113.836C248.635 115.372 248.923 116.62 249.116 117.676C250.077 123.339 247.48 123.723 247.48 123.723L250.847 125.738Z" fill="#F2C3B5"/>
<path opacity="0.2" d="M248.154 113.836C248.635 115.372 248.923 116.62 249.116 117.676C253.444 115.948 257.195 110.669 257.195 110.669L248.154 113.836Z" fill="black"/>
<path d="M254.021 86.865C246.038 85.1373 242.479 88.7847 240.074 96.9433C237.093 107.022 237.766 114.892 248.25 114.892C262.485 114.892 267.39 89.8405 254.021 86.865Z" fill="#F2C3B5"/>
<path d="M245.364 97.6152C245.364 97.6152 243.825 99.4389 242.286 100.399C242.286 100.399 242.767 101.646 244.21 101.742L245.364 97.6152Z" fill="#DE5753"/>
<path d="M250.462 98.0951C250.27 98.767 250.558 99.3429 250.943 99.4388C251.424 99.5348 251.905 99.1509 252.001 98.479C252.193 97.8071 251.905 97.2312 251.52 97.1352C251.039 96.9433 250.558 97.4232 250.462 98.0951Z" fill="#263238"/>
<path d="M251.712 97.1353L250.462 96.2714C250.366 96.2714 250.847 97.6152 251.712 97.1353Z" fill="#263238"/>
<path d="M242.383 95.8875C242.19 96.5594 242.479 97.1353 242.864 97.2313C243.344 97.3273 243.825 96.9433 243.922 96.2715C244.114 95.5996 243.825 95.0237 243.441 94.9277C242.96 94.8317 242.479 95.2156 242.383 95.8875Z" fill="#263238"/>
<path d="M243.633 95.0236L242.382 94.1598C242.286 94.0638 242.767 95.5036 243.633 95.0236Z" fill="#263238"/>
<path d="M251.712 92.5281C251.712 92.5281 254.021 92.72 254.887 94.5437" stroke="#263238" stroke-width="0.7247" stroke-miterlimit="10" stroke-linecap="round" stroke-linejoin="round"/>
<path d="M246.038 90.8964C246.038 90.8964 244.787 90.0325 242.671 90.8964" stroke="#263238" stroke-width="0.7247" stroke-miterlimit="10" stroke-linecap="round" stroke-linejoin="round"/>
<path d="M259.792 102.318C259.792 102.318 257.483 94.9277 259.215 90.0325C259.215 90.0325 244.787 80.0502 240.459 95.9835C240.459 95.9835 242.094 81.394 255.945 84.0815C269.795 86.7691 265.274 106.926 256.81 111.341C256.81 111.149 261.235 106.926 259.792 102.318Z" fill="#263238"/>
<path d="M258.157 103.662C258.541 102.414 260.273 100.495 262.677 101.263C265.082 102.126 265.178 107.405 258.734 107.31C257.772 107.31 257.483 106.35 258.157 103.662Z" fill="#F2C3B5"/>
<path d="M242.767 104.814C243.056 105.87 243.152 107.789 243.152 107.789C243.345 107.789 243.537 107.789 243.633 107.885C246.038 108.077 247.192 107.406 247.769 106.542C248.058 106.062 248.25 105.582 248.25 105.198C248.346 104.718 248.25 104.334 248.25 104.334C246.903 105.006 244.691 105.006 243.441 104.91C243.152 104.814 242.767 104.814 242.767 104.814Z" fill="#263238"/>
<path d="M243.633 104.91L243.825 105.774C246.038 105.966 247.673 105.774 248.442 105.198C248.538 104.718 248.442 104.334 248.442 104.334C247.096 104.91 244.787 104.91 243.633 104.91Z" fill="white"/>
<path d="M243.729 107.885C246.134 108.077 247.288 107.406 247.865 106.542C247.096 106.542 246.038 106.542 245.172 106.83C244.499 107.022 244.018 107.406 243.729 107.885Z" fill="#DE5753"/>
<path d="M254.117 87.5369C254.117 87.5369 254.406 101.359 262.774 103.086C271.142 104.718 262.004 85.2333 262.004 85.2333C262.004 85.2333 249.596 77.1707 241.325 82.8337C233.053 88.4968 240.459 95.8875 240.459 95.8875C240.459 95.8875 242.19 85.6173 254.117 87.5369Z" fill="#263238"/>
<path d="M254.406 86.5771C254.406 86.5771 251.424 95.3116 257.291 99.9188" stroke="#263238" stroke-width="0.5" stroke-miterlimit="10" stroke-linecap="round" stroke-linejoin="round"/>
<path d="M265.178 105.87C264.12 108.653 261.427 110.285 259.119 109.421C256.81 108.557 255.848 105.582 256.906 102.798C257.964 100.015 260.658 98.3831 262.966 99.2469C265.274 100.111 266.236 103.086 265.178 105.87Z" fill="#00567F"/>
<path d="M262.485 101.263C262.485 101.263 265.948 85.8092 258.157 81.7779C258.157 81.7779 259.792 81.9699 260.754 82.2578C261.716 82.5458 267.967 88.7847 264.793 102.702L262.485 101.263Z" fill="#0073AA"/>
<path d="M247.961 110.093C247.769 110.093 247.577 109.997 247.384 109.997L247.577 109.037C254.502 110.189 259.696 106.446 259.792 106.446L260.369 107.214C260.177 107.405 255.079 111.053 247.961 110.093Z" fill="#008ACC"/>
<path d="M264.89 105.486C264.216 107.31 262.389 108.365 260.85 107.789C259.311 107.214 258.638 105.294 259.407 103.374C260.08 101.55 261.908 100.495 263.447 101.071C264.89 101.646 265.563 103.662 264.89 105.486Z" fill="#0090D4"/>
<path d="M247.096 110.381L246.326 110.285C245.749 110.189 245.364 109.709 245.461 109.133C245.557 108.557 246.038 108.173 246.615 108.269L247.384 108.365C247.961 108.461 248.346 108.941 248.25 109.517C248.25 110.093 247.673 110.477 247.096 110.381Z" fill="#00567F"/>
<path d="M257.58 119.883L251.809 125.546L254.117 132.361L262.1 123.627L257.58 119.883Z" fill="#0090D4"/>
<path d="M249.308 121.035L250.174 125.354L247.288 131.497L245.364 123.531L249.308 121.035Z" fill="#0090D4"/>
<path d="M256.329 124.779L259.696 112.685C259.696 112.685 258.061 109.709 258.445 109.037C258.83 108.365 260.561 100.303 261.716 99.3429C262.966 98.479 267.968 100.015 268.545 100.783C269.026 101.646 263.735 112.685 263.735 112.685L261.812 125.834L256.329 124.779Z" fill="#F2C3B5"/>
<path d="M275.951 126.794C285.088 136.105 266.813 157.221 256.329 156.357C245.845 155.493 256.618 117.1 256.618 117.1L263.351 118.156C263.351 118.156 260.946 134.761 261.716 136.009C262.389 137.448 272.873 123.627 275.951 126.794Z" fill="#0073AA"/>
<path d="M256.041 115.948L255.079 119.115L264.409 119.883V117.1L256.041 115.948Z" fill="#0090D4"/>
<path opacity="0.6" d="M241.806 149.638H238.054C237.67 149.638 237.285 149.254 237.285 148.87V141.768C237.285 141.384 237.67 141 238.054 141H241.806C242.19 141 242.575 141.384 242.575 141.768V148.87C242.575 149.254 242.286 149.638 241.806 149.638Z" fill="white"/>
<path opacity="0.2" d="M241.902 141.576H237.573V147.431H241.902V141.576Z" fill="black"/>
<path d="M240.363 138.888H239.401V142.343H240.363V138.888Z" fill="#263238"/>
<path d="M161.204 288.142C162.166 287.662 163.224 287.47 164.282 287.374C164.282 287.374 167.937 285.263 171.592 276.912H175.631C177.074 276.912 178.324 277.776 178.805 279.12C178.901 279.312 178.902 279.504 178.902 279.696C178.902 280.656 178.709 281.615 178.613 282.671C178.228 285.743 176.208 292.27 176.208 292.27L175.535 292.078L176.785 286.031C177.17 284.015 175.054 285.935 173.996 288.046C173.034 290.158 171.399 292.174 166.975 291.214C161.685 289.87 159.569 289.102 161.204 288.142Z" fill="#0090D4"/>
<path d="M172.265 274.705C172.265 274.705 167.167 285.359 164.282 287.374C164.282 287.374 168.225 289.678 172.265 284.495C177.555 277.776 178.805 279.696 178.805 279.696C178.805 279.696 178.613 277.392 178.132 276.24C177.363 274.129 172.265 274.705 172.265 274.705Z" fill="#F2C3B5"/>
<path d="M217.183 313.482C218.048 312.81 218.914 312.33 219.972 312.042C219.972 312.042 223.05 309.067 224.589 300.14L228.532 299.18C229.879 298.893 231.322 299.468 232.091 300.62C232.187 300.812 232.283 300.908 232.38 301.1C232.572 302.06 232.668 303.02 232.764 303.98C233.149 307.051 232.764 313.866 232.764 313.866H232.091L231.899 307.723C231.802 305.611 230.167 308.107 229.686 310.315C229.206 312.618 228.244 314.922 223.627 315.018C218.048 315.018 215.836 314.73 217.183 313.482Z" fill="#0090D4"/>
<path d="M224.781 297.837C224.781 297.837 222.377 309.355 219.972 312.042C219.972 312.042 224.3 313.386 227.09 307.339C230.648 299.564 232.283 301.1 232.283 301.1C232.283 301.1 231.514 298.892 230.841 297.933C229.59 295.917 224.781 297.837 224.781 297.837Z" fill="#F2C3B5"/>
<path d="M314.136 89.5526H280.568C277.874 89.5526 275.662 87.3449 275.662 84.6574V70.3559C275.662 67.6683 277.874 65.4607 280.568 65.4607H314.136C316.829 65.4607 319.041 67.6683 319.041 70.3559V84.6574C319.041 87.3449 316.829 89.5526 314.136 89.5526Z" fill="#0090D4"/>
<path d="M287.3 86.769L277.201 100.495L293.552 87.7289L287.3 86.769Z" fill="#0090D4"/>
<path d="M287.685 77.4586C287.685 78.2265 287.012 78.8984 286.242 78.8984C285.473 78.8984 284.8 78.2265 284.8 77.4586C284.8 76.6908 285.473 76.0189 286.242 76.0189C287.012 76.0189 287.685 76.6908 287.685 77.4586Z" fill="white"/>
<path d="M295.091 77.4586C295.091 78.2265 294.418 78.8984 293.649 78.8984C292.879 78.8984 292.206 78.2265 292.206 77.4586C292.206 76.6908 292.879 76.0189 293.649 76.0189C294.514 76.1149 295.091 76.6908 295.091 77.4586Z" fill="white"/>
<path d="M302.497 77.4586C302.497 78.2265 301.824 78.8984 301.055 78.8984C300.285 78.8984 299.612 78.2265 299.612 77.4586C299.612 76.6908 300.285 76.0189 301.055 76.0189C301.92 76.1149 302.497 76.6908 302.497 77.4586Z" fill="white"/>
<path d="M309.904 77.4586C309.904 78.2265 309.23 78.8984 308.461 78.8984C307.691 78.8984 307.018 78.2265 307.018 77.4586C307.018 76.6908 307.691 76.0189 308.461 76.0189C309.23 76.0189 309.904 76.6908 309.904 77.4586Z" fill="white"/>
<path d="M179.19 70.6438L155.24 57.782C154.567 57.3981 154.375 56.6302 154.663 55.9584L162.262 41.8488C162.646 41.1769 163.416 40.9849 164.089 41.2729L188.039 54.1347C188.712 54.5186 188.905 55.2865 188.616 55.9584L181.018 70.0679C180.633 70.7398 179.863 70.9318 179.19 70.6438Z" fill="#B2DEF2"/>
<path opacity="0.2" d="M161.685 43.0006L169.187 56.9182C169.764 57.974 170.918 58.6459 172.169 58.5499L187.75 57.0142L171.88 59.3178C170.437 59.5097 169.091 58.7419 168.417 57.4941L161.685 43.0006Z" fill="black"/>
<path d="M143.506 40.3131C143.795 34.938 147.738 24.1878 152.547 20.9244C157.356 17.661 154.182 22.1722 154.182 22.1722C154.182 22.1722 158.703 17.757 161.204 17.8529C163.608 17.9489 161.204 20.7324 161.204 20.7324C161.204 20.7324 166.109 17.661 168.418 17.8529C170.726 17.9489 168.418 20.6365 168.418 20.6365C168.418 20.6365 172.457 17.757 174.092 19.1007C175.727 20.5405 153.028 35.4179 150.527 41.4649C148.027 47.7038 143.314 45.7841 143.506 40.3131Z" fill="#66BCE5"/>
<path d="M163.031 39.5452L166.109 41.4649C166.301 41.5608 166.205 41.9448 165.917 41.9448L162.743 41.6568L163.031 44.0564C163.031 44.3444 162.743 44.4403 162.55 44.2484L160.723 42.1367L163.031 39.5452Z" fill="#4CB1E1"/>
<path d="M120.518 27.5473C120.518 27.5473 124.75 24.6678 131.002 26.4915C131.002 26.4915 132.83 34.842 137.831 37.6255C140.524 39.1613 147.257 39.0653 152.547 37.3376C158.895 35.3219 161.973 35.3219 163.031 37.6255C164.089 39.8332 162.935 42.4247 158.126 43.5765C153.317 44.7283 149.469 53.0789 140.717 53.1749C131.964 53.2708 127.347 44.5364 129.559 36.8577C129.656 36.9537 126.962 31.1947 120.518 27.5473Z" fill="#80C7E9"/>
<path d="M160.723 39.2573C160.723 39.4492 160.53 39.6412 160.338 39.6412C160.146 39.6412 159.953 39.4492 159.953 39.2573C159.953 39.0653 160.146 38.8733 160.338 38.8733C160.53 38.8733 160.723 39.0653 160.723 39.2573Z" fill="#263238"/>
<path d="M138.697 46.2641C133.503 47.7038 122.057 47.2239 117.44 43.6725C112.823 40.1211 118.113 41.7528 118.113 41.7528C118.113 41.7528 112.439 38.7773 111.862 36.4737C111.284 34.1701 114.651 35.6099 114.651 35.6099C114.651 35.6099 110.226 31.8665 109.649 29.6589C109.072 27.4513 112.342 28.7951 112.342 28.7951C112.342 28.7951 108.303 25.8196 109.168 23.8039C110.034 21.7883 131.194 38.7773 137.831 39.2573C144.372 39.8332 143.987 44.8243 138.697 46.2641Z" fill="#66BCE5"/>
<path d="M104.936 22.5561C104.071 22.2682 103.109 21.9802 102.243 21.6923" stroke="#0090D4" stroke-width="0.75" stroke-linecap="round" stroke-linejoin="round"/>
<path d="M96.5683 20.2525C93.2019 19.5806 89.7393 19.1007 86.3729 18.8128C77.0431 18.1409 62.327 17.277 56.6521 26.4914C51.4582 34.938 60.4033 49.4315 63.5774 57.3021C67.5209 66.9005 72.1377 78.8984 67.5209 89.0727C57.9987 109.997 17.5054 99.1509 3.75116 79.8582" stroke="#0090D4" stroke-width="0.75" stroke-linecap="round" stroke-linejoin="round" stroke-dasharray="6.03 6.03"/>
<path d="M2.11605 77.4587C1.63513 76.5948 1.2504 75.731 0.865662 74.8671" stroke="#0090D4" stroke-width="0.75" stroke-linecap="round" stroke-linejoin="round"/>
<path d="M118.979 153.67H82.4293V161.156H118.979V153.67Z" fill="white"/>
<path opacity="0.1" d="M118.979 153.67H82.4293V161.156H118.979V153.67Z" fill="black"/>
<path opacity="0.1" d="M97.8187 153.67H82.4293V161.156H97.8187V153.67Z" fill="black"/>
<path opacity="0.1" d="M82.4293 154.725H114.939L82.4293 155.685V154.725Z" fill="black"/>
<path opacity="0.1" d="M118.979 156.069L90.7973 156.741H118.979V156.069Z" fill="black"/>
<path opacity="0.1" d="M83.9683 158.181L97.8187 157.605L118.306 158.181L97.8187 158.469L83.9683 158.181Z" fill="black"/>
<path opacity="0.1" d="M82.4293 159.716H106.571L82.4293 160.292V159.716Z" fill="black"/>
<path opacity="0.1" d="M118.883 160.292L102.82 160.58H118.979L118.883 160.292Z" fill="black"/>
<path d="M113.978 146.183H77.4278V153.67H113.978V146.183Z" fill="white"/>
<path opacity="0.1" d="M113.978 146.183H77.4278V153.67H113.978V146.183Z" fill="black"/>
<path opacity="0.1" d="M92.8172 146.183H77.4278V153.67H92.8172V146.183Z" fill="black"/>
<path opacity="0.1" d="M77.4278 147.239H109.842L77.4278 148.198V147.239Z" fill="black"/>
<path opacity="0.1" d="M113.881 148.582L85.6996 149.254H113.881V148.582Z" fill="black"/>
<path opacity="0.1" d="M78.8705 150.694L92.721 150.118L113.208 150.694L92.721 150.982L78.8705 150.694Z" fill="black"/>
<path opacity="0.1" d="M77.4278 152.23H101.474L77.4278 152.806V152.23Z" fill="black"/>
<path opacity="0.1" d="M113.881 152.806L97.8187 153.094H113.881V152.806Z" fill="black"/>
<path d="M118.113 138.696H81.5637V146.183H118.113V138.696Z" fill="white"/>
<path opacity="0.1" d="M118.113 138.696H81.5637V146.183H118.113V138.696Z" fill="black"/>
<path opacity="0.1" d="M96.9531 138.696H81.5637V146.183H96.9531V138.696Z" fill="black"/>
<path opacity="0.1" d="M81.5637 139.848H114.074L81.5637 140.712V139.848Z" fill="black"/>
<path opacity="0.1" d="M118.017 141.096L89.9316 141.768H118.017V141.096Z" fill="black"/>
<path opacity="0.1" d="M83.0065 143.207L96.9531 142.631L117.344 143.207L96.9531 143.495L83.0065 143.207Z" fill="black"/>
<path opacity="0.1" d="M81.5637 144.743H105.61L81.5637 145.319V144.743Z" fill="black"/>
<path opacity="0.1" d="M118.017 145.319L101.955 145.607H118.017V145.319Z" fill="black"/>
<path d="M142.352 160.964L143.314 157.413H182.364L200.254 159.237L201.024 160.964H142.352Z" fill="#263238"/>
<path opacity="0.4" d="M182.364 157.413V160.964H142.352L143.314 157.413H182.364Z" fill="black"/>
<path d="M174.477 140.232C174.669 142.152 173.227 143.687 171.399 143.687H111.669C109.745 143.687 108.11 142.152 107.918 140.232L104.359 102.03C104.359 101.646 104.359 101.263 104.455 100.879C104.744 99.5348 105.994 98.575 107.437 98.575H167.167C169.091 98.575 170.726 100.111 170.918 102.03L174.477 140.232Z" fill="#263238"/>
<path opacity="0.4" d="M171.207 143.687H111.669C109.745 143.687 108.11 142.151 107.918 140.232L104.359 102.03C104.359 101.646 104.359 101.263 104.455 100.879H163.993C165.917 100.879 167.552 102.414 167.744 104.334L171.303 142.535C171.303 143.015 171.303 143.399 171.207 143.687Z" fill="black"/>
<path d="M130.136 120.267H142.544L139.178 155.589L158.799 158.565V160.964H117.633V158.565L126.001 155.589L130.136 120.267Z" fill="#263238"/>
<path opacity="0.1" d="M142.544 120.267L133.31 160.388L126 160.196L130.136 120.267H142.544Z" fill="white"/>
<path d="M142.448 314.922H136.581L126 167.875H133.791L142.448 314.922Z" fill="#7D8488"/>
<path opacity="0.2" d="M134.176 174.786H126.481L126 168.067H133.791L134.176 174.786Z" fill="black"/>
<path d="M185.731 314.922H179.767L178.805 167.875H186.692L185.731 314.922Z" fill="#93999B"/>
<path opacity="0.2" d="M186.692 168.067L186.5 192.063H178.998L178.805 168.067H186.692Z" fill="black"/>
<path d="M248.25 314.922H242.383L231.802 167.875H239.593L248.25 314.922Z" fill="#93999B"/>
<path opacity="0.2" d="M239.978 174.786H232.283L231.802 168.067H239.593L239.978 174.786Z" fill="black"/>
<path d="M75.0232 314.922H69.156L77.8125 167.875H85.6034L75.0232 314.922Z" fill="#93999B"/>
<path opacity="0.2" d="M77.8125 168.067H85.6034L85.1225 174.786H77.4278L77.8125 168.067Z" fill="black"/>
<path d="M243.729 171.522H73.6766C72.5224 171.522 71.5606 170.563 71.5606 169.411V164.132H245.749V169.411C245.749 170.659 244.883 171.522 243.729 171.522Z" fill="#99D3EE"/>
<path opacity="0.2" d="M245.845 164.228H71.6567V167.875H245.845V164.228Z" fill="black"/>
<path d="M249.404 165.188H68.0018C66.8476 165.188 65.8857 164.228 65.8857 163.076C65.8857 161.924 66.8476 160.964 68.0018 160.964H249.5C250.654 160.964 251.616 161.924 251.616 163.076C251.52 164.228 250.558 165.188 249.404 165.188Z" fill="#99D3EE"/>
<path d="M206.506 154.629L208.718 151.27C209.199 150.598 209.873 150.214 210.738 150.214H213.528C213.72 150.214 214.008 150.214 214.201 150.31L224.3 153.382C224.877 153.574 225.358 153.957 225.647 154.437L227.089 156.837L206.506 154.629Z" fill="#0073AA"/>
<path opacity="0.2" d="M227.186 156.837L212.47 155.205L214.489 150.31L224.3 153.286C224.877 153.478 225.358 153.862 225.647 154.341L227.186 156.837Z" fill="black"/>
<path d="M234.111 160.676V160.964H221.318H202.947L204.102 156.453C204.583 154.725 206.121 153.574 207.853 153.574H221.703C222.184 153.574 222.569 153.67 223.05 153.766L224.781 154.437L231.61 157.029C233.149 157.605 234.111 159.045 234.111 160.676Z" fill="#0090D4"/>
<path opacity="0.2" d="M234.111 160.676V160.964H221.318L221.992 156.069C222.184 154.821 223.531 153.957 224.685 154.437L231.514 157.029C233.149 157.605 234.111 159.045 234.111 160.676Z" fill="black"/>
<path d="M223.338 157.701L227.378 145.511C227.57 145.031 228.147 144.743 228.628 145.031C229.013 145.223 229.206 145.607 229.109 146.087L225.647 159.141C225.743 159.045 223.435 159.908 223.338 157.701Z" fill="#263238"/>
<path opacity="0.2" d="M206.506 160.004H204.679L205.063 158.181H206.891L206.506 160.004Z" fill="black"/>
<path opacity="0.2" d="M209.199 159.908H207.372L207.757 158.181H209.584L209.199 159.908Z" fill="black"/>
</svg>
