<svg width="24" height="24" viewBox="0 0 24 24" fill="none" xmlns="http://www.w3.org/2000/svg">
<path d="M18.1268 14.269C16.4586 14.269 15.1016 15.6261 15.1016 17.2943C15.1016 18.9624 16.4586 20.3195 18.1268 20.3195C19.7952 20.3195 21.152 18.9624 21.152 17.2943C21.152 15.6261 19.7949 14.269 18.1268 14.269ZM18.1268 18.8069C17.2926 18.8069 16.6142 18.1285 16.6142 17.2943C16.6142 16.4601 17.2926 15.7817 18.1268 15.7817C18.961 15.7817 19.6394 16.4601 19.6394 17.2943C19.6394 18.1285 18.961 18.8069 18.1268 18.8069Z" fill="#A9AFB7"/>
<path d="M7.79084 14.269C6.1227 14.269 4.76562 15.6261 4.76562 17.2943C4.76562 18.9624 6.1227 20.3195 7.79084 20.3195C9.45898 20.3195 10.8161 18.9624 10.8161 17.2943C10.8161 15.6261 9.45898 14.269 7.79084 14.269ZM7.79084 18.8069C6.95666 18.8069 6.27823 18.1285 6.27823 17.2943C6.27823 16.4601 6.95666 15.7817 7.79084 15.7817C8.6248 15.7817 9.30345 16.4601 9.30345 17.2943C9.30345 18.1285 8.62503 18.8069 7.79084 18.8069Z" fill="#A9AFB7"/>
<path d="M20.163 5.60984C20.0344 5.35447 19.773 5.19336 19.4871 5.19336H15.5039V6.70597H19.0207L21.0801 10.8021L22.4319 10.1224L20.163 5.60984Z" fill="#A9AFB7"/>
<path d="M15.8555 16.563H10.1328V18.0756H15.8555V16.563Z" fill="#A9AFB7"/>
<path d="M5.51872 16.563H2.89691C2.47916 16.563 2.14062 16.9016 2.14062 17.3193C2.14062 17.737 2.4792 18.0755 2.89691 18.0755H5.51877C5.93652 18.0755 6.27505 17.737 6.27505 17.3193C6.27505 16.9015 5.93647 16.563 5.51872 16.563Z" fill="#A9AFB7"/>
<path d="M23.8389 11.9395L22.3513 10.0235C22.2084 9.83896 21.9878 9.73105 21.754 9.73105H16.2582V4.43695C16.2582 4.0192 15.9197 3.68066 15.502 3.68066H2.89691C2.47916 3.68066 2.14062 4.01924 2.14062 4.43695C2.14062 4.85465 2.4792 5.19323 2.89691 5.19323H14.7456V10.4873C14.7456 10.9051 15.0842 11.2436 15.5019 11.2436H21.3837L22.4851 12.6624V16.5629H20.3927C19.9749 16.5629 19.6364 16.9015 19.6364 17.3192C19.6364 17.737 19.975 18.0755 20.3927 18.0755H23.2414C23.6591 18.0755 23.9977 17.7369 23.9977 17.3192V12.4034C23.9977 12.2354 23.9417 12.0721 23.8389 11.9395Z" fill="#A9AFB7"/>
<path d="M5.46967 12.731H1.99066C1.57291 12.731 1.23438 13.0695 1.23438 13.4872C1.23438 13.905 1.57295 14.2435 1.99066 14.2435H5.46962C5.88737 14.2435 6.22591 13.9049 6.22591 13.4872C6.22595 13.0695 5.88737 12.731 5.46967 12.731Z" fill="#A9AFB7"/>
<path d="M7.21008 9.75635H0.756281C0.338578 9.75635 0 10.0949 0 10.5127C0 10.9304 0.338578 11.269 0.756281 11.269H7.21008C7.62783 11.269 7.96636 10.9304 7.96636 10.5127C7.96636 10.095 7.62783 9.75635 7.21008 9.75635Z" fill="#A9AFB7"/>
<path d="M8.44445 6.78125H1.99066C1.57291 6.78125 1.23438 7.11983 1.23438 7.53753C1.23438 7.95528 1.57295 8.29381 1.99066 8.29381H8.44445C8.8622 8.29381 9.20074 7.95523 9.20074 7.53753C9.20078 7.11983 8.8622 6.78125 8.44445 6.78125Z" fill="#A9AFB7"/>
</svg>
