<svg width="24" height="24" viewBox="0 0 24 24" fill="none" xmlns="http://www.w3.org/2000/svg">
<g clip-path="url(#clip0)">
<path d="M17.625 9.21096C17.6244 3.22671 17.6263 3.5876 17.6236 3.54279C17.5988 3.14566 17.2798 2.98254 17.2751 2.97795L12.3532 0.11857C12.1348 -0.00827344 11.8652 -0.00827344 11.6468 0.11857C6.29503 3.22779 6.66173 2.99702 6.55387 3.11773C6.43903 3.2463 6.375 3.41407 6.375 3.58596V9.21096C6.375 9.46329 6.51019 9.69626 6.72928 9.82141C11.9391 12.7601 11.6616 12.7266 12 12.7266C12.3492 12.7266 12.1412 12.7149 17.2707 9.82141C17.4898 9.69626 17.625 9.46329 17.625 9.21096ZM12 1.53977L15.5135 3.58095L12 5.58865L8.48649 3.58095L12 1.53977ZM7.78125 4.79759L11.2969 6.80651V10.8119L7.78125 8.80296V4.79759ZM16.2188 8.80291L12.7031 10.8118V6.80646L16.2188 4.79754V8.80291Z" fill="#A9AFB7"/>
<path d="M7.58189 13.5779C6.68156 12.6852 5.42461 12.3617 4.26562 12.6072V7.82812C4.26562 6.65208 3.30886 5.69531 2.13281 5.69531C0.956766 5.69531 0 6.65208 0 7.82812V15.5265C0 16.5852 0.432187 17.6189 1.1857 18.3625L4.5128 21.6458V23.2734C4.5128 23.6618 4.82761 23.9766 5.21592 23.9766H10.5938C10.9821 23.9766 11.2969 23.6618 11.2969 23.2734V18.5313C11.2969 17.7245 10.9683 16.9359 10.3954 16.3677L7.58189 13.5779ZM9.89062 22.5703H5.91905V21.3518C5.91905 21.1637 5.84367 20.9835 5.7098 20.8514L2.1735 17.3616C1.68591 16.8804 1.40625 16.2116 1.40625 15.5265V7.82812C1.40625 7.42748 1.73217 7.10156 2.13281 7.10156C2.53345 7.10156 2.85938 7.42748 2.85938 7.82812V13.2404C2.71847 13.345 2.58361 13.4611 2.45597 13.5888C2.18138 13.8634 2.18138 14.3085 2.45597 14.5831L5.62003 17.7472C5.89458 18.0218 6.3398 18.0218 6.61439 17.7472C6.88898 17.4726 6.88898 17.0274 6.61439 16.7528L4.0282 14.1667C4.85878 13.7526 5.89814 13.8888 6.59175 14.5765L9.40523 17.3663C9.71377 17.6722 9.89067 18.0969 9.89067 18.5314V22.5703H9.89062Z" fill="#A9AFB7"/>
<path d="M21.8672 5.69531C20.6911 5.69531 19.7344 6.65208 19.7344 7.82812V12.6072C18.5756 12.362 17.3183 12.6853 16.4181 13.578L13.6046 16.3678C13.0317 16.9359 12.7031 17.7245 12.7031 18.5313V23.2734C12.7031 23.6618 13.0179 23.9766 13.4062 23.9766H18.7841C19.1724 23.9766 19.4872 23.6618 19.4872 23.2734V21.6458L22.8143 18.3625C23.5678 17.6189 24 16.5852 24 15.5265V7.82812C24 6.65208 23.0432 5.69531 21.8672 5.69531ZM22.5938 15.5265C22.5938 16.2116 22.3141 16.8804 21.8265 17.3616L18.2902 20.8514C18.1563 20.9835 18.0809 21.1637 18.0809 21.3518V22.5703H14.1094V18.5313C14.1094 18.0968 14.2863 17.6722 14.5948 17.3663L17.4083 14.5765C18.1018 13.8887 19.1411 13.7524 19.9717 14.1666L17.3856 16.7528C17.111 17.0274 17.111 17.4726 17.3856 17.7472C17.6602 18.0217 18.1054 18.0217 18.38 17.7472L21.544 14.5831C21.8186 14.3085 21.8186 13.8633 21.544 13.5887C21.4164 13.4611 21.2815 13.345 21.1406 13.2404V7.82812C21.1406 7.42748 21.4665 7.10156 21.8672 7.10156C22.2678 7.10156 22.5938 7.42748 22.5938 7.82812V15.5265Z" fill="#A9AFB7"/>
</g>
<defs>
<clipPath id="clip0">
<rect width="24" height="24" fill="white"/>
</clipPath>
</defs>
</svg>
