<svg width="24" height="24" viewBox="0 0 24 24" fill="none" xmlns="http://www.w3.org/2000/svg">
<g clip-path="url(#clip0)">
<path d="M22.9707 18.018C20.8227 15.87 20.9635 16.0061 20.9031 15.9615L15.2173 11.7636L17.423 9.55804C19.1963 10.19 21.2041 9.75309 22.5554 8.40182C24.0276 6.92967 24.414 4.67896 23.517 2.80129C23.3079 2.36381 22.7281 2.26471 22.3857 2.60723L20.5674 4.42556C20.2934 4.69959 19.8475 4.69964 19.5733 4.42556C19.2986 4.15082 19.2986 3.70626 19.5733 3.43153L21.3917 1.61315C21.7345 1.27036 21.6348 0.690699 21.1976 0.481917C19.32 -0.415083 17.0693 -0.0286451 15.5971 1.44346C14.2455 2.79506 13.8091 4.80295 14.4409 6.57586L11.8971 9.11943C11.3791 8.71659 12.0626 9.40467 7.18454 4.2322L7.69589 3.72084C8.01933 3.39745 7.95193 2.85595 7.56052 2.62111L3.7958 0.362246C2.80894 -0.229879 1.55143 -0.0750982 0.737629 0.738699C-0.0761205 1.55245 -0.230949 2.81006 0.361176 3.79687L2.62004 7.56164C2.85525 7.95379 3.39699 8.01979 3.71977 7.69701L4.20202 7.21476C9.0548 12.3605 8.41608 11.6615 8.79971 12.1548C8.8088 12.1664 8.81893 12.1768 8.82858 12.1877L6.57291 14.4432C4.8001 13.8115 2.79207 14.2478 1.44057 15.5994C-0.0315893 17.0716 -0.418027 19.3222 0.47902 21.2C0.688129 21.6375 1.26779 21.7365 1.6103 21.394L3.42863 19.5757C3.7028 19.3016 4.14863 19.3017 4.42271 19.5757C4.69744 19.8504 4.69744 20.295 4.42271 20.5697L2.60429 22.3881C2.26144 22.7309 2.36119 23.3105 2.79835 23.5193C3.47325 23.8417 4.19616 23.9984 4.914 23.9984C6.19322 23.9983 7.45585 23.5008 8.39888 22.5578C9.75047 21.2062 10.1868 19.1983 9.5551 17.4254L11.4815 15.4991L15.9667 20.9497C16.0008 20.9911 15.8882 20.8759 17.8942 22.8819C18.6245 23.6122 19.5953 23.9907 20.55 23.9907C21.2505 23.9907 21.9424 23.7867 22.5235 23.3683C24.2968 22.0911 24.5059 19.5531 22.9707 18.018ZM4.72819 5.72371C4.45571 5.43482 3.99891 5.42976 3.71977 5.70895L3.36225 6.06642L1.56661 3.07359C1.30702 2.64093 1.37485 2.08954 1.73166 1.73273C2.08847 1.37587 2.63986 1.30809 3.07247 1.56768L6.0653 3.36337L5.70779 3.72079C5.43896 3.98962 5.43258 4.4235 5.69344 4.70006C11.2984 10.6433 10.4167 9.74897 10.8952 10.1212L9.82847 11.1878C9.4598 10.7137 10.3158 11.6486 4.72819 5.72371ZM8.22915 16.7632C8.01849 16.9738 7.9635 17.2943 8.09194 17.5632C8.73268 18.9044 8.45649 20.512 7.40485 21.5637C6.73107 22.2374 5.82919 22.593 4.91522 22.5929C4.75083 22.5929 4.58611 22.5814 4.42219 22.5581L5.41669 21.5636C6.2408 20.7396 6.24094 19.4056 5.41669 18.5815C4.59455 17.7593 3.25669 17.7593 2.43455 18.5815L1.44005 19.576C1.2878 18.5009 1.63964 17.3883 2.43455 16.5934C3.48624 15.5417 5.09386 15.2656 6.43505 15.9063C6.70383 16.0347 7.02432 15.9798 7.23507 15.7691L15.7668 7.23796C15.9774 7.02731 16.0324 6.70678 15.904 6.43795C15.2633 5.09681 15.5395 3.48909 16.5911 2.43745C17.3862 1.64245 18.4987 1.29065 19.5737 1.44295L18.5792 2.43745C18.1809 2.8357 17.9615 3.36529 17.9615 3.92854C17.9615 4.49179 18.1809 5.02129 18.5792 5.41964C19.4013 6.24182 20.7392 6.24178 21.5613 5.41964L22.5558 4.42514C22.7081 5.50022 22.3562 6.61279 21.5613 7.4077C20.5096 8.45939 18.902 8.73553 17.5608 8.09484C17.2921 7.96645 16.9715 8.02139 16.7608 8.23204L8.22915 16.7632ZM12.4772 14.5034L14.212 12.7687L15.9801 14.0741L13.8677 16.1865C12.4314 14.4412 12.5211 14.5464 12.4772 14.5034ZM21.7019 22.2276C20.882 22.818 19.6724 22.6721 18.8881 21.8879L17.0304 20.0302L14.7651 17.2772L17.1237 14.9185L20.0258 17.0611L21.9766 19.012C22.8683 19.9037 22.811 21.4287 21.7019 22.2276Z" fill="#A9AFB7"/>
<path d="M20.9685 19.8842L18.1569 17.0726C17.8825 16.7981 17.4374 16.7981 17.1629 17.0726C16.8884 17.3471 16.8884 17.7921 17.1629 18.0666L19.9745 20.8782C20.249 21.1527 20.694 21.1527 20.9685 20.8782C21.243 20.6037 21.243 20.1587 20.9685 19.8842Z" fill="#A9AFB7"/>
</g>
<defs>
<clipPath id="clip0">
<rect width="24" height="24" fill="white"/>
</clipPath>
</defs>
</svg>
