<svg width="373" height="440" viewBox="0 0 373 440" fill="none" xmlns="http://www.w3.org/2000/svg">
<g clip-path="url(#clip0)">
<rect width="373" height="440" fill="white"/>
<path d="M21.7293 -58.6809C-144.198 37.1175 -205.222 243.202 -113.935 401.315C-22.6482 559.429 186.338 609.623 352.266 513.825C518.193 418.026 579.217 211.942 487.93 53.8285C396.643 -104.285 187.657 -154.479 21.7293 -58.6809ZM423.594 19.0347C375.401 27.8757 329.592 44.3318 287.356 68.7169C264.297 81.0309 244.588 97.4057 228.229 117.841C226.686 97.7502 220.506 78.3378 211.31 60.6672C193.46 28.0096 155.236 0.121824 113.719 3.10965C138.321 10.8865 166.484 19.605 183.357 48.8298C214.075 102.034 218.605 167.36 193.716 181.729C165.81 197.841 129.959 170.581 115.249 145.103C84.5316 91.8988 90.2387 21.6616 87.9594 -51.9577C207.704 -97.1131 341.053 -68.1936 423.594 19.0347ZM-3.73339 -0.0179917C3.59167 59.6977 22.4521 116.75 51.2284 170.075C62.0444 188.809 75.123 206.237 90.7859 221.173C61.7692 217.943 32.121 224.07 6.47769 238.875C-26.3863 256.85 -54.579 295.108 -51.8141 336.475C-43.8741 311.908 -34.9694 283.787 -5.55495 266.804C47.9944 235.887 113.558 231.006 127.835 255.734C143.843 283.46 116.293 319.349 90.65 334.154C38.6091 364.2 -30.2054 359.968 -102.136 362.531C-156.052 237.794 -114.779 88.0735 -3.73339 -0.0179917ZM399.168 441.784C390.989 387.557 373.538 334.687 347.036 287.043C338.383 272.056 328.654 258.689 317.417 246.193C344.814 248.36 372.521 242.354 396.656 228.42C429.52 210.445 457.713 172.187 454.948 130.82C447.008 155.387 438.103 183.509 408.689 200.491C366.453 224.876 317.072 233.403 291.172 223.378C287.933 221.252 284.694 219.125 280.701 217.434C278.649 215.622 276.597 213.809 275.299 211.561C259.291 183.835 286.841 147.946 312.484 133.141C358.491 106.579 416.946 106.801 478.849 106.031C526.276 219.527 493.065 353.602 399.168 441.784ZM321.833 112.756C290.156 131.045 253.234 173.344 266.348 211.733C267.324 215.166 268.622 217.414 270.352 220.411C278.462 232.715 290.985 240.472 305.549 243.054C316.353 254.8 325.649 267.418 333.436 280.906C364.154 334.11 370.193 398.565 373.103 462.828C361.147 471.729 349.512 479.445 336.691 486.848C185.847 573.937 -1.34279 530.143 -84.9416 390.571C-26.7094 386.924 31.7332 380.159 81.5115 351.42C115.451 331.825 155.922 283.48 132.992 243.765L132.56 243.015C125.748 232.96 115.166 225.082 103.298 221.943C88.0673 207.756 74.6671 191.513 64.2838 173.528C31.4032 116.578 26.6508 47.3836 23.8394 -21.932C28.3648 -24.5447 32.89 -27.1574 37.4153 -29.77C43.4491 -33.2536 49.4828 -36.7372 55.9492 -39.4714C58.6379 20.9227 64.8871 82.2587 94.7392 133.964C114.208 167.685 162.483 207.755 202.456 184.676C221.312 173.79 228.176 150.843 228.241 124.828C243.202 107.198 261.403 91.6941 281.445 81.1218C328.961 53.6887 385.03 46.2957 442.075 42.3355C449.208 51.2062 454.832 60.9478 460.456 70.6894C461.322 72.1881 461.754 72.9374 462.62 74.4361C414.204 79.4088 364.823 87.9359 321.833 112.756Z" fill="#F2F2F5"/>
</g>
<defs>
<clipPath id="clip0">
<rect width="373" height="440" fill="white"/>
</clipPath>
</defs>
</svg>
